{"glyphs":{"0":{"ha":700,"x_min":51,"x_max":650,"o":"m 650 433 q 568 90 650 196 q 350 -15 486 -15 q 133 92 215 -15 q 51 433 51 199 q 135 773 51 667 q 354 879 218 879 q 650 433 650 879 m 351 107 q 490 181 433 107 q 547 440 547 256 q 491 690 547 619 q 351 760 435 760 q 211 688 268 760 q 154 429 154 615 q 211 178 154 249 q 351 107 268 107 z "},"1":{"ha":700,"x_min":92,"x_max":651,"o":"m 651 53 l 651 0 l 92 0 l 92 53 l 318 90 l 318 746 l 99 746 l 99 801 l 453 856 l 453 90 l 651 53 z "},"2":{"ha":700,"x_min":33,"x_max":649,"o":"m 33 78 l 325 368 q 428 499 394 436 q 461 633 461 561 q 419 739 461 699 q 301 779 378 779 q 200 767 249 779 q 96 729 151 754 l 65 799 q 333 872 199 872 q 532 817 457 872 q 607 642 607 761 q 556 475 607 554 q 410 308 506 396 l 172 93 l 533 99 l 589 210 l 649 210 l 629 0 l 58 0 l 33 78 z "},"3":{"ha":700,"x_min":51,"x_max":615,"o":"m 340 872 q 508 824 443 872 q 572 685 572 776 q 526 553 572 607 q 403 465 479 499 q 558 390 500 450 q 615 240 615 331 q 536 49 615 113 q 303 -14 457 -14 q 51 32 165 -14 l 71 108 q 263 71 179 71 q 413 113 356 71 q 469 240 469 154 q 401 381 469 347 q 219 415 332 415 l 215 482 q 432 664 432 504 q 397 751 432 719 q 290 782 361 782 q 203 769 253 782 q 103 732 154 757 l 71 797 q 197 851 124 829 q 340 872 271 872 z "},"4":{"ha":700,"x_min":-3,"x_max":649,"o":"m 407 0 l 407 192 l 18 192 l -3 253 l 432 863 l 535 851 l 535 278 l 649 278 l 649 192 l 535 192 l 535 0 l 407 0 m 121 278 l 407 278 l 407 686 l 121 278 z "},"5":{"ha":700,"x_min":60,"x_max":628,"o":"m 582 751 l 224 751 l 206 536 q 474 493 381 535 q 597 390 567 451 q 628 251 628 329 q 547 58 628 129 q 314 -14 465 -14 q 60 33 182 -14 l 83 108 q 274 71 192 71 q 425 119 367 71 q 483 250 483 167 q 400 405 483 361 q 139 449 317 449 l 108 481 l 143 850 l 582 850 l 582 751 z "},"6":{"ha":700,"x_min":51,"x_max":656,"o":"m 193 438 q 413 526 279 526 q 597 457 538 526 q 656 279 656 388 q 585 74 656 165 q 333 -18 515 -18 q 113 80 174 -18 q 51 339 51 178 q 117 649 51 529 q 278 820 182 768 q 474 872 375 872 q 592 858 529 872 l 582 789 q 494 796 522 796 q 351 755 418 796 q 242 633 285 714 q 193 438 199 553 m 190 325 q 226 134 190 206 q 342 63 261 63 q 474 114 429 63 q 518 250 518 165 q 488 390 518 339 q 381 442 457 442 q 272 408 324 442 q 190 325 221 374 z "},"7":{"ha":700,"x_min":56,"x_max":647,"o":"m 67 646 l 56 850 l 626 850 l 647 776 l 325 -14 l 183 1 l 539 756 l 158 756 l 129 646 l 67 646 z "},"8":{"ha":700,"x_min":63,"x_max":624,"o":"m 331 -17 q 63 189 63 -17 q 108 325 63 261 q 242 435 153 389 q 127 531 167 478 q 88 658 88 583 q 156 812 88 751 q 357 872 225 872 q 551 821 489 872 q 613 688 613 769 q 429 468 613 546 q 533 403 493 433 q 599 331 574 374 q 624 231 624 289 q 547 51 624 118 q 331 -17 471 -17 m 360 501 q 458 575 426 538 q 490 665 490 613 q 456 763 490 728 q 357 799 422 799 q 252 767 292 799 q 213 674 213 736 q 250 581 213 622 q 360 501 288 539 m 328 57 q 450 92 403 57 q 497 197 497 128 q 463 294 497 257 q 346 376 429 332 l 301 399 q 218 312 251 363 q 185 203 185 261 q 224 92 185 128 q 328 57 263 57 z "},"9":{"ha":700,"x_min":50,"x_max":647,"o":"m 90 96 q 257 67 186 67 q 442 146 378 67 q 507 385 506 225 q 296 326 394 326 q 116 399 182 326 q 50 586 50 472 q 115 784 50 696 q 353 872 181 872 q 582 757 517 872 q 647 467 647 642 q 547 91 647 199 q 286 -17 446 -17 q 173 -8 224 -17 q 71 21 122 1 l 90 96 m 510 481 q 475 714 510 638 q 344 790 440 790 q 231 740 274 790 q 189 606 189 689 q 229 460 189 507 q 333 413 269 413 q 422 431 375 413 q 510 481 468 449 z "},"\u0000":{"ha":0,"x_min":0,"x_max":0,"o":""},"\r":{"ha":268,"x_min":0,"x_max":0,"o":""}," ":{"ha":268,"x_min":0,"x_max":0,"o":""},"A":{"ha":825,"x_min":-4,"x_max":822,"o":"m 186 79 l 285 51 l 285 0 l -4 0 l -4 50 l 96 79 l 356 850 l 444 868 l 722 79 l 822 51 l 822 0 l 494 0 l 494 51 l 579 76 l 532 211 l 231 211 l 186 79 m 378 654 l 251 279 l 510 279 l 378 654 z "},"Á":{"ha":825,"x_min":-4,"x_max":822,"o":"m 296 896 l 268 929 l 483 1110 l 599 1068 l 599 1042 l 296 896 m 186 79 l 285 51 l 285 0 l -4 0 l -4 50 l 96 79 l 356 850 l 444 868 l 722 79 l 822 51 l 822 0 l 494 0 l 494 51 l 579 76 l 532 211 l 231 211 l 186 79 m 378 654 l 251 279 l 510 279 l 378 654 z "},"Ă":{"ha":825,"x_min":-4,"x_max":822,"o":"m 406 918 q 240 1085 240 918 l 297 1088 q 401 1001 297 1001 q 513 1088 513 1001 l 568 1085 q 533 964 568 1010 q 406 918 497 918 m 186 79 l 285 51 l 285 0 l -4 0 l -4 50 l 96 79 l 356 850 l 444 868 l 722 79 l 822 51 l 822 0 l 494 0 l 494 51 l 579 76 l 532 211 l 231 211 l 186 79 m 378 654 l 251 279 l 510 279 l 378 654 z "},"Ắ":{"ha":825,"x_min":-4,"x_max":822,"o":"m 0 0 m 186 79 l 285 51 l 285 0 l -4 0 l -4 50 l 96 79 l 356 850 l 444 868 l 722 79 l 822 51 l 822 0 l 494 0 l 494 51 l 579 76 l 532 211 l 231 211 l 186 79 m 378 654 l 251 279 l 510 279 l 378 654 m 413 918 q 285 964 321 918 q 249 1085 249 1010 l 306 1088 q 413 1001 306 1001 q 521 1088 521 1001 l 578 1085 q 413 918 578 918 m 356 1082 l 328 1115 l 543 1296 l 658 1254 l 658 1228 l 356 1082 z "},"Ặ":{"ha":825,"x_min":-4,"x_max":822,"o":"m 0 0 m 186 79 l 285 51 l 285 0 l -4 0 l -4 50 l 96 79 l 356 850 l 444 868 l 722 79 l 822 51 l 822 0 l 494 0 l 494 51 l 579 76 l 532 211 l 231 211 l 186 79 m 378 654 l 251 279 l 510 279 l 378 654 m 506 -151 q 478 -215 506 -189 q 414 -240 451 -240 q 347 -215 375 -240 q 319 -151 319 -189 q 348 -86 319 -114 q 414 -58 376 -58 q 478 -86 450 -58 q 506 -151 506 -114 m 413 918 q 285 964 321 918 q 249 1085 249 1010 l 306 1088 q 413 1001 306 1001 q 521 1088 521 1001 l 578 1085 q 413 918 578 918 z "},"Ằ":{"ha":825,"x_min":-4,"x_max":822,"o":"m 0 0 m 186 79 l 285 51 l 285 0 l -4 0 l -4 50 l 96 79 l 356 850 l 444 868 l 722 79 l 822 51 l 822 0 l 494 0 l 494 51 l 579 76 l 532 211 l 231 211 l 186 79 m 378 654 l 251 279 l 510 279 l 378 654 m 413 918 q 285 964 321 918 q 249 1085 249 1010 l 306 1088 q 413 1001 306 1001 q 521 1088 521 1001 l 578 1085 q 413 918 578 918 m 479 1082 l 172 1228 l 175 1254 l 290 1296 l 503 1115 l 479 1082 z "},"Ẳ":{"ha":825,"x_min":-4,"x_max":822,"o":"m 0 0 m 186 79 l 285 51 l 285 0 l -4 0 l -4 50 l 96 79 l 356 850 l 444 868 l 722 79 l 822 51 l 822 0 l 494 0 l 494 51 l 579 76 l 532 211 l 231 211 l 186 79 m 378 654 l 251 279 l 510 279 l 378 654 m 413 918 q 285 964 321 918 q 249 1085 249 1010 l 306 1088 q 413 1001 306 1001 q 521 1088 521 1001 l 578 1085 q 413 918 578 918 m 556 1228 q 464 1156 556 1171 l 456 1122 l 396 1122 l 390 1179 q 472 1222 472 1179 q 459 1249 472 1239 q 422 1258 446 1258 q 392 1256 414 1258 l 381 1214 l 335 1214 l 326 1288 q 431 1297 379 1297 q 523 1279 490 1297 q 556 1228 556 1261 z "},"Ẵ":{"ha":825,"x_min":-4,"x_max":822,"o":"m 0 0 m 186 79 l 285 51 l 285 0 l -4 0 l -4 50 l 96 79 l 356 850 l 444 868 l 722 79 l 822 51 l 822 0 l 494 0 l 494 51 l 579 76 l 532 211 l 231 211 l 186 79 m 378 654 l 251 279 l 510 279 l 378 654 m 413 918 q 285 964 321 918 q 249 1085 249 1010 l 306 1088 q 413 1001 306 1001 q 521 1088 521 1001 l 578 1085 q 413 918 578 918 m 629 1246 q 578 1147 601 1181 q 522 1113 554 1113 q 473 1121 504 1113 q 411 1140 442 1129 q 311 1167 338 1167 q 283 1156 297 1167 q 261 1133 269 1144 q 250 1118 253 1122 l 201 1138 q 252 1237 226 1201 q 310 1272 278 1272 q 358 1264 328 1272 q 418 1244 388 1256 q 522 1218 494 1218 q 549 1228 536 1218 q 571 1250 563 1239 q 581 1265 579 1261 l 629 1246 z "},"Ǎ":{"ha":825,"x_min":-4,"x_max":822,"o":"m 0 0 m 186 79 l 285 51 l 285 0 l -4 0 l -4 50 l 96 79 l 356 850 l 444 868 l 722 79 l 822 51 l 822 0 l 494 0 l 494 51 l 579 76 l 532 211 l 231 211 l 186 79 m 378 654 l 251 279 l 510 279 l 378 654 m 367 900 l 222 1083 l 249 1111 l 414 1000 l 576 1111 l 603 1083 l 461 900 l 367 900 z "},"Â":{"ha":825,"x_min":-4,"x_max":822,"o":"m 561 900 l 394 1011 l 235 900 l 207 928 l 350 1111 l 444 1111 l 589 928 l 561 900 m 186 79 l 285 51 l 285 0 l -4 0 l -4 50 l 96 79 l 356 850 l 444 868 l 722 79 l 822 51 l 822 0 l 494 0 l 494 51 l 579 76 l 532 211 l 231 211 l 186 79 m 378 654 l 251 279 l 510 279 l 378 654 z "},"Ấ":{"ha":825,"x_min":-4,"x_max":822,"o":"m 586 965 l 551 988 l 685 1236 l 808 1236 l 819 1211 l 586 965 m 544 900 l 378 1011 l 217 900 l 190 928 l 333 1111 l 426 1111 l 571 928 l 544 900 m 186 79 l 285 51 l 285 0 l -4 0 l -4 50 l 96 79 l 356 850 l 444 868 l 722 79 l 822 51 l 822 0 l 494 0 l 494 51 l 579 76 l 532 211 l 231 211 l 186 79 m 378 654 l 251 279 l 510 279 l 378 654 z "},"Ậ":{"ha":825,"x_min":-4,"x_max":822,"o":"m 0 0 m 186 79 l 285 51 l 285 0 l -4 0 l -4 50 l 96 79 l 356 850 l 444 868 l 722 79 l 822 51 l 822 0 l 494 0 l 494 51 l 579 76 l 532 211 l 231 211 l 186 79 m 378 654 l 251 279 l 510 279 l 378 654 m 506 -151 q 478 -215 506 -189 q 414 -240 451 -240 q 347 -215 375 -240 q 319 -151 319 -189 q 348 -86 319 -114 q 414 -58 376 -58 q 478 -86 450 -58 q 506 -151 506 -114 m 576 900 l 410 1011 l 249 900 l 222 928 l 365 1111 l 458 1111 l 603 928 l 576 900 z "},"Ầ":{"ha":825,"x_min":-4,"x_max":822,"o":"m 636 965 l 401 1211 l 413 1235 l 536 1235 l 669 988 l 636 965 m 544 900 l 378 1011 l 217 900 l 190 928 l 333 1111 l 426 1111 l 571 928 l 544 900 m 186 79 l 285 51 l 285 0 l -4 0 l -4 50 l 96 79 l 356 850 l 444 868 l 722 79 l 822 51 l 822 0 l 494 0 l 494 51 l 579 76 l 532 211 l 231 211 l 186 79 m 378 654 l 251 279 l 510 279 l 378 654 z "},"Ẩ":{"ha":825,"x_min":-4,"x_max":822,"o":"m 0 0 m 186 79 l 285 51 l 285 0 l -4 0 l -4 50 l 96 79 l 356 850 l 444 868 l 722 79 l 822 51 l 822 0 l 494 0 l 494 51 l 579 76 l 532 211 l 231 211 l 186 79 m 378 654 l 251 279 l 510 279 l 378 654 m 576 900 l 410 1011 l 249 900 l 222 928 l 365 1111 l 458 1111 l 603 928 l 576 900 m 701 1165 q 610 1093 701 1108 l 601 1060 l 542 1060 l 536 1117 q 618 1160 618 1117 q 605 1186 618 1176 q 568 1196 592 1196 q 538 1193 560 1196 l 526 1151 l 481 1151 l 472 1225 q 576 1235 525 1235 q 669 1217 636 1235 q 701 1165 701 1199 z "},"Ẫ":{"ha":825,"x_min":-4,"x_max":822,"o":"m 0 0 m 186 79 l 285 51 l 285 0 l -4 0 l -4 50 l 96 79 l 356 850 l 444 868 l 722 79 l 822 51 l 822 0 l 494 0 l 494 51 l 579 76 l 532 211 l 231 211 l 186 79 m 378 654 l 251 279 l 510 279 l 378 654 m 576 900 l 410 1011 l 249 900 l 222 928 l 365 1111 l 458 1111 l 603 928 l 576 900 m 629 1256 q 578 1156 601 1190 q 522 1122 554 1122 q 473 1131 504 1122 q 411 1150 442 1139 q 311 1176 338 1176 q 283 1165 297 1176 q 261 1143 269 1154 q 250 1128 253 1132 l 201 1147 q 252 1247 226 1211 q 310 1282 278 1282 q 358 1274 328 1282 q 418 1254 388 1265 q 522 1228 494 1228 q 549 1238 536 1228 q 571 1260 563 1249 q 581 1275 579 1271 l 629 1256 z "},"Ȁ":{"ha":825,"x_min":-4,"x_max":822,"o":"m 0 0 m 186 79 l 285 51 l 285 0 l -4 0 l -4 50 l 96 79 l 356 850 l 444 868 l 722 79 l 822 51 l 822 0 l 494 0 l 494 51 l 579 76 l 532 211 l 231 211 l 186 79 m 378 654 l 251 279 l 510 279 l 378 654 m 303 897 l 115 1092 l 115 1117 l 226 1117 l 338 921 l 303 897 m 526 897 l 339 1092 l 339 1117 l 450 1117 l 561 921 l 526 897 z "},"Ä":{"ha":825,"x_min":-4,"x_max":822,"o":"m 344 1001 q 319 942 344 967 q 258 918 293 918 q 197 942 224 918 q 169 1001 169 967 q 197 1063 169 1038 q 258 1089 224 1089 q 319 1063 293 1089 q 344 1001 344 1038 m 631 1001 q 605 942 631 967 q 544 918 579 918 q 482 942 508 918 q 456 1001 456 967 q 482 1063 456 1038 q 544 1089 508 1089 q 604 1063 578 1089 q 631 1001 631 1038 m 186 79 l 285 51 l 285 0 l -4 0 l -4 50 l 96 79 l 356 850 l 444 868 l 722 79 l 822 51 l 822 0 l 494 0 l 494 51 l 579 76 l 532 211 l 231 211 l 186 79 m 378 654 l 251 279 l 510 279 l 378 654 z "},"Ạ":{"ha":825,"x_min":-4,"x_max":822,"o":"m 0 0 m 186 79 l 285 51 l 285 0 l -4 0 l -4 50 l 96 79 l 356 850 l 444 868 l 722 79 l 822 51 l 822 0 l 494 0 l 494 51 l 579 76 l 532 211 l 231 211 l 186 79 m 378 654 l 251 279 l 510 279 l 378 654 m 506 -151 q 478 -215 506 -189 q 414 -240 451 -240 q 347 -215 375 -240 q 319 -151 319 -189 q 348 -86 319 -114 q 414 -58 376 -58 q 478 -86 450 -58 q 506 -151 506 -114 z "},"À":{"ha":825,"x_min":-4,"x_max":822,"o":"m 507 894 l 200 1040 l 203 1067 l 318 1108 l 531 928 l 507 894 m 186 79 l 285 51 l 285 0 l -4 0 l -4 50 l 96 79 l 356 850 l 444 868 l 722 79 l 822 51 l 822 0 l 494 0 l 494 51 l 579 76 l 532 211 l 231 211 l 186 79 m 378 654 l 251 279 l 510 279 l 378 654 z "},"Ả":{"ha":825,"x_min":-4,"x_max":822,"o":"m 0 0 m 186 79 l 285 51 l 285 0 l -4 0 l -4 50 l 96 79 l 356 850 l 444 868 l 722 79 l 822 51 l 822 0 l 494 0 l 494 51 l 579 76 l 532 211 l 231 211 l 186 79 m 378 654 l 251 279 l 510 279 l 378 654 m 553 1042 q 461 969 553 985 l 453 936 l 393 936 l 388 993 q 469 1036 469 993 q 456 1063 469 1053 q 419 1072 443 1072 q 389 1069 411 1072 l 378 1028 l 332 1028 l 324 1101 q 428 1111 376 1111 q 520 1093 488 1111 q 553 1042 553 1075 z "},"Ȃ":{"ha":825,"x_min":-4,"x_max":822,"o":"m 0 0 m 186 79 l 285 51 l 285 0 l -4 0 l -4 50 l 96 79 l 356 850 l 444 868 l 722 79 l 822 51 l 822 0 l 494 0 l 494 51 l 579 76 l 532 211 l 231 211 l 186 79 m 378 654 l 251 279 l 510 279 l 378 654 m 414 1097 q 578 929 578 1097 l 519 926 q 414 1013 519 1013 q 304 926 304 1013 l 249 929 q 414 1097 249 1097 z "},"Ā":{"ha":825,"x_min":-4,"x_max":822,"o":"m 246 1044 l 558 1044 l 558 960 l 246 960 l 246 1044 m 186 79 l 285 51 l 285 0 l -4 0 l -4 50 l 96 79 l 356 850 l 444 868 l 722 79 l 822 51 l 822 0 l 494 0 l 494 51 l 579 76 l 532 211 l 231 211 l 186 79 m 378 654 l 251 279 l 510 279 l 378 654 z "},"Ą":{"ha":825,"x_min":-4,"x_max":829,"o":"m -4 50 l 96 81 l 356 850 l 447 868 l 729 79 l 829 51 l 829 0 l 658 0 q 580 -26 615 0 q 524 -92 544 -53 q 504 -169 504 -132 q 524 -235 504 -212 q 575 -258 543 -258 q 650 -228 615 -258 l 675 -251 q 658 -274 675 -254 q 610 -310 640 -293 q 538 -326 579 -326 q 438 -292 471 -326 q 406 -208 406 -257 q 435 -106 406 -150 q 517 -8 465 -61 q 561 40 547 22 q 575 75 575 58 q 569 106 575 86 l 532 211 l 235 211 l 192 81 l 289 51 l 289 0 l -4 0 l -4 50 m 379 650 l 256 279 l 510 279 l 379 650 z "},"Å":{"ha":825,"x_min":-4,"x_max":822,"o":"m 399 876 q 292 913 331 876 q 254 1008 254 950 q 292 1103 254 1065 q 399 1140 331 1140 q 506 1103 468 1140 q 544 1008 544 1065 q 507 913 544 950 q 399 876 469 876 m 399 931 q 452 950 439 931 q 465 1008 465 969 q 452 1067 465 1046 q 399 1088 439 1088 q 347 1067 360 1088 q 333 1008 333 1046 q 347 950 333 969 q 399 931 360 931 m -4 0 l -4 50 l 96 79 l 356 850 l 444 868 l 722 79 l 822 51 l 822 0 l 494 0 l 494 51 l 579 76 l 532 211 l 231 211 l 186 79 l 285 51 l 285 0 l -4 0 m 251 279 l 510 279 l 378 654 l 251 279 z "},"Ǻ":{"ha":825,"x_min":-4,"x_max":822,"o":"m 0 0 m 186 79 l 285 51 l 285 0 l -4 0 l -4 50 l 96 79 l 356 850 l 444 868 l 722 79 l 822 51 l 822 0 l 494 0 l 494 51 l 579 76 l 532 211 l 231 211 l 186 79 m 378 654 l 251 279 l 510 279 l 378 654 m 413 876 q 305 913 343 876 q 267 1008 267 950 q 305 1103 267 1065 q 413 1140 343 1140 q 519 1103 482 1140 q 557 1008 557 1065 q 520 913 557 950 q 413 876 483 876 m 413 931 q 465 950 453 931 q 478 1008 478 969 q 465 1067 478 1046 q 413 1088 453 1088 q 359 1067 372 1088 q 346 1008 346 1046 q 359 950 346 969 q 413 931 372 931 m 356 1147 l 328 1181 l 543 1361 l 658 1319 l 658 1293 l 356 1147 z "},"Ã":{"ha":825,"x_min":-4,"x_max":822,"o":"m 619 1060 q 568 961 593 996 q 513 926 543 926 q 401 954 482 926 q 300 981 325 981 q 273 969 286 981 q 251 947 260 958 q 240 932 243 936 l 192 951 q 300 1086 242 1086 q 408 1058 328 1086 q 511 1032 482 1032 q 540 1042 526 1032 q 561 1064 553 1053 q 571 1079 569 1075 l 619 1060 m 186 79 l 285 51 l 285 0 l -4 0 l -4 50 l 96 79 l 356 850 l 444 868 l 722 79 l 822 51 l 822 0 l 494 0 l 494 51 l 579 76 l 532 211 l 231 211 l 186 79 m 378 654 l 251 279 l 510 279 l 378 654 z "},"Æ":{"ha":1007,"x_min":-36,"x_max":958,"o":"m -36 0 l -36 50 l 64 81 l 432 778 l 340 799 l 340 850 l 906 850 l 906 661 l 844 661 l 814 771 l 601 771 l 625 433 l 757 433 l 783 525 l 842 525 l 842 268 l 783 268 l 754 364 l 629 364 l 649 83 l 861 83 l 897 211 l 958 211 l 958 0 l 390 0 l 390 51 l 515 81 l 496 361 l 304 361 l 160 81 l 254 51 l 254 0 l -36 0 m 339 431 l 492 431 l 474 692 l 339 431 z "},"Ǽ":{"ha":1007,"x_min":-36,"x_max":958,"o":"m 0 0 m -36 0 l -36 50 l 64 81 l 432 778 l 340 799 l 340 850 l 906 850 l 906 661 l 844 661 l 814 771 l 601 771 l 625 433 l 757 433 l 783 525 l 842 525 l 842 268 l 783 268 l 754 364 l 629 364 l 649 83 l 861 83 l 897 211 l 958 211 l 958 0 l 390 0 l 390 51 l 515 81 l 496 361 l 304 361 l 160 81 l 254 51 l 254 0 l -36 0 m 339 431 l 492 431 l 474 692 l 339 431 m 443 896 l 415 929 l 631 1110 l 746 1068 l 746 1042 l 443 896 z "},"B":{"ha":790,"x_min":51,"x_max":715,"o":"m 500 449 q 663 373 610 428 q 715 235 715 318 q 632 64 715 128 q 400 0 549 0 l 51 0 l 51 51 l 175 81 l 175 769 l 51 799 l 51 850 l 399 850 q 619 795 549 850 q 689 646 689 740 q 640 515 689 565 q 500 449 590 465 m 369 474 q 500 513 451 474 q 549 636 549 551 q 506 745 549 708 q 393 782 463 782 q 313 771 364 782 l 313 474 l 369 474 m 313 76 q 390 67 346 67 q 521 109 471 67 q 571 242 571 151 q 516 369 571 326 q 363 411 461 411 l 313 411 l 313 76 z "},"C":{"ha":765,"x_min":53,"x_max":704,"o":"m 704 31 q 585 -3 643 8 q 453 -14 528 -14 q 151 110 250 -14 q 53 431 53 233 q 150 750 53 628 q 453 872 247 872 q 584 862 531 872 q 704 831 638 851 l 690 643 l 635 643 l 600 778 q 476 794 536 794 q 261 694 322 794 q 200 431 200 593 q 263 170 200 276 q 471 64 326 64 q 600 85 536 64 l 635 201 l 693 201 l 704 31 z "},"Ć":{"ha":740,"x_min":53,"x_max":704,"o":"m 319 896 l 293 929 l 507 1110 l 622 1068 l 622 1042 l 319 896 m 704 31 q 585 -3 643 8 q 453 -14 528 -14 q 151 110 250 -14 q 53 431 53 233 q 150 750 53 628 q 453 872 247 872 q 584 862 531 872 q 704 831 638 851 l 690 643 l 635 643 l 600 778 q 476 794 536 794 q 261 694 322 794 q 200 431 200 593 q 263 170 200 276 q 471 64 326 64 q 600 85 536 64 l 635 201 l 693 201 l 704 31 z "},"Č":{"ha":740,"x_min":53,"x_max":704,"o":"m 390 900 l 244 1083 l 272 1111 l 438 1000 l 600 1111 l 626 1083 l 485 900 l 390 900 m 453 -14 q 151 110 250 -14 q 53 431 53 233 q 150 750 53 628 q 453 872 247 872 q 584 862 531 872 q 704 831 638 851 l 690 643 l 635 643 l 600 778 q 476 794 536 794 q 261 694 322 794 q 200 431 200 593 q 263 170 200 276 q 471 64 326 64 q 600 85 536 64 l 635 201 l 693 201 l 704 31 q 585 -3 643 8 q 453 -14 528 -14 z "},"Ç":{"ha":740,"x_min":53,"x_max":704,"o":"m 449 -14 l 433 -64 q 542 -92 504 -64 q 579 -162 579 -119 q 553 -233 579 -200 q 483 -285 526 -265 q 390 -304 440 -304 q 318 -292 349 -304 l 329 -251 q 375 -260 353 -260 q 447 -235 419 -260 q 475 -175 475 -210 q 451 -130 475 -147 q 378 -112 428 -112 l 372 -96 l 401 -11 q 138 125 224 4 q 53 431 53 246 q 150 750 53 628 q 453 872 247 872 q 584 862 531 872 q 704 831 638 851 l 690 643 l 635 643 l 600 778 q 476 794 536 794 q 261 694 322 794 q 200 431 200 593 q 263 170 200 276 q 471 64 326 64 q 600 85 536 64 l 635 201 l 693 201 l 704 31 q 584 -3 642 8 q 450 -14 526 -14 l 449 -14 z "},"Ĉ":{"ha":765,"x_min":53,"x_max":704,"o":"m 53 0 m 704 31 q 585 -3 643 8 q 453 -14 528 -14 q 151 110 250 -14 q 53 431 53 233 q 150 750 53 628 q 453 872 247 872 q 584 862 531 872 q 704 831 638 851 l 690 643 l 635 643 l 600 778 q 476 794 536 794 q 261 694 322 794 q 200 431 200 593 q 263 170 200 276 q 471 64 326 64 q 600 85 536 64 l 635 201 l 693 201 l 704 31 m 611 900 l 444 1011 l 283 900 l 257 928 l 400 1111 l 493 1111 l 638 928 l 611 900 z "},"Ċ":{"ha":765,"x_min":53,"x_max":704,"o":"m 53 0 m 704 31 q 585 -3 643 8 q 453 -14 528 -14 q 151 110 250 -14 q 53 431 53 233 q 150 750 53 628 q 453 872 247 872 q 584 862 531 872 q 704 831 638 851 l 690 643 l 635 643 l 600 778 q 476 794 536 794 q 261 694 322 794 q 200 431 200 593 q 263 170 200 276 q 471 64 326 64 q 600 85 536 64 l 635 201 l 693 201 l 704 31 m 540 1003 q 513 940 540 965 q 449 914 486 914 q 382 940 410 914 q 354 1003 354 965 q 383 1068 354 1040 q 449 1096 411 1096 q 513 1069 485 1096 q 540 1003 540 1042 z "},"D":{"ha":894,"x_min":51,"x_max":842,"o":"m 421 850 q 740 742 639 850 q 842 443 842 635 q 744 123 842 246 q 444 0 647 0 l 51 0 l 51 51 l 175 81 l 175 769 l 51 799 l 51 850 l 421 850 m 411 778 q 313 769 354 778 l 313 85 q 381 70 339 76 q 458 64 422 64 q 644 174 593 64 q 694 443 694 285 q 619 687 694 596 q 411 778 544 778 z "},"Ǳ":{"ha":1586,"x_min":51,"x_max":1533,"o":"m 51 0 m 421 850 q 740 742 639 850 q 842 443 842 635 q 744 123 842 246 q 444 0 647 0 l 51 0 l 51 51 l 175 81 l 175 769 l 51 799 l 51 850 l 421 850 m 411 778 q 313 769 354 778 l 313 85 q 381 70 339 76 q 458 64 422 64 q 644 174 593 64 q 694 443 694 285 q 619 687 694 596 q 411 778 544 778 m 1532 211 l 1518 0 l 950 0 l 925 46 l 1371 769 l 1058 769 l 1028 661 l 967 661 l 953 850 l 1526 850 l 1533 806 l 1093 82 l 1419 82 l 1471 211 l 1532 211 z "},"Ǆ":{"ha":1586,"x_min":51,"x_max":1533,"o":"m 51 0 m 421 850 q 740 742 639 850 q 842 443 842 635 q 744 123 842 246 q 444 0 647 0 l 51 0 l 51 51 l 175 81 l 175 769 l 51 799 l 51 850 l 421 850 m 411 778 q 313 769 354 778 l 313 85 q 381 70 339 76 q 458 64 422 64 q 644 174 593 64 q 694 443 694 285 q 619 687 694 596 q 411 778 544 778 m 1532 211 l 1518 0 l 950 0 l 925 46 l 1371 769 l 1058 769 l 1028 661 l 967 661 l 953 850 l 1526 850 l 1533 806 l 1093 82 l 1419 82 l 1471 211 l 1532 211 m 1185 900 l 1040 1083 l 1067 1111 l 1232 1000 l 1394 1111 l 1421 1083 l 1279 900 l 1185 900 z "},"Ð":{"ha":896,"x_min":53,"x_max":843,"o":"m 53 51 l 175 81 l 175 383 l 57 383 l 57 451 l 175 451 l 175 769 l 53 799 l 53 850 l 422 850 q 742 742 640 850 q 843 443 843 635 q 746 123 843 246 q 446 0 649 0 l 53 0 l 53 51 m 458 64 q 644 174 593 64 q 696 443 696 285 q 621 687 696 596 q 411 778 546 778 q 313 769 357 778 l 313 451 l 469 451 l 469 383 l 313 383 l 313 85 q 381 70 339 76 q 458 64 422 64 z "},"Ď":{"ha":886,"x_min":51,"x_max":842,"o":"m 386 900 l 242 1083 l 269 1111 l 435 1000 l 596 1111 l 624 1083 l 481 900 l 386 900 m 51 51 l 175 81 l 175 769 l 51 799 l 51 850 l 421 850 q 740 742 639 850 q 842 443 842 635 q 744 123 842 246 q 444 0 647 0 l 51 0 l 51 51 m 458 64 q 644 174 593 64 q 694 443 694 285 q 619 687 694 596 q 411 778 544 778 q 313 769 354 778 l 313 85 q 381 70 339 76 q 458 64 422 64 z "},"Đ":{"ha":896,"x_min":53,"x_max":843,"o":"m 53 0 m 53 51 l 175 81 l 175 383 l 57 383 l 57 451 l 175 451 l 175 769 l 53 799 l 53 850 l 422 850 q 742 742 640 850 q 843 443 843 635 q 746 123 843 246 q 446 0 649 0 l 53 0 l 53 51 m 458 64 q 644 174 593 64 q 696 443 696 285 q 621 687 696 596 q 411 778 546 778 q 313 769 357 778 l 313 451 l 469 451 l 469 383 l 313 383 l 313 85 q 381 70 339 76 q 458 64 422 64 z "},"Ḍ":{"ha":894,"x_min":51,"x_max":842,"o":"m 51 0 m 421 850 q 740 742 639 850 q 842 443 842 635 q 744 123 842 246 q 444 0 647 0 l 51 0 l 51 51 l 175 81 l 175 769 l 51 799 l 51 850 l 421 850 m 411 778 q 313 769 354 778 l 313 85 q 381 70 339 76 q 458 64 422 64 q 644 174 593 64 q 694 443 694 285 q 619 687 694 596 q 411 778 544 778 m 540 -151 q 513 -215 540 -189 q 449 -240 486 -240 q 382 -215 410 -240 q 354 -151 354 -189 q 383 -86 354 -114 q 449 -58 411 -58 q 513 -86 485 -58 q 540 -151 540 -114 z "},"ǲ":{"ha":1538,"x_min":51,"x_max":1490,"o":"m 51 0 m 421 850 q 740 742 639 850 q 842 443 842 635 q 744 123 842 246 q 444 0 647 0 l 51 0 l 51 51 l 175 81 l 175 769 l 51 799 l 51 850 l 421 850 m 411 778 q 313 769 354 778 l 313 85 q 381 70 339 76 q 458 64 422 64 q 644 174 593 64 q 694 443 694 285 q 619 687 694 596 q 411 778 544 778 m 1314 600 l 1056 600 l 1029 489 l 974 489 l 954 682 l 1465 682 l 1490 631 l 1110 79 l 1383 79 l 1428 194 l 1483 194 l 1469 0 l 964 0 l 939 53 l 1314 600 z "},"ǅ":{"ha":1538,"x_min":51,"x_max":1490,"o":"m 51 0 m 421 850 q 740 742 639 850 q 842 443 842 635 q 744 123 842 246 q 444 0 647 0 l 51 0 l 51 51 l 175 81 l 175 769 l 51 799 l 51 850 l 421 850 m 411 778 q 313 769 354 778 l 313 85 q 381 70 339 76 q 458 64 422 64 q 644 174 593 64 q 694 443 694 285 q 619 687 694 596 q 411 778 544 778 m 1314 600 l 1056 600 l 1029 489 l 974 489 l 954 682 l 1465 682 l 1490 631 l 1110 79 l 1383 79 l 1428 194 l 1483 194 l 1469 0 l 964 0 l 939 53 l 1314 600 m 1061 1000 l 1215 881 l 1368 1000 l 1403 972 l 1263 778 l 1168 778 l 1025 972 l 1061 1000 z "},"E":{"ha":756,"x_min":53,"x_max":700,"o":"m 529 543 l 588 543 l 588 288 l 529 288 l 499 383 l 318 383 l 318 83 l 603 83 l 639 211 l 700 211 l 700 0 l 53 0 l 53 51 l 181 81 l 181 769 l 53 799 l 53 850 l 668 850 l 668 661 l 606 661 l 576 771 l 318 771 l 318 451 l 503 451 l 529 543 z "},"É":{"ha":756,"x_min":53,"x_max":700,"o":"m 288 896 l 260 929 l 475 1110 l 590 1068 l 590 1042 l 288 896 m 53 0 l 53 51 l 181 81 l 181 769 l 53 799 l 53 850 l 668 850 l 668 661 l 606 661 l 576 771 l 318 771 l 318 451 l 503 451 l 529 543 l 588 543 l 588 288 l 529 288 l 499 383 l 318 383 l 318 83 l 603 83 l 639 211 l 700 211 l 700 0 l 53 0 z "},"Ĕ":{"ha":756,"x_min":53,"x_max":700,"o":"m 53 0 m 529 543 l 588 543 l 588 288 l 529 288 l 499 383 l 318 383 l 318 83 l 603 83 l 639 211 l 700 211 l 700 0 l 53 0 l 53 51 l 181 81 l 181 769 l 53 799 l 53 850 l 668 850 l 668 661 l 606 661 l 576 771 l 318 771 l 318 451 l 503 451 l 529 543 m 378 918 q 250 964 286 918 q 214 1085 214 1010 l 271 1088 q 378 1001 271 1001 q 486 1088 486 1001 l 543 1085 q 378 918 543 918 z "},"Ě":{"ha":756,"x_min":53,"x_max":700,"o":"m 357 900 l 213 1083 l 240 1111 l 406 1000 l 567 1111 l 594 1083 l 451 900 l 357 900 m 53 0 l 53 51 l 181 81 l 181 769 l 53 799 l 53 850 l 668 850 l 668 661 l 606 661 l 576 771 l 318 771 l 318 451 l 503 451 l 529 543 l 588 543 l 588 288 l 529 288 l 499 383 l 318 383 l 318 83 l 603 83 l 639 211 l 700 211 l 700 0 l 53 0 z "},"Ê":{"ha":756,"x_min":53,"x_max":700,"o":"m 554 900 l 388 1011 l 228 900 l 200 928 l 343 1111 l 438 1111 l 582 928 l 554 900 m 529 543 l 588 543 l 588 288 l 529 288 l 499 383 l 318 383 l 318 83 l 603 83 l 639 211 l 700 211 l 700 0 l 53 0 l 53 51 l 181 81 l 181 769 l 53 799 l 53 850 l 668 850 l 668 661 l 606 661 l 576 771 l 318 771 l 318 451 l 503 451 l 529 543 z "},"Ế":{"ha":756,"x_min":53,"x_max":785,"o":"m 551 965 l 517 988 l 650 1236 l 774 1236 l 785 1211 l 551 965 m 510 900 l 343 1011 l 182 900 l 156 928 l 299 1111 l 392 1111 l 536 928 l 510 900 m 529 543 l 588 543 l 588 288 l 529 288 l 499 383 l 318 383 l 318 83 l 603 83 l 639 211 l 700 211 l 700 0 l 53 0 l 53 51 l 181 81 l 181 769 l 53 799 l 53 850 l 668 850 l 668 661 l 606 661 l 576 771 l 318 771 l 318 451 l 503 451 l 529 543 z "},"Ệ":{"ha":756,"x_min":53,"x_max":700,"o":"m 53 0 m 529 543 l 588 543 l 588 288 l 529 288 l 499 383 l 318 383 l 318 83 l 603 83 l 639 211 l 700 211 l 700 0 l 53 0 l 53 51 l 181 81 l 181 769 l 53 799 l 53 850 l 668 850 l 668 661 l 606 661 l 576 771 l 318 771 l 318 451 l 503 451 l 529 543 m 471 -151 q 444 -215 471 -189 q 379 -240 417 -240 q 313 -215 340 -240 q 285 -151 285 -189 q 313 -86 285 -114 q 379 -58 342 -58 q 443 -86 415 -58 q 471 -151 471 -114 m 542 900 l 375 1011 l 214 900 l 188 928 l 331 1111 l 424 1111 l 568 928 l 542 900 z "},"Ề":{"ha":756,"x_min":53,"x_max":700,"o":"m 601 965 l 367 1211 l 378 1235 l 501 1235 l 635 988 l 601 965 m 510 900 l 343 1011 l 182 900 l 156 928 l 299 1111 l 392 1111 l 536 928 l 510 900 m 529 543 l 588 543 l 588 288 l 529 288 l 499 383 l 318 383 l 318 83 l 603 83 l 639 211 l 700 211 l 700 0 l 53 0 l 53 51 l 181 81 l 181 769 l 53 799 l 53 850 l 668 850 l 668 661 l 606 661 l 576 771 l 318 771 l 318 451 l 503 451 l 529 543 z "},"Ể":{"ha":756,"x_min":53,"x_max":700,"o":"m 53 0 m 529 543 l 588 543 l 588 288 l 529 288 l 499 383 l 318 383 l 318 83 l 603 83 l 639 211 l 700 211 l 700 0 l 53 0 l 53 51 l 181 81 l 181 769 l 53 799 l 53 850 l 668 850 l 668 661 l 606 661 l 576 771 l 318 771 l 318 451 l 503 451 l 529 543 m 542 900 l 375 1011 l 214 900 l 188 928 l 331 1111 l 424 1111 l 568 928 l 542 900 m 667 1165 q 575 1093 667 1108 l 567 1060 l 507 1060 l 501 1117 q 583 1160 583 1117 q 570 1186 583 1176 q 533 1196 557 1196 q 503 1193 525 1196 l 492 1151 l 446 1151 l 438 1225 q 542 1235 490 1235 q 634 1217 601 1235 q 667 1165 667 1199 z "},"Ễ":{"ha":756,"x_min":53,"x_max":700,"o":"m 53 0 m 529 543 l 588 543 l 588 288 l 529 288 l 499 383 l 318 383 l 318 83 l 603 83 l 639 211 l 700 211 l 700 0 l 53 0 l 53 51 l 181 81 l 181 769 l 53 799 l 53 850 l 668 850 l 668 661 l 606 661 l 576 771 l 318 771 l 318 451 l 503 451 l 529 543 m 542 900 l 375 1011 l 214 900 l 188 928 l 331 1111 l 424 1111 l 568 928 l 542 900 m 594 1256 q 543 1156 567 1190 q 488 1122 519 1122 q 438 1131 469 1122 q 376 1150 407 1139 q 276 1176 303 1176 q 249 1165 263 1176 q 226 1143 235 1154 q 215 1128 218 1132 l 167 1147 q 217 1247 192 1211 q 275 1282 243 1282 q 323 1274 293 1282 q 383 1254 353 1265 q 488 1228 460 1228 q 515 1238 501 1228 q 536 1260 528 1249 q 546 1275 544 1271 l 594 1256 z "},"Ȅ":{"ha":756,"x_min":53,"x_max":700,"o":"m 53 0 m 529 543 l 588 543 l 588 288 l 529 288 l 499 383 l 318 383 l 318 83 l 603 83 l 639 211 l 700 211 l 700 0 l 53 0 l 53 51 l 181 81 l 181 769 l 53 799 l 53 850 l 668 850 l 668 661 l 606 661 l 576 771 l 318 771 l 318 451 l 503 451 l 529 543 m 268 897 l 81 1092 l 81 1117 l 192 1117 l 303 921 l 268 897 m 492 897 l 304 1092 l 304 1117 l 415 1117 l 526 921 l 492 897 z "},"Ë":{"ha":756,"x_min":53,"x_max":700,"o":"m 336 1001 q 310 942 336 967 q 249 918 283 918 q 188 942 214 918 q 161 1001 161 967 q 188 1063 161 1038 q 249 1089 214 1089 q 310 1063 283 1089 q 336 1001 336 1038 m 622 1001 q 596 942 622 967 q 535 918 569 918 q 473 942 499 918 q 447 1001 447 967 q 473 1063 447 1038 q 535 1089 499 1089 q 596 1063 569 1089 q 622 1001 622 1038 m 529 543 l 588 543 l 588 288 l 529 288 l 499 383 l 318 383 l 318 83 l 603 83 l 639 211 l 700 211 l 700 0 l 53 0 l 53 51 l 181 81 l 181 769 l 53 799 l 53 850 l 668 850 l 668 661 l 606 661 l 576 771 l 318 771 l 318 451 l 503 451 l 529 543 z "},"Ė":{"ha":756,"x_min":53,"x_max":700,"o":"m 503 1003 q 475 940 503 965 q 410 914 447 914 q 343 940 371 914 q 315 1003 315 965 q 344 1068 315 1040 q 410 1096 372 1096 q 475 1069 447 1096 q 503 1003 503 1042 m 529 543 l 588 543 l 588 288 l 529 288 l 499 383 l 318 383 l 318 83 l 603 83 l 639 211 l 700 211 l 700 0 l 53 0 l 53 51 l 181 81 l 181 769 l 53 799 l 53 850 l 668 850 l 668 661 l 606 661 l 576 771 l 318 771 l 318 451 l 503 451 l 529 543 z "},"Ẹ":{"ha":756,"x_min":53,"x_max":700,"o":"m 53 0 m 529 543 l 588 543 l 588 288 l 529 288 l 499 383 l 318 383 l 318 83 l 603 83 l 639 211 l 700 211 l 700 0 l 53 0 l 53 51 l 181 81 l 181 769 l 53 799 l 53 850 l 668 850 l 668 661 l 606 661 l 576 771 l 318 771 l 318 451 l 503 451 l 529 543 m 471 -151 q 444 -215 471 -189 q 379 -240 417 -240 q 313 -215 340 -240 q 285 -151 285 -189 q 313 -86 285 -114 q 379 -58 342 -58 q 443 -86 415 -58 q 471 -151 471 -114 z "},"È":{"ha":756,"x_min":53,"x_max":700,"o":"m 532 896 l 225 1042 l 226 1068 l 342 1110 l 554 929 l 532 896 m 53 0 l 53 51 l 181 81 l 181 769 l 53 799 l 53 850 l 668 850 l 668 661 l 606 661 l 576 771 l 318 771 l 318 451 l 503 451 l 529 543 l 588 543 l 588 288 l 529 288 l 499 383 l 318 383 l 318 83 l 603 83 l 639 211 l 700 211 l 700 0 l 53 0 z "},"Ẻ":{"ha":756,"x_min":53,"x_max":700,"o":"m 53 0 m 529 543 l 588 543 l 588 288 l 529 288 l 499 383 l 318 383 l 318 83 l 603 83 l 639 211 l 700 211 l 700 0 l 53 0 l 53 51 l 181 81 l 181 769 l 53 799 l 53 850 l 668 850 l 668 661 l 606 661 l 576 771 l 318 771 l 318 451 l 503 451 l 529 543 m 518 1042 q 426 969 518 985 l 418 936 l 358 936 l 353 993 q 435 1036 435 993 q 422 1063 435 1053 q 385 1072 408 1072 q 354 1069 376 1072 l 343 1028 l 297 1028 l 289 1101 q 393 1111 342 1111 q 485 1093 453 1111 q 518 1042 518 1075 z "},"Ȇ":{"ha":756,"x_min":53,"x_max":700,"o":"m 53 0 m 529 543 l 588 543 l 588 288 l 529 288 l 499 383 l 318 383 l 318 83 l 603 83 l 639 211 l 700 211 l 700 0 l 53 0 l 53 51 l 181 81 l 181 769 l 53 799 l 53 850 l 668 850 l 668 661 l 606 661 l 576 771 l 318 771 l 318 451 l 503 451 l 529 543 m 379 1097 q 543 929 543 1097 l 485 926 q 379 1013 485 1013 q 269 926 269 1013 l 214 929 q 379 1097 214 1097 z "},"Ē":{"ha":756,"x_min":53,"x_max":700,"o":"m 239 1044 l 551 1044 l 551 960 l 239 960 l 239 1044 m 529 543 l 588 543 l 588 288 l 529 288 l 499 383 l 318 383 l 318 83 l 603 83 l 639 211 l 700 211 l 700 0 l 53 0 l 53 51 l 181 81 l 181 769 l 53 799 l 53 850 l 668 850 l 668 661 l 606 661 l 576 771 l 318 771 l 318 451 l 503 451 l 529 543 z "},"Ę":{"ha":756,"x_min":53,"x_max":728,"o":"m 590 -326 q 490 -292 522 -326 q 457 -208 457 -258 q 489 -107 457 -162 q 585 0 521 -51 l 53 0 l 53 51 l 181 81 l 181 769 l 53 799 l 53 850 l 668 850 l 668 661 l 606 661 l 576 771 l 318 771 l 318 451 l 503 451 l 529 543 l 588 543 l 588 288 l 529 288 l 499 383 l 318 383 l 318 83 l 603 83 l 639 211 l 700 211 l 700 0 l 638 0 q 583 -80 608 -29 q 557 -182 557 -131 q 576 -238 557 -218 q 628 -258 594 -258 q 703 -228 668 -258 l 728 -251 q 710 -274 728 -254 q 663 -310 693 -293 q 590 -326 632 -326 z "},"Ẽ":{"ha":756,"x_min":53,"x_max":700,"o":"m 611 1089 q 560 989 583 1024 q 504 954 536 954 q 455 963 486 954 q 393 982 424 971 q 293 1008 319 1008 q 265 998 279 1008 q 243 976 251 988 q 232 961 235 965 l 183 981 q 234 1080 208 1044 q 292 1115 260 1115 q 401 1088 321 1115 q 503 1061 475 1061 q 531 1072 518 1061 q 553 1093 544 1082 q 563 1108 561 1104 l 611 1089 m 529 543 l 588 543 l 588 288 l 529 288 l 499 383 l 318 383 l 318 83 l 603 83 l 639 211 l 700 211 l 700 0 l 53 0 l 53 51 l 181 81 l 181 769 l 53 799 l 53 850 l 668 850 l 668 661 l 606 661 l 576 771 l 318 771 l 318 451 l 503 451 l 529 543 z "},"F":{"ha":699,"x_min":51,"x_max":668,"o":"m 668 850 l 668 661 l 606 661 l 576 771 l 318 771 l 318 438 l 503 438 l 529 529 l 588 529 l 588 274 l 529 274 l 499 369 l 318 369 l 318 83 l 472 54 l 472 0 l 51 0 l 51 51 l 179 81 l 179 769 l 51 799 l 51 850 l 668 850 z "},"G":{"ha":842,"x_min":53,"x_max":825,"o":"m 624 778 q 486 794 567 794 q 263 686 326 794 q 200 431 200 578 q 262 171 200 279 q 475 63 324 63 q 594 85 547 63 l 594 319 l 472 349 l 472 400 l 825 400 l 825 347 l 732 321 l 732 44 q 617 1 683 17 q 474 -14 550 -14 q 153 109 253 -14 q 53 431 53 232 q 157 750 53 628 q 486 872 261 872 q 620 861 549 872 q 736 831 692 850 l 717 643 l 657 643 l 624 778 z "},"Ǵ":{"ha":842,"x_min":53,"x_max":825,"o":"m 53 0 m 624 778 q 486 794 567 794 q 263 686 326 794 q 200 431 200 578 q 262 171 200 279 q 475 63 324 63 q 594 85 547 63 l 594 319 l 472 349 l 472 400 l 825 400 l 825 347 l 732 321 l 732 44 q 617 1 683 17 q 474 -14 550 -14 q 153 109 253 -14 q 53 431 53 232 q 157 750 53 628 q 486 872 261 872 q 620 861 549 872 q 736 831 692 850 l 717 643 l 657 643 l 624 778 m 361 896 l 333 929 l 549 1110 l 664 1068 l 664 1042 l 361 896 z "},"Ğ":{"ha":824,"x_min":53,"x_max":825,"o":"m 447 918 q 319 964 356 918 q 283 1085 283 1010 l 342 1088 q 447 1001 342 1001 q 557 1088 557 1001 l 613 1085 q 447 918 613 918 m 624 778 q 486 794 567 794 q 263 686 326 794 q 200 431 200 578 q 262 171 200 279 q 475 63 324 63 q 594 85 547 63 l 594 319 l 472 349 l 472 400 l 825 400 l 825 347 l 732 321 l 732 44 q 617 1 683 17 q 474 -14 550 -14 q 153 109 253 -14 q 53 431 53 232 q 157 750 53 628 q 486 872 261 872 q 620 861 549 872 q 736 831 692 850 l 717 643 l 657 643 l 624 778 z "},"Ǧ":{"ha":842,"x_min":53,"x_max":825,"o":"m 53 0 m 624 778 q 486 794 567 794 q 263 686 326 794 q 200 431 200 578 q 262 171 200 279 q 475 63 324 63 q 594 85 547 63 l 594 319 l 472 349 l 472 400 l 825 400 l 825 347 l 732 321 l 732 44 q 617 1 683 17 q 474 -14 550 -14 q 153 109 253 -14 q 53 431 53 232 q 157 750 53 628 q 486 872 261 872 q 620 861 549 872 q 736 831 692 850 l 717 643 l 657 643 l 624 778 m 375 900 l 231 1083 l 257 1111 l 422 1000 l 585 1111 l 611 1083 l 469 900 l 375 900 z "},"Ĝ":{"ha":842,"x_min":53,"x_max":825,"o":"m 53 0 m 624 778 q 486 794 567 794 q 263 686 326 794 q 200 431 200 578 q 262 171 200 279 q 475 63 324 63 q 594 85 547 63 l 594 319 l 472 349 l 472 400 l 825 400 l 825 347 l 732 321 l 732 44 q 617 1 683 17 q 474 -14 550 -14 q 153 109 253 -14 q 53 431 53 232 q 157 750 53 628 q 486 872 261 872 q 620 861 549 872 q 736 831 692 850 l 717 643 l 657 643 l 624 778 m 585 900 l 418 1011 l 257 900 l 231 928 l 374 1111 l 467 1111 l 611 928 l 585 900 z "},"Ģ":{"ha":824,"x_min":53,"x_max":825,"o":"m 474 -14 q 153 109 253 -14 q 53 431 53 232 q 157 750 53 628 q 486 872 261 872 q 620 861 549 872 q 736 831 692 850 l 717 643 l 657 643 l 624 778 q 486 794 567 794 q 263 686 326 794 q 200 431 200 578 q 262 171 200 279 q 475 63 324 63 q 594 85 547 63 l 594 319 l 472 349 l 472 400 l 825 400 l 825 347 l 732 321 l 732 44 q 617 1 683 17 q 474 -14 550 -14 m 381 -310 l 399 -60 l 504 -37 l 528 -61 l 432 -314 l 381 -310 z "},"Ġ":{"ha":842,"x_min":53,"x_max":825,"o":"m 53 0 m 624 778 q 486 794 567 794 q 263 686 326 794 q 200 431 200 578 q 262 171 200 279 q 475 63 324 63 q 594 85 547 63 l 594 319 l 472 349 l 472 400 l 825 400 l 825 347 l 732 321 l 732 44 q 617 1 683 17 q 474 -14 550 -14 q 153 109 253 -14 q 53 431 53 232 q 157 750 53 628 q 486 872 261 872 q 620 861 549 872 q 736 831 692 850 l 717 643 l 657 643 l 624 778 m 514 1003 q 487 940 514 965 q 422 914 460 914 q 356 940 383 914 q 328 1003 328 965 q 356 1068 328 1040 q 422 1096 385 1096 q 486 1069 458 1096 q 514 1003 514 1042 z "},"H":{"ha":1010,"x_min":53,"x_max":960,"o":"m 53 0 l 53 51 l 175 81 l 175 771 l 53 799 l 53 850 l 433 850 l 433 799 l 313 771 l 313 460 l 699 460 l 699 771 l 576 799 l 576 850 l 958 850 l 958 799 l 836 771 l 836 81 l 960 51 l 960 0 l 576 0 l 576 51 l 699 81 l 699 388 l 313 388 l 313 81 l 433 51 l 433 0 l 53 0 z "},"Ħ":{"ha":1010,"x_min":53,"x_max":960,"o":"m 836 81 l 960 51 l 960 0 l 576 0 l 576 51 l 699 81 l 699 346 l 313 346 l 313 81 l 433 51 l 433 0 l 53 0 l 53 51 l 175 81 l 175 544 l 57 544 l 57 613 l 175 613 l 175 771 l 53 799 l 53 850 l 433 850 l 433 799 l 313 771 l 313 613 l 699 613 l 699 771 l 576 799 l 576 850 l 958 850 l 958 799 l 836 771 l 836 613 l 954 613 l 954 544 l 836 544 l 836 81 m 313 418 l 699 418 l 699 544 l 313 544 l 313 418 z "},"Ĥ":{"ha":1010,"x_min":53,"x_max":960,"o":"m 53 0 m 53 0 l 53 51 l 175 81 l 175 771 l 53 799 l 53 850 l 433 850 l 433 799 l 313 771 l 313 460 l 699 460 l 699 771 l 576 799 l 576 850 l 958 850 l 958 799 l 836 771 l 836 81 l 960 51 l 960 0 l 576 0 l 576 51 l 699 81 l 699 388 l 313 388 l 313 81 l 433 51 l 433 0 l 53 0 m 669 900 l 503 1011 l 342 900 l 315 928 l 458 1111 l 551 1111 l 696 928 l 669 900 z "},"Ḥ":{"ha":1010,"x_min":53,"x_max":960,"o":"m 53 0 m 53 0 l 53 51 l 175 81 l 175 771 l 53 799 l 53 850 l 433 850 l 433 799 l 313 771 l 313 460 l 699 460 l 699 771 l 576 799 l 576 850 l 958 850 l 958 799 l 836 771 l 836 81 l 960 51 l 960 0 l 576 0 l 576 51 l 699 81 l 699 388 l 313 388 l 313 81 l 433 51 l 433 0 l 53 0 m 599 -151 q 572 -215 599 -189 q 507 -240 544 -240 q 440 -215 468 -240 q 413 -151 413 -189 q 441 -86 413 -114 q 507 -58 469 -58 q 571 -86 543 -58 q 599 -151 599 -114 z "},"I":{"ha":486,"x_min":51,"x_max":435,"o":"m 51 0 l 51 51 l 175 81 l 175 769 l 51 799 l 51 850 l 435 850 l 435 799 l 313 769 l 313 81 l 435 51 l 435 0 l 51 0 z "},"Ĳ":{"ha":908,"x_min":51,"x_max":889,"o":"m 51 0 m 51 0 l 51 51 l 175 81 l 175 769 l 51 799 l 51 850 l 435 850 l 435 799 l 313 769 l 313 81 l 435 51 l 435 0 l 51 0 m 565 -207 q 422 -168 482 -207 l 428 -125 l 528 -125 q 610 -82 589 -125 q 631 46 631 -39 l 631 769 l 508 799 l 508 850 l 889 850 l 889 799 l 768 769 l 768 88 q 718 -142 768 -76 q 565 -207 668 -207 z "},"Í":{"ha":486,"x_min":51,"x_max":435,"o":"m 107 896 l 81 929 l 296 1110 l 411 1068 l 411 1042 l 107 896 m 51 0 l 51 51 l 175 81 l 175 769 l 51 799 l 51 850 l 435 850 l 435 799 l 313 769 l 313 81 l 435 51 l 435 0 l 51 0 z "},"Ĭ":{"ha":486,"x_min":51,"x_max":435,"o":"m 51 0 m 51 0 l 51 51 l 175 81 l 175 769 l 51 799 l 51 850 l 435 850 l 435 799 l 313 769 l 313 81 l 435 51 l 435 0 l 51 0 m 244 918 q 117 964 153 918 q 81 1085 81 1010 l 138 1088 q 244 1001 138 1001 q 353 1088 353 1001 l 410 1085 q 244 918 410 918 z "},"Ǐ":{"ha":486,"x_min":51,"x_max":435,"o":"m 51 0 m 51 0 l 51 51 l 175 81 l 175 769 l 51 799 l 51 850 l 435 850 l 435 799 l 313 769 l 313 81 l 435 51 l 435 0 l 51 0 m 199 900 l 54 1083 l 81 1111 l 246 1000 l 408 1111 l 435 1083 l 293 900 l 199 900 z "},"Î":{"ha":486,"x_min":51,"x_max":435,"o":"m 79 900 l 51 928 l 194 1111 l 289 1111 l 433 928 l 406 900 l 239 1011 l 79 900 m 51 0 l 51 51 l 175 81 l 175 769 l 51 799 l 51 850 l 435 850 l 435 799 l 313 769 l 313 81 l 435 51 l 435 0 l 51 0 z "},"Ȉ":{"ha":486,"x_min":-53,"x_max":435,"o":"m 0 0 m 51 0 l 51 51 l 175 81 l 175 769 l 51 799 l 51 850 l 435 850 l 435 799 l 313 769 l 313 81 l 435 51 l 435 0 l 51 0 m 135 897 l -53 1092 l -53 1117 l 58 1117 l 169 921 l 135 897 m 358 897 l 171 1092 l 171 1117 l 282 1117 l 393 921 l 358 897 z "},"Ï":{"ha":486,"x_min":14,"x_max":475,"o":"m 101 918 q 40 942 67 918 q 14 1001 14 967 q 40 1063 14 1038 q 101 1089 67 1089 q 163 1063 136 1089 q 189 1001 189 1038 q 163 942 189 967 q 101 918 136 918 m 388 918 q 326 942 351 918 q 300 1001 300 967 q 326 1063 300 1038 q 388 1089 351 1089 q 449 1063 422 1089 q 475 1001 475 1038 q 449 942 475 967 q 388 918 422 918 m 51 0 l 51 51 l 175 81 l 175 769 l 51 799 l 51 850 l 435 850 l 435 799 l 313 769 l 313 81 l 435 51 l 435 0 l 51 0 z "},"İ":{"ha":486,"x_min":51,"x_max":435,"o":"m 243 914 q 176 940 204 914 q 149 1003 149 965 q 177 1068 149 1040 q 243 1096 206 1096 q 308 1068 281 1096 q 336 1003 336 1040 q 308 940 336 965 q 243 914 281 914 m 51 0 l 51 51 l 175 81 l 175 769 l 51 799 l 51 850 l 435 850 l 435 799 l 313 769 l 313 81 l 435 51 l 435 0 l 51 0 z "},"Ị":{"ha":486,"x_min":51,"x_max":435,"o":"m 51 0 m 51 0 l 51 51 l 175 81 l 175 769 l 51 799 l 51 850 l 435 850 l 435 799 l 313 769 l 313 81 l 435 51 l 435 0 l 51 0 m 338 -151 q 310 -215 338 -189 q 246 -240 283 -240 q 179 -215 207 -240 q 151 -151 151 -189 q 180 -86 151 -114 q 246 -58 208 -58 q 310 -86 282 -58 q 338 -151 338 -114 z "},"Ì":{"ha":486,"x_min":51,"x_max":435,"o":"m 383 896 l 76 1042 l 78 1068 l 194 1110 l 407 929 l 383 896 m 51 0 l 51 51 l 175 81 l 175 769 l 51 799 l 51 850 l 435 850 l 435 799 l 313 769 l 313 81 l 435 51 l 435 0 l 51 0 z "},"Ỉ":{"ha":486,"x_min":51,"x_max":435,"o":"m 51 0 m 51 0 l 51 51 l 175 81 l 175 769 l 51 799 l 51 850 l 435 850 l 435 799 l 313 769 l 313 81 l 435 51 l 435 0 l 51 0 m 385 1042 q 293 969 385 985 l 285 936 l 225 936 l 219 993 q 301 1036 301 993 q 288 1063 301 1053 q 251 1072 275 1072 q 221 1069 243 1072 l 210 1028 l 164 1028 l 156 1101 q 260 1111 208 1111 q 352 1093 319 1111 q 385 1042 385 1075 z "},"Ȋ":{"ha":486,"x_min":51,"x_max":435,"o":"m 51 0 m 51 0 l 51 51 l 175 81 l 175 769 l 51 799 l 51 850 l 435 850 l 435 799 l 313 769 l 313 81 l 435 51 l 435 0 l 51 0 m 246 1097 q 410 929 410 1097 l 351 926 q 246 1013 351 1013 q 136 926 136 1013 l 81 929 q 246 1097 81 1097 z "},"Ī":{"ha":486,"x_min":51,"x_max":435,"o":"m 86 960 l 86 1044 l 399 1044 l 399 960 l 86 960 m 51 0 l 51 51 l 175 81 l 175 769 l 51 799 l 51 850 l 435 850 l 435 799 l 313 769 l 313 81 l 435 51 l 435 0 l 51 0 z "},"Į":{"ha":486,"x_min":51,"x_max":440,"o":"m 303 -326 q 201 -292 235 -326 q 168 -208 168 -258 q 209 -94 168 -150 q 318 0 250 -37 l 51 0 l 51 51 l 175 81 l 175 769 l 51 799 l 51 850 l 435 850 l 435 799 l 313 769 l 313 81 l 435 51 l 435 0 q 309 -73 349 -22 q 269 -182 269 -124 q 288 -239 269 -219 q 340 -258 307 -258 q 414 -228 379 -258 l 440 -251 q 392 -301 426 -275 q 303 -326 358 -326 z "},"Ĩ":{"ha":486,"x_min":24,"x_max":451,"o":"m 344 954 q 296 963 326 954 q 235 982 265 971 q 133 1008 161 1008 q 106 998 119 1008 q 84 976 93 988 q 74 961 75 965 l 24 981 q 74 1080 49 1044 q 132 1115 100 1115 q 242 1088 161 1115 q 344 1061 318 1061 q 372 1072 358 1061 q 393 1093 385 1082 q 403 1108 401 1104 l 451 1089 q 401 990 426 1025 q 344 954 376 954 m 51 0 l 51 51 l 175 81 l 175 769 l 51 799 l 51 850 l 435 850 l 435 799 l 313 769 l 313 81 l 435 51 l 435 0 l 51 0 z "},"J":{"ha":431,"x_min":-56,"x_max":411,"o":"m 88 -207 q -56 -168 4 -207 l -50 -125 l 50 -125 q 132 -82 111 -125 q 153 46 153 -39 l 153 769 l 31 799 l 31 850 l 411 850 l 411 799 l 290 769 l 290 88 q 240 -142 290 -76 q 88 -207 190 -207 z "},"Ĵ":{"ha":431,"x_min":-56,"x_max":411,"o":"m 0 0 m 88 -207 q -56 -168 4 -207 l -50 -125 l 50 -125 q 132 -82 111 -125 q 153 46 153 -39 l 153 769 l 31 799 l 31 850 l 411 850 l 411 799 l 290 769 l 290 88 q 240 -142 290 -76 q 88 -207 190 -207 m 379 900 l 213 1011 l 51 900 l 25 928 l 168 1111 l 261 1111 l 406 928 l 379 900 z "},"K":{"ha":815,"x_min":51,"x_max":814,"o":"m 814 0 l 597 0 l 311 408 l 311 81 l 426 51 l 426 0 l 51 0 l 51 51 l 174 81 l 174 769 l 51 799 l 51 850 l 426 850 l 426 799 l 311 769 l 311 460 l 594 774 l 508 799 l 508 850 l 792 850 l 792 800 l 694 771 l 426 472 l 701 82 l 814 51 l 814 0 z "},"Ķ":{"ha":815,"x_min":51,"x_max":814,"o":"m 51 0 l 51 51 l 174 81 l 174 769 l 51 799 l 51 850 l 426 850 l 426 799 l 311 769 l 311 460 l 594 774 l 508 799 l 508 850 l 792 850 l 792 800 l 694 771 l 426 472 l 701 82 l 814 51 l 814 0 l 597 0 l 311 408 l 311 81 l 426 51 l 426 0 l 51 0 m 378 -310 l 396 -60 l 501 -37 l 525 -61 l 428 -314 l 378 -310 z "},"L":{"ha":669,"x_min":51,"x_max":656,"o":"m 656 0 l 51 0 l 51 51 l 174 81 l 174 769 l 51 799 l 51 850 l 435 850 l 435 799 l 311 769 l 311 83 l 560 83 l 596 211 l 656 211 l 656 0 z "},"Ǉ":{"ha":1100,"x_min":51,"x_max":1081,"o":"m 51 0 m 656 0 l 51 0 l 51 51 l 174 81 l 174 769 l 51 799 l 51 850 l 435 850 l 435 799 l 311 769 l 311 83 l 560 83 l 596 211 l 656 211 l 656 0 m 757 -207 q 614 -168 674 -207 l 619 -125 l 719 -125 q 801 -82 781 -125 q 822 46 822 -39 l 822 769 l 700 799 l 700 850 l 1081 850 l 1081 799 l 960 769 l 960 88 q 910 -142 960 -76 q 757 -207 860 -207 z "},"Ĺ":{"ha":669,"x_min":51,"x_max":656,"o":"m 150 896 l 124 929 l 339 1110 l 454 1068 l 454 1042 l 150 896 m 656 0 l 51 0 l 51 51 l 174 81 l 174 769 l 51 799 l 51 850 l 435 850 l 435 799 l 311 769 l 311 83 l 560 83 l 596 211 l 656 211 l 656 0 z "},"Ľ":{"ha":669,"x_min":47,"x_max":656,"o":"m 193 900 l 47 1083 l 75 1111 l 240 1000 l 403 1111 l 429 1083 l 288 900 l 193 900 m 51 0 l 51 51 l 174 81 l 174 769 l 51 799 l 51 850 l 435 850 l 435 799 l 311 769 l 311 83 l 560 83 l 596 211 l 656 211 l 656 0 l 51 0 z "},"Ļ":{"ha":669,"x_min":51,"x_max":656,"o":"m 51 0 l 51 51 l 174 81 l 174 769 l 51 799 l 51 850 l 435 850 l 435 799 l 311 769 l 311 83 l 560 83 l 596 211 l 656 211 l 656 0 l 51 0 m 310 -310 l 328 -60 l 433 -37 l 457 -61 l 361 -314 l 310 -310 z "},"Ŀ":{"ha":669,"x_min":51,"x_max":656,"o":"m 51 0 m 656 0 l 51 0 l 51 51 l 174 81 l 174 769 l 51 799 l 51 850 l 435 850 l 435 799 l 311 769 l 311 83 l 560 83 l 596 211 l 656 211 l 656 0 m 654 594 q 629 532 654 557 q 567 507 604 507 q 506 533 531 507 q 481 594 481 558 q 506 658 481 633 q 567 682 531 682 q 630 658 606 682 q 654 594 654 633 z "},"ǈ":{"ha":1097,"x_min":51,"x_max":989,"o":"m 51 0 m 656 0 l 51 0 l 51 51 l 174 81 l 174 769 l 51 799 l 51 850 l 435 850 l 435 799 l 311 769 l 311 83 l 560 83 l 596 211 l 656 211 l 656 0 m 989 889 q 962 826 989 851 q 897 800 935 800 q 833 826 860 800 q 806 889 806 851 q 833 954 806 926 q 897 982 861 982 q 962 954 935 982 q 989 889 989 926 m 922 696 l 967 696 l 967 79 q 785 -232 967 -232 q 728 -223 763 -232 q 660 -197 694 -214 l 667 -149 l 731 -149 q 804 -112 781 -149 q 828 -28 828 -75 l 828 586 l 710 600 l 710 643 l 922 696 z "},"Ł":{"ha":669,"x_min":47,"x_max":656,"o":"m 51 0 l 51 51 l 174 81 l 174 346 l 82 293 l 47 353 l 174 426 l 174 769 l 51 799 l 51 850 l 435 850 l 435 799 l 311 769 l 311 507 l 443 582 l 479 521 l 311 425 l 311 83 l 560 83 l 596 211 l 656 211 l 656 0 l 51 0 z "},"M":{"ha":1111,"x_min":29,"x_max":1085,"o":"m 347 0 l 29 0 l 29 51 l 143 81 l 167 771 l 54 799 l 54 850 l 321 850 l 556 179 l 779 850 l 1056 850 l 1056 799 l 932 769 l 960 81 l 1085 51 l 1085 0 l 706 0 l 706 51 l 828 81 l 806 675 l 572 0 l 493 -14 l 246 676 l 225 81 l 347 51 l 347 0 z "},"N":{"ha":972,"x_min":50,"x_max":942,"o":"m 624 850 l 942 850 l 942 799 l 826 771 l 826 0 l 719 -14 l 249 664 l 249 81 l 367 51 l 367 0 l 50 0 l 50 51 l 163 81 l 163 771 l 50 799 l 50 850 l 281 850 l 742 194 l 742 771 l 624 799 l 624 850 z "},"Ǌ":{"ha":1403,"x_min":50,"x_max":1383,"o":"m 50 0 m 624 850 l 942 850 l 942 799 l 826 771 l 826 0 l 719 -14 l 249 664 l 249 81 l 367 51 l 367 0 l 50 0 l 50 51 l 163 81 l 163 771 l 50 799 l 50 850 l 281 850 l 742 194 l 742 771 l 624 799 l 624 850 m 1060 -207 q 917 -168 976 -207 l 922 -125 l 1022 -125 q 1104 -82 1083 -125 q 1125 46 1125 -39 l 1125 769 l 1003 799 l 1003 850 l 1383 850 l 1383 799 l 1263 769 l 1263 88 q 1213 -142 1263 -76 q 1060 -207 1163 -207 z "},"Ń":{"ha":975,"x_min":47,"x_max":939,"o":"m 383 896 l 356 929 l 571 1110 l 686 1068 l 686 1042 l 383 896 m 622 850 l 939 850 l 939 799 l 825 771 l 825 0 l 718 -14 l 246 664 l 246 81 l 365 51 l 365 0 l 49 0 l 49 51 l 161 81 l 161 771 l 47 799 l 47 850 l 278 850 l 740 194 l 740 771 l 622 799 l 622 850 z "},"Ň":{"ha":975,"x_min":47,"x_max":939,"o":"m 451 900 l 306 1083 l 333 1111 l 499 1000 l 661 1111 l 688 1083 l 546 900 l 451 900 m 718 -14 l 246 664 l 246 81 l 365 51 l 365 0 l 49 0 l 49 51 l 161 81 l 161 771 l 47 799 l 47 850 l 278 850 l 740 194 l 740 771 l 622 799 l 622 850 l 939 850 l 939 799 l 825 771 l 825 0 l 718 -14 z "},"Ņ":{"ha":975,"x_min":47,"x_max":939,"o":"m 718 -14 l 246 664 l 246 81 l 365 51 l 365 0 l 49 0 l 49 51 l 161 81 l 161 771 l 47 799 l 47 850 l 278 850 l 740 194 l 740 771 l 622 799 l 622 850 l 939 850 l 939 799 l 825 771 l 825 0 l 718 -14 m 431 -310 l 449 -60 l 554 -37 l 578 -61 l 482 -314 l 431 -310 z "},"Ṅ":{"ha":972,"x_min":50,"x_max":942,"o":"m 50 0 m 624 850 l 942 850 l 942 799 l 826 771 l 826 0 l 719 -14 l 249 664 l 249 81 l 367 51 l 367 0 l 50 0 l 50 51 l 163 81 l 163 771 l 50 799 l 50 850 l 281 850 l 742 194 l 742 771 l 624 799 l 624 850 m 579 1003 q 552 940 579 965 q 488 914 525 914 q 421 940 449 914 q 393 1003 393 965 q 422 1068 393 1040 q 488 1096 450 1096 q 551 1069 524 1096 q 579 1003 579 1042 z "},"Ŋ":{"ha":972,"x_min":50,"x_max":942,"o":"m 644 -232 q 588 -223 622 -232 q 521 -197 554 -214 l 528 -149 l 592 -149 q 665 -112 642 -149 q 689 -28 689 -75 l 689 31 l 249 664 l 249 81 l 367 51 l 367 0 l 50 0 l 50 51 l 163 81 l 163 771 l 50 799 l 50 850 l 281 850 l 742 194 l 742 771 l 624 799 l 624 850 l 942 850 l 942 799 l 826 771 l 826 79 q 644 -232 826 -232 z "},"Ɲ":{"ha":972,"x_min":-6,"x_max":942,"o":"m 942 850 l 942 799 l 826 771 l 826 0 l 719 -14 l 249 664 l 249 10 q 211 -175 249 -118 q 114 -232 174 -232 q 58 -224 90 -232 q -6 -197 26 -215 l 1 -149 l 65 -149 q 139 -112 115 -149 q 163 -28 163 -75 l 163 771 l 50 799 l 50 850 l 281 850 l 742 194 l 742 771 l 624 799 l 624 850 l 942 850 z "},"ǋ":{"ha":1400,"x_min":50,"x_max":1292,"o":"m 50 0 m 624 850 l 942 850 l 942 799 l 826 771 l 826 0 l 719 -14 l 249 664 l 249 81 l 367 51 l 367 0 l 50 0 l 50 51 l 163 81 l 163 771 l 50 799 l 50 850 l 281 850 l 742 194 l 742 771 l 624 799 l 624 850 m 1292 889 q 1265 826 1292 851 q 1200 800 1238 800 q 1135 826 1163 800 q 1108 889 1108 851 q 1136 954 1108 926 q 1200 982 1164 982 q 1265 954 1238 982 q 1292 889 1292 926 m 1225 696 l 1269 696 l 1269 79 q 1088 -232 1269 -232 q 1031 -223 1065 -232 q 963 -197 997 -214 l 969 -149 l 1033 -149 q 1107 -112 1083 -149 q 1131 -28 1131 -75 l 1131 586 l 1013 600 l 1013 643 l 1225 696 z "},"Ñ":{"ha":975,"x_min":47,"x_max":939,"o":"m 715 1060 q 664 960 688 994 q 608 926 640 926 q 559 935 590 926 q 497 954 528 943 q 397 981 424 981 q 369 969 383 981 q 347 947 356 958 q 336 932 339 936 l 288 951 q 338 1051 313 1015 q 396 1086 364 1086 q 506 1058 425 1086 q 607 1032 579 1032 q 635 1042 622 1032 q 657 1064 649 1053 q 667 1079 665 1075 l 715 1060 m 622 850 l 939 850 l 939 799 l 825 771 l 825 0 l 718 -14 l 246 664 l 246 81 l 365 51 l 365 0 l 49 0 l 49 51 l 161 81 l 161 771 l 47 799 l 47 850 l 278 850 l 740 194 l 740 771 l 622 799 l 622 850 z "},"O":{"ha":917,"x_min":53,"x_max":864,"o":"m 460 871 q 765 749 667 871 q 864 429 864 626 q 765 110 864 233 q 460 -12 665 -12 q 153 110 254 -12 q 53 429 53 233 q 152 748 53 625 q 460 871 251 871 m 715 429 q 657 685 715 575 q 451 794 599 794 q 256 685 310 794 q 201 429 201 576 q 259 173 201 282 q 464 64 317 64 q 662 172 608 64 q 715 429 715 281 z "},"Ó":{"ha":917,"x_min":53,"x_max":864,"o":"m 53 0 m 460 871 q 765 749 667 871 q 864 429 864 626 q 765 110 864 233 q 460 -12 665 -12 q 153 110 254 -12 q 53 429 53 233 q 152 748 53 625 q 460 871 251 871 m 715 429 q 657 685 715 575 q 451 794 599 794 q 256 685 310 794 q 201 429 201 576 q 259 173 201 282 q 464 64 317 64 q 662 172 608 64 q 715 429 715 281 m 399 896 l 371 929 l 586 1110 l 701 1068 l 701 1042 l 399 896 z "},"Ŏ":{"ha":917,"x_min":53,"x_max":864,"o":"m 53 0 m 460 871 q 765 749 667 871 q 864 429 864 626 q 765 110 864 233 q 460 -12 665 -12 q 153 110 254 -12 q 53 429 53 233 q 152 748 53 625 q 460 871 251 871 m 715 429 q 657 685 715 575 q 451 794 599 794 q 256 685 310 794 q 201 429 201 576 q 259 173 201 282 q 464 64 317 64 q 662 172 608 64 q 715 429 715 281 m 458 918 q 331 964 367 918 q 294 1085 294 1010 l 351 1088 q 458 1001 351 1001 q 567 1088 567 1001 l 624 1085 q 458 918 624 918 z "},"Ǒ":{"ha":917,"x_min":53,"x_max":864,"o":"m 53 0 m 460 871 q 765 749 667 871 q 864 429 864 626 q 765 110 864 233 q 460 -12 665 -12 q 153 110 254 -12 q 53 429 53 233 q 152 748 53 625 q 460 871 251 871 m 715 429 q 657 685 715 575 q 451 794 599 794 q 256 685 310 794 q 201 429 201 576 q 259 173 201 282 q 464 64 317 64 q 662 172 608 64 q 715 429 715 281 m 413 900 l 268 1083 l 294 1111 l 460 1000 l 622 1111 l 649 1083 l 507 900 l 413 900 z "},"Ô":{"ha":917,"x_min":53,"x_max":864,"o":"m 622 900 l 456 1011 l 296 900 l 268 928 l 411 1111 l 506 1111 l 650 928 l 622 900 m 460 871 q 765 749 667 871 q 864 429 864 626 q 765 110 864 233 q 460 -12 665 -12 q 153 110 254 -12 q 53 429 53 233 q 152 748 53 625 q 460 871 251 871 m 715 429 q 657 685 715 575 q 451 794 599 794 q 256 685 310 794 q 201 429 201 576 q 259 173 201 282 q 464 64 317 64 q 662 172 608 64 q 715 429 715 281 z "},"Ố":{"ha":917,"x_min":53,"x_max":865,"o":"m 632 965 l 597 988 l 731 1236 l 854 1236 l 865 1211 l 632 965 m 590 900 l 424 1011 l 263 900 l 236 928 l 379 1111 l 472 1111 l 617 928 l 590 900 m 460 871 q 765 749 667 871 q 864 429 864 626 q 765 110 864 233 q 460 -12 665 -12 q 153 110 254 -12 q 53 429 53 233 q 152 748 53 625 q 460 871 251 871 m 715 429 q 657 685 715 575 q 451 794 599 794 q 256 685 310 794 q 201 429 201 576 q 259 173 201 282 q 464 64 317 64 q 662 172 608 64 q 715 429 715 281 z "},"Ộ":{"ha":917,"x_min":53,"x_max":864,"o":"m 53 0 m 460 871 q 765 749 667 871 q 864 429 864 626 q 765 110 864 233 q 460 -12 665 -12 q 153 110 254 -12 q 53 429 53 233 q 152 748 53 625 q 460 871 251 871 m 715 429 q 657 685 715 575 q 451 794 599 794 q 256 685 310 794 q 201 429 201 576 q 259 173 201 282 q 464 64 317 64 q 662 172 608 64 q 715 429 715 281 m 551 -151 q 524 -215 551 -189 q 460 -240 497 -240 q 393 -215 421 -240 q 365 -151 365 -189 q 394 -86 365 -114 q 460 -58 422 -58 q 524 -86 496 -58 q 551 -151 551 -114 m 622 900 l 456 1011 l 294 900 l 268 928 l 411 1111 l 504 1111 l 649 928 l 622 900 z "},"Ồ":{"ha":917,"x_min":53,"x_max":864,"o":"m 682 965 l 447 1211 l 458 1235 l 582 1235 l 715 988 l 682 965 m 590 900 l 424 1011 l 263 900 l 236 928 l 379 1111 l 472 1111 l 617 928 l 590 900 m 460 871 q 765 749 667 871 q 864 429 864 626 q 765 110 864 233 q 460 -12 665 -12 q 153 110 254 -12 q 53 429 53 233 q 152 748 53 625 q 460 871 251 871 m 715 429 q 657 685 715 575 q 451 794 599 794 q 256 685 310 794 q 201 429 201 576 q 259 173 201 282 q 464 64 317 64 q 662 172 608 64 q 715 429 715 281 z "},"Ổ":{"ha":917,"x_min":53,"x_max":864,"o":"m 53 0 m 460 871 q 765 749 667 871 q 864 429 864 626 q 765 110 864 233 q 460 -12 665 -12 q 153 110 254 -12 q 53 429 53 233 q 152 748 53 625 q 460 871 251 871 m 715 429 q 657 685 715 575 q 451 794 599 794 q 256 685 310 794 q 201 429 201 576 q 259 173 201 282 q 464 64 317 64 q 662 172 608 64 q 715 429 715 281 m 622 900 l 456 1011 l 294 900 l 268 928 l 411 1111 l 504 1111 l 649 928 l 622 900 m 747 1165 q 656 1093 747 1108 l 647 1060 l 588 1060 l 582 1117 q 664 1160 664 1117 q 651 1186 664 1176 q 614 1196 638 1196 q 583 1193 606 1196 l 572 1151 l 526 1151 l 518 1225 q 622 1235 571 1235 q 715 1217 682 1235 q 747 1165 747 1199 z "},"Ỗ":{"ha":917,"x_min":53,"x_max":864,"o":"m 53 0 m 460 871 q 765 749 667 871 q 864 429 864 626 q 765 110 864 233 q 460 -12 665 -12 q 153 110 254 -12 q 53 429 53 233 q 152 748 53 625 q 460 871 251 871 m 715 429 q 657 685 715 575 q 451 794 599 794 q 256 685 310 794 q 201 429 201 576 q 259 173 201 282 q 464 64 317 64 q 662 172 608 64 q 715 429 715 281 m 622 900 l 456 1011 l 294 900 l 268 928 l 411 1111 l 504 1111 l 649 928 l 622 900 m 675 1256 q 624 1156 647 1190 q 568 1122 600 1122 q 519 1131 550 1122 q 457 1150 488 1139 q 357 1176 383 1176 q 329 1165 343 1176 q 307 1143 315 1154 q 296 1128 299 1132 l 247 1147 q 298 1247 272 1211 q 356 1282 324 1282 q 403 1274 374 1282 q 464 1254 433 1265 q 568 1228 540 1228 q 595 1238 582 1228 q 617 1260 608 1249 q 626 1275 625 1271 l 675 1256 z "},"Ȍ":{"ha":917,"x_min":53,"x_max":864,"o":"m 53 0 m 460 871 q 765 749 667 871 q 864 429 864 626 q 765 110 864 233 q 460 -12 665 -12 q 153 110 254 -12 q 53 429 53 233 q 152 748 53 625 q 460 871 251 871 m 715 429 q 657 685 715 575 q 451 794 599 794 q 256 685 310 794 q 201 429 201 576 q 259 173 201 282 q 464 64 317 64 q 662 172 608 64 q 715 429 715 281 m 349 897 l 161 1092 l 161 1117 l 272 1117 l 383 921 l 349 897 m 572 897 l 385 1092 l 385 1117 l 496 1117 l 607 921 l 572 897 z "},"Ö":{"ha":917,"x_min":53,"x_max":864,"o":"m 403 1003 q 377 944 403 968 q 317 919 351 919 q 254 944 281 919 q 228 1003 228 968 q 254 1064 228 1039 q 317 1089 281 1089 q 377 1064 351 1089 q 403 1003 403 1039 m 689 1003 q 663 944 689 968 q 601 919 636 919 q 540 944 567 919 q 514 1003 514 968 q 540 1064 514 1039 q 601 1089 567 1089 q 663 1064 636 1089 q 689 1003 689 1039 m 460 871 q 765 749 667 871 q 864 429 864 626 q 765 110 864 233 q 460 -12 665 -12 q 153 110 254 -12 q 53 429 53 233 q 152 748 53 625 q 460 871 251 871 m 715 429 q 657 685 715 575 q 451 794 599 794 q 256 685 310 794 q 201 429 201 576 q 259 173 201 282 q 464 64 317 64 q 662 172 608 64 q 715 429 715 281 z "},"Ọ":{"ha":917,"x_min":53,"x_max":864,"o":"m 53 0 m 460 871 q 765 749 667 871 q 864 429 864 626 q 765 110 864 233 q 460 -12 665 -12 q 153 110 254 -12 q 53 429 53 233 q 152 748 53 625 q 460 871 251 871 m 715 429 q 657 685 715 575 q 451 794 599 794 q 256 685 310 794 q 201 429 201 576 q 259 173 201 282 q 464 64 317 64 q 662 172 608 64 q 715 429 715 281 m 551 -151 q 524 -215 551 -189 q 460 -240 497 -240 q 393 -215 421 -240 q 365 -151 365 -189 q 394 -86 365 -114 q 460 -58 422 -58 q 524 -86 496 -58 q 551 -151 551 -114 z "},"Ò":{"ha":917,"x_min":53,"x_max":864,"o":"m 583 896 l 276 1042 l 278 1068 l 394 1110 l 607 929 l 583 896 m 460 871 q 765 749 667 871 q 864 429 864 626 q 765 110 864 233 q 460 -12 665 -12 q 153 110 254 -12 q 53 429 53 233 q 152 748 53 625 q 460 871 251 871 m 715 429 q 657 685 715 575 q 451 794 599 794 q 256 685 310 794 q 201 429 201 576 q 259 173 201 282 q 464 64 317 64 q 662 172 608 64 q 715 429 715 281 z "},"Ỏ":{"ha":917,"x_min":53,"x_max":864,"o":"m 53 0 m 460 871 q 765 749 667 871 q 864 429 864 626 q 765 110 864 233 q 460 -12 665 -12 q 153 110 254 -12 q 53 429 53 233 q 152 748 53 625 q 460 871 251 871 m 715 429 q 657 685 715 575 q 451 794 599 794 q 256 685 310 794 q 201 429 201 576 q 259 173 201 282 q 464 64 317 64 q 662 172 608 64 q 715 429 715 281 m 599 1042 q 507 969 599 985 l 499 936 l 439 936 l 433 993 q 515 1036 515 993 q 502 1063 515 1053 q 465 1072 489 1072 q 435 1069 457 1072 l 424 1028 l 378 1028 l 369 1101 q 474 1111 422 1111 q 566 1093 533 1111 q 599 1042 599 1075 z "},"Ơ":{"ha":917,"x_min":53,"x_max":933,"o":"m 933 899 q 885 806 933 843 q 761 754 836 768 q 864 429 864 638 q 765 110 864 233 q 460 -12 665 -12 q 153 110 254 -12 q 53 429 53 233 q 152 748 53 625 q 460 871 251 871 q 696 810 600 871 l 725 810 q 790 825 768 810 q 813 883 813 840 q 806 940 813 910 l 814 958 l 915 978 q 928 938 924 960 q 933 899 933 915 m 464 64 q 662 172 608 64 q 715 429 715 281 q 657 685 715 575 q 451 794 599 794 q 256 685 310 794 q 201 429 201 576 q 259 173 201 282 q 464 64 317 64 z "},"Ớ":{"ha":917,"x_min":53,"x_max":933,"o":"m 53 0 m 933 899 q 885 806 933 843 q 761 754 836 768 q 864 429 864 638 q 765 110 864 233 q 460 -12 665 -12 q 153 110 254 -12 q 53 429 53 233 q 152 748 53 625 q 460 871 251 871 q 696 810 600 871 l 725 810 q 790 825 768 810 q 813 883 813 840 q 806 940 813 910 l 814 958 l 915 978 q 928 938 924 960 q 933 899 933 915 m 464 64 q 662 172 608 64 q 715 429 715 281 q 657 685 715 575 q 451 794 599 794 q 256 685 310 794 q 201 429 201 576 q 259 173 201 282 q 464 64 317 64 m 399 896 l 371 929 l 586 1110 l 701 1068 l 701 1042 l 399 896 z "},"Ợ":{"ha":917,"x_min":53,"x_max":933,"o":"m 53 0 m 933 899 q 885 806 933 843 q 761 754 836 768 q 864 429 864 638 q 765 110 864 233 q 460 -12 665 -12 q 153 110 254 -12 q 53 429 53 233 q 152 748 53 625 q 460 871 251 871 q 696 810 600 871 l 725 810 q 790 825 768 810 q 813 883 813 840 q 806 940 813 910 l 814 958 l 915 978 q 928 938 924 960 q 933 899 933 915 m 464 64 q 662 172 608 64 q 715 429 715 281 q 657 685 715 575 q 451 794 599 794 q 256 685 310 794 q 201 429 201 576 q 259 173 201 282 q 464 64 317 64 m 551 -151 q 524 -215 551 -189 q 460 -240 497 -240 q 393 -215 421 -240 q 365 -151 365 -189 q 394 -86 365 -114 q 460 -58 422 -58 q 524 -86 496 -58 q 551 -151 551 -114 z "},"Ờ":{"ha":917,"x_min":53,"x_max":933,"o":"m 53 0 m 933 899 q 885 806 933 843 q 761 754 836 768 q 864 429 864 638 q 765 110 864 233 q 460 -12 665 -12 q 153 110 254 -12 q 53 429 53 233 q 152 748 53 625 q 460 871 251 871 q 696 810 600 871 l 725 810 q 790 825 768 810 q 813 883 813 840 q 806 940 813 910 l 814 958 l 915 978 q 928 938 924 960 q 933 899 933 915 m 464 64 q 662 172 608 64 q 715 429 715 281 q 657 685 715 575 q 451 794 599 794 q 256 685 310 794 q 201 429 201 576 q 259 173 201 282 q 464 64 317 64 m 522 896 l 215 1042 l 218 1068 l 333 1110 l 546 929 l 522 896 z "},"Ở":{"ha":917,"x_min":53,"x_max":933,"o":"m 53 0 m 933 899 q 885 806 933 843 q 761 754 836 768 q 864 429 864 638 q 765 110 864 233 q 460 -12 665 -12 q 153 110 254 -12 q 53 429 53 233 q 152 748 53 625 q 460 871 251 871 q 696 810 600 871 l 725 810 q 790 825 768 810 q 813 883 813 840 q 806 940 813 910 l 814 958 l 915 978 q 928 938 924 960 q 933 899 933 915 m 464 64 q 662 172 608 64 q 715 429 715 281 q 657 685 715 575 q 451 794 599 794 q 256 685 310 794 q 201 429 201 576 q 259 173 201 282 q 464 64 317 64 m 599 1042 q 507 969 599 985 l 499 936 l 439 936 l 433 993 q 515 1036 515 993 q 502 1063 515 1053 q 465 1072 489 1072 q 435 1069 457 1072 l 424 1028 l 378 1028 l 369 1101 q 474 1111 422 1111 q 566 1093 533 1111 q 599 1042 599 1075 z "},"Ỡ":{"ha":917,"x_min":53,"x_max":933,"o":"m 53 0 m 933 899 q 885 806 933 843 q 761 754 836 768 q 864 429 864 638 q 765 110 864 233 q 460 -12 665 -12 q 153 110 254 -12 q 53 429 53 233 q 152 748 53 625 q 460 871 251 871 q 696 810 600 871 l 725 810 q 790 825 768 810 q 813 883 813 840 q 806 940 813 910 l 814 958 l 915 978 q 928 938 924 960 q 933 899 933 915 m 464 64 q 662 172 608 64 q 715 429 715 281 q 657 685 715 575 q 451 794 599 794 q 256 685 310 794 q 201 429 201 576 q 259 173 201 282 q 464 64 317 64 m 672 1060 q 621 960 644 994 q 565 926 597 926 q 516 935 547 926 q 454 954 485 943 q 354 981 381 981 q 326 969 340 981 q 304 947 313 958 q 293 932 296 936 l 244 951 q 295 1051 269 1015 q 353 1086 321 1086 q 401 1078 371 1086 q 461 1058 431 1069 q 565 1032 538 1032 q 592 1042 579 1032 q 614 1064 606 1053 q 624 1079 622 1075 l 672 1060 z "},"Ő":{"ha":917,"x_min":53,"x_max":864,"o":"m 306 897 l 271 921 l 382 1117 l 493 1117 l 493 1092 l 306 897 m 529 897 l 494 921 l 606 1117 l 717 1117 l 717 1092 l 529 897 m 460 -12 q 153 110 254 -12 q 53 429 53 233 q 152 748 53 625 q 460 871 251 871 q 765 749 667 871 q 864 429 864 626 q 765 110 864 233 q 460 -12 665 -12 m 464 64 q 662 172 608 64 q 715 429 715 281 q 657 685 715 575 q 451 794 599 794 q 256 685 310 794 q 201 429 201 576 q 259 173 201 282 q 464 64 317 64 z "},"Ȏ":{"ha":917,"x_min":53,"x_max":864,"o":"m 53 0 m 460 871 q 765 749 667 871 q 864 429 864 626 q 765 110 864 233 q 460 -12 665 -12 q 153 110 254 -12 q 53 429 53 233 q 152 748 53 625 q 460 871 251 871 m 715 429 q 657 685 715 575 q 451 794 599 794 q 256 685 310 794 q 201 429 201 576 q 259 173 201 282 q 464 64 317 64 q 662 172 608 64 q 715 429 715 281 m 460 1097 q 624 929 624 1097 l 565 926 q 460 1013 565 1013 q 350 926 350 1013 l 294 929 q 460 1097 294 1097 z "},"Ō":{"ha":917,"x_min":53,"x_max":864,"o":"m 301 1044 l 614 1044 l 614 960 l 301 960 l 301 1044 m 460 871 q 765 749 667 871 q 864 429 864 626 q 765 110 864 233 q 460 -12 665 -12 q 153 110 254 -12 q 53 429 53 233 q 152 748 53 625 q 460 871 251 871 m 715 429 q 657 685 715 575 q 451 794 599 794 q 256 685 310 794 q 201 429 201 576 q 259 173 201 282 q 464 64 317 64 q 662 172 608 64 q 715 429 715 281 z "},"Ǫ":{"ha":917,"x_min":53,"x_max":864,"o":"m 697 -201 q 772 -171 738 -201 l 797 -196 q 750 -244 785 -218 q 658 -271 715 -271 q 558 -236 592 -271 q 525 -153 525 -201 q 544 -76 525 -117 q 601 7 563 -35 q 460 -12 536 -12 q 153 110 254 -12 q 53 429 53 233 q 152 748 53 625 q 460 871 251 871 q 765 749 667 871 q 864 429 864 626 q 828 217 864 313 q 717 64 792 122 q 651 -22 675 31 q 626 -125 626 -75 q 644 -181 626 -161 q 697 -201 663 -201 m 201 429 q 259 173 201 282 q 464 64 317 64 q 662 172 608 64 q 715 429 715 281 q 657 685 715 575 q 451 794 599 794 q 256 685 310 794 q 201 429 201 576 z "},"Ø":{"ha":917,"x_min":53,"x_max":864,"o":"m 267 26 q 106 183 158 76 q 53 429 53 289 q 152 748 53 625 q 460 871 251 871 q 553 863 511 871 l 594 983 l 689 983 l 639 839 q 809 683 754 792 q 864 429 864 575 q 765 110 864 233 q 460 -12 665 -12 q 350 -1 403 -12 l 306 -132 l 213 -132 l 267 26 m 528 788 q 451 797 494 797 q 256 688 310 797 q 201 429 201 578 q 224 256 201 338 q 300 124 246 174 l 528 788 m 464 61 q 662 170 608 61 q 715 429 715 279 q 690 608 715 524 q 606 742 665 693 l 376 75 q 464 61 414 61 z "},"Ǿ":{"ha":917,"x_min":53,"x_max":864,"o":"m 53 0 m 267 26 q 106 183 158 76 q 53 429 53 289 q 152 748 53 625 q 460 871 251 871 q 553 863 511 871 l 594 983 l 689 983 l 639 839 q 809 683 754 792 q 864 429 864 575 q 765 110 864 233 q 460 -12 665 -12 q 350 -1 403 -12 l 306 -132 l 213 -132 l 267 26 m 528 788 q 451 797 494 797 q 256 688 310 797 q 201 429 201 578 q 224 256 201 338 q 300 124 246 174 l 528 788 m 464 61 q 662 170 608 61 q 715 429 715 279 q 690 608 715 524 q 606 742 665 693 l 376 75 q 464 61 414 61 m 321 896 l 293 929 l 508 1110 l 624 1068 l 624 1042 l 321 896 z "},"Õ":{"ha":917,"x_min":53,"x_max":864,"o":"m 672 1060 q 621 961 646 996 q 565 926 596 926 q 454 954 535 926 q 353 981 378 981 q 326 969 339 981 q 304 947 313 958 q 293 932 296 936 l 244 951 q 353 1086 294 1086 q 461 1058 381 1086 q 564 1032 535 1032 q 592 1042 579 1032 q 614 1064 606 1053 q 624 1079 622 1075 l 672 1060 m 460 871 q 765 749 667 871 q 864 429 864 626 q 765 110 864 233 q 460 -12 665 -12 q 153 110 254 -12 q 53 429 53 233 q 152 748 53 625 q 460 871 251 871 m 715 429 q 657 685 715 575 q 451 794 599 794 q 256 685 310 794 q 201 429 201 576 q 259 173 201 282 q 464 64 317 64 q 662 172 608 64 q 715 429 715 281 z "},"Œ":{"ha":1135,"x_min":53,"x_max":1090,"o":"m 1057 661 l 996 661 l 965 771 l 713 771 l 713 451 l 892 451 l 919 543 l 976 543 l 976 288 l 919 288 l 889 383 l 713 383 l 713 83 l 992 83 l 1029 211 l 1090 211 l 1090 0 l 456 0 q 152 118 251 0 q 53 429 53 236 q 151 736 53 622 q 456 850 249 850 l 1057 850 l 1057 661 m 576 769 q 511 781 536 778 q 447 783 486 783 q 253 679 307 783 q 199 429 199 575 q 257 174 199 282 q 460 67 315 67 q 576 81 526 67 l 576 769 z "},"P":{"ha":736,"x_min":53,"x_max":707,"o":"m 394 850 q 620 788 533 850 q 707 611 707 726 q 667 463 707 524 q 560 373 626 403 q 415 343 494 343 q 314 354 363 343 l 314 81 l 460 53 l 460 0 l 53 0 l 53 51 l 176 81 l 176 767 l 53 797 l 53 850 l 394 850 m 314 413 q 383 403 338 403 q 512 452 464 403 q 560 600 560 501 q 516 736 560 690 q 399 782 472 782 q 314 771 354 782 l 314 413 z "},"Þ":{"ha":713,"x_min":51,"x_max":682,"o":"m 51 51 l 175 81 l 175 769 l 51 799 l 51 850 l 435 850 l 435 799 l 313 769 l 313 674 l 374 674 q 599 614 515 674 q 682 440 682 554 q 643 297 682 356 q 540 208 604 238 q 399 179 475 179 q 313 188 350 179 l 313 81 l 435 51 l 435 0 l 51 0 l 51 51 m 367 239 q 494 286 446 239 q 542 429 542 333 q 496 562 542 517 q 372 607 450 607 q 313 600 361 607 l 313 244 q 367 239 335 239 z "},"Q":{"ha":915,"x_min":53,"x_max":946,"o":"m 946 -174 q 874 -200 917 -187 q 796 -212 831 -212 q 716 -200 754 -212 q 608 -146 678 -187 l 368 0 q 135 149 217 32 q 53 429 53 267 q 152 748 53 625 q 460 871 251 871 q 765 749 667 871 q 864 429 864 626 q 778 136 864 253 q 526 -3 693 19 q 733 -97 656 -64 q 835 -131 810 -131 l 942 -131 l 946 -174 m 200 429 q 260 176 200 286 q 464 67 319 67 q 660 176 604 67 q 717 429 717 285 q 658 685 717 575 q 451 794 599 794 q 255 685 310 794 q 200 429 200 576 z "},"R":{"ha":792,"x_min":53,"x_max":822,"o":"m 550 118 q 463 310 486 263 q 420 370 439 357 q 364 383 401 383 l 317 383 l 317 81 l 438 51 l 438 0 l 54 0 l 54 51 l 179 81 l 179 769 l 53 799 l 53 850 l 408 850 q 635 790 561 850 q 710 638 710 731 q 661 496 710 558 q 508 407 613 433 q 563 381 543 396 q 597 338 582 365 q 643 242 613 310 q 719 81 701 117 l 822 51 l 822 0 l 603 0 l 550 118 m 393 444 q 519 494 475 444 q 564 625 564 543 q 521 742 564 700 q 397 783 478 783 q 317 771 361 783 l 317 444 l 393 444 z "},"Ŕ":{"ha":792,"x_min":53,"x_max":822,"o":"m 276 896 l 250 929 l 465 1110 l 581 1068 l 581 1042 l 276 896 m 550 118 q 463 310 486 263 q 420 370 439 357 q 364 383 401 383 l 317 383 l 317 81 l 438 51 l 438 0 l 54 0 l 54 51 l 179 81 l 179 769 l 53 799 l 53 850 l 408 850 q 635 790 561 850 q 710 638 710 731 q 661 496 710 558 q 508 407 613 433 q 563 381 543 396 q 597 338 582 365 q 643 242 613 310 q 719 81 701 117 l 822 51 l 822 0 l 603 0 l 550 118 m 393 444 q 519 494 475 444 q 564 625 564 543 q 521 742 564 700 q 397 783 478 783 q 317 771 361 783 l 317 444 l 393 444 z "},"Ř":{"ha":792,"x_min":53,"x_max":822,"o":"m 351 900 l 206 1083 l 233 1111 l 399 1000 l 561 1111 l 588 1083 l 444 900 l 351 900 m 54 51 l 179 81 l 179 769 l 53 799 l 53 850 l 408 850 q 635 790 561 850 q 710 638 710 731 q 661 496 710 558 q 508 407 613 433 q 563 381 543 396 q 597 338 582 365 q 643 242 613 310 q 719 81 701 117 l 822 51 l 822 0 l 603 0 l 550 118 q 463 310 486 263 q 420 370 439 357 q 364 383 401 383 l 317 383 l 317 81 l 438 51 l 438 0 l 54 0 l 54 51 m 393 444 q 519 494 475 444 q 564 625 564 543 q 521 742 564 700 q 397 783 478 783 q 317 771 361 783 l 317 444 l 393 444 z "},"Ŗ":{"ha":792,"x_min":53,"x_max":822,"o":"m 54 51 l 179 81 l 179 769 l 53 799 l 53 850 l 408 850 q 635 790 561 850 q 710 638 710 731 q 661 496 710 558 q 508 407 613 433 q 563 381 543 396 q 597 338 582 365 q 643 242 613 310 q 719 81 701 117 l 822 51 l 822 0 l 603 0 l 550 118 q 463 310 486 263 q 420 370 439 357 q 364 383 401 383 l 317 383 l 317 81 l 438 51 l 438 0 l 54 0 l 54 51 m 393 444 q 519 494 475 444 q 564 625 564 543 q 521 742 564 700 q 397 783 478 783 q 317 771 361 783 l 317 444 l 393 444 m 383 -310 l 400 -60 l 506 -37 l 529 -61 l 433 -314 l 383 -310 z "},"Ȑ":{"ha":792,"x_min":53,"x_max":822,"o":"m 53 0 m 550 118 q 463 310 486 263 q 420 370 439 357 q 364 383 401 383 l 317 383 l 317 81 l 438 51 l 438 0 l 54 0 l 54 51 l 179 81 l 179 769 l 53 799 l 53 850 l 408 850 q 635 790 561 850 q 710 638 710 731 q 661 496 710 558 q 508 407 613 433 q 563 381 543 396 q 597 338 582 365 q 643 242 613 310 q 719 81 701 117 l 822 51 l 822 0 l 603 0 l 550 118 m 393 444 q 519 494 475 444 q 564 625 564 543 q 521 742 564 700 q 397 783 478 783 q 317 771 361 783 l 317 444 l 393 444 m 286 897 l 99 1092 l 99 1117 l 210 1117 l 321 921 l 286 897 m 510 897 l 322 1092 l 322 1117 l 433 1117 l 544 921 l 510 897 z "},"Ṛ":{"ha":792,"x_min":53,"x_max":822,"o":"m 53 0 m 550 118 q 463 310 486 263 q 420 370 439 357 q 364 383 401 383 l 317 383 l 317 81 l 438 51 l 438 0 l 54 0 l 54 51 l 179 81 l 179 769 l 53 799 l 53 850 l 408 850 q 635 790 561 850 q 710 638 710 731 q 661 496 710 558 q 508 407 613 433 q 563 381 543 396 q 597 338 582 365 q 643 242 613 310 q 719 81 701 117 l 822 51 l 822 0 l 603 0 l 550 118 m 393 444 q 519 494 475 444 q 564 625 564 543 q 521 742 564 700 q 397 783 478 783 q 317 771 361 783 l 317 444 l 393 444 m 489 -151 q 462 -215 489 -189 q 397 -240 435 -240 q 331 -215 358 -240 q 303 -151 303 -189 q 331 -86 303 -114 q 397 -58 360 -58 q 461 -86 433 -58 q 489 -151 489 -114 z "},"Ȓ":{"ha":792,"x_min":53,"x_max":822,"o":"m 53 0 m 550 118 q 463 310 486 263 q 420 370 439 357 q 364 383 401 383 l 317 383 l 317 81 l 438 51 l 438 0 l 54 0 l 54 51 l 179 81 l 179 769 l 53 799 l 53 850 l 408 850 q 635 790 561 850 q 710 638 710 731 q 661 496 710 558 q 508 407 613 433 q 563 381 543 396 q 597 338 582 365 q 643 242 613 310 q 719 81 701 117 l 822 51 l 822 0 l 603 0 l 550 118 m 393 444 q 519 494 475 444 q 564 625 564 543 q 521 742 564 700 q 397 783 478 783 q 317 771 361 783 l 317 444 l 393 444 m 397 1097 q 561 929 561 1097 l 503 926 q 397 1013 503 1013 q 288 926 288 1013 l 232 929 q 397 1097 232 1097 z "},"S":{"ha":647,"x_min":46,"x_max":603,"o":"m 61 629 q 135 807 61 743 q 343 871 208 871 q 574 833 463 871 l 560 647 l 501 647 l 471 779 q 416 789 451 785 q 354 793 381 793 q 231 760 276 793 q 185 660 185 726 q 216 572 185 606 q 311 513 247 538 l 453 454 q 567 371 531 424 q 603 233 603 318 q 523 51 603 117 q 290 -14 443 -14 q 165 -3 232 -14 q 46 29 99 8 l 65 203 l 125 203 l 150 83 q 294 64 221 64 q 424 99 376 64 q 472 196 472 135 q 444 286 472 250 q 351 349 417 322 l 206 407 q 101 486 140 432 q 61 629 61 540 z "},"Ś":{"ha":647,"x_min":50,"x_max":607,"o":"m 217 896 l 190 929 l 406 1110 l 521 1068 l 521 1042 l 217 896 m 65 629 q 139 807 65 743 q 347 871 213 871 q 578 833 467 871 l 564 647 l 506 647 l 475 779 q 421 789 457 785 q 358 793 385 793 q 235 760 281 793 q 189 660 189 726 q 219 572 189 606 q 314 513 250 538 l 457 454 q 571 371 535 424 q 607 233 607 318 q 527 52 607 118 q 294 -14 447 -14 q 168 -3 235 -14 q 50 29 101 8 l 69 203 l 129 203 l 154 83 q 299 64 225 64 q 428 99 381 64 q 476 196 476 135 q 449 286 476 250 q 356 349 421 322 l 208 407 q 104 486 143 432 q 65 629 65 540 z "},"Ꞌ":{"ha":167,"x_min":21,"x_max":178,"o":"m 74 382 l 21 392 l 40 850 l 151 850 l 178 822 l 74 382 z "},"Š":{"ha":647,"x_min":46,"x_max":603,"o":"m 286 900 l 142 1083 l 169 1111 l 335 1000 l 496 1111 l 524 1083 l 381 900 l 286 900 m 290 -14 q 165 -3 232 -14 q 46 29 99 8 l 65 203 l 125 203 l 150 83 q 294 64 221 64 q 424 99 376 64 q 472 196 472 135 q 444 286 472 250 q 351 349 417 322 l 206 407 q 101 486 140 432 q 61 629 61 540 q 135 807 61 743 q 343 871 208 871 q 574 833 463 871 l 560 647 l 501 647 l 471 779 q 416 789 451 785 q 354 793 381 793 q 231 760 276 793 q 185 660 185 726 q 216 572 185 606 q 311 513 247 538 l 453 454 q 567 371 531 424 q 603 233 603 318 q 523 51 603 117 q 290 -14 443 -14 z "},"Ş":{"ha":647,"x_min":50,"x_max":607,"o":"m 265 -304 q 192 -292 222 -304 l 203 -251 q 249 -260 228 -260 q 322 -235 294 -260 q 350 -175 350 -210 q 326 -130 350 -147 q 251 -112 303 -112 l 246 -96 l 274 -14 q 158 -1 218 -12 q 50 29 97 10 l 69 203 l 129 203 l 154 83 q 299 64 225 64 q 428 99 381 64 q 476 196 476 135 q 449 286 476 250 q 356 349 421 322 l 208 407 q 104 486 143 432 q 65 629 65 540 q 139 807 65 743 q 347 871 213 871 q 578 833 467 871 l 564 647 l 506 647 l 475 779 q 421 789 457 785 q 358 793 385 793 q 235 760 281 793 q 189 660 189 726 q 219 572 189 606 q 314 513 250 538 l 457 454 q 571 371 535 424 q 607 233 607 318 q 535 58 607 124 q 324 -14 463 -7 l 308 -64 q 416 -92 379 -64 q 453 -162 453 -121 q 427 -233 453 -200 q 358 -285 401 -265 q 265 -304 314 -304 z "},"Ŝ":{"ha":647,"x_min":46,"x_max":603,"o":"m 46 0 m 61 629 q 135 807 61 743 q 343 871 208 871 q 574 833 463 871 l 560 647 l 501 647 l 471 779 q 416 789 451 785 q 354 793 381 793 q 231 760 276 793 q 185 660 185 726 q 216 572 185 606 q 311 513 247 538 l 453 454 q 567 371 531 424 q 603 233 603 318 q 523 51 603 117 q 290 -14 443 -14 q 165 -3 232 -14 q 46 29 99 8 l 65 203 l 125 203 l 150 83 q 294 64 221 64 q 424 99 376 64 q 472 196 472 135 q 444 286 472 250 q 351 349 417 322 l 206 407 q 101 486 140 432 q 61 629 61 540 m 488 900 l 321 1011 l 160 900 l 133 928 l 276 1111 l 369 1111 l 514 928 l 488 900 z "},"Ș":{"ha":647,"x_min":50,"x_max":607,"o":"m 294 -14 q 168 -3 235 -14 q 50 29 101 8 l 69 203 l 129 203 l 154 83 q 299 64 225 64 q 428 99 381 64 q 476 196 476 135 q 449 286 476 250 q 356 349 421 322 l 208 407 q 104 486 143 432 q 65 629 65 540 q 139 807 65 743 q 347 871 213 871 q 578 833 467 871 l 564 647 l 506 647 l 475 779 q 421 789 457 785 q 358 793 385 793 q 235 760 281 793 q 189 660 189 726 q 219 572 189 606 q 314 513 250 538 l 457 454 q 571 371 535 424 q 607 233 607 318 q 527 52 607 118 q 294 -14 447 -14 m 251 -310 l 269 -60 l 375 -37 l 399 -61 l 301 -314 l 251 -310 z "},"Ṣ":{"ha":647,"x_min":46,"x_max":603,"o":"m 46 0 m 61 629 q 135 807 61 743 q 343 871 208 871 q 574 833 463 871 l 560 647 l 501 647 l 471 779 q 416 789 451 785 q 354 793 381 793 q 231 760 276 793 q 185 660 185 726 q 216 572 185 606 q 311 513 247 538 l 453 454 q 567 371 531 424 q 603 233 603 318 q 523 51 603 117 q 290 -14 443 -14 q 165 -3 232 -14 q 46 29 99 8 l 65 203 l 125 203 l 150 83 q 294 64 221 64 q 424 99 376 64 q 472 196 472 135 q 444 286 472 250 q 351 349 417 322 l 206 407 q 101 486 140 432 q 61 629 61 540 m 417 -151 q 390 -215 417 -189 q 325 -240 363 -240 q 258 -215 286 -240 q 231 -151 231 -189 q 259 -86 231 -114 q 325 -58 288 -58 q 389 -86 361 -58 q 417 -151 417 -114 z "},"ẞ":{"ha":836,"x_min":11,"x_max":806,"o":"m 11 51 l 133 81 l 133 533 q 219 783 133 696 q 471 871 306 871 q 627 848 553 871 q 742 786 701 825 l 749 742 l 569 449 q 748 376 690 436 q 806 222 806 317 q 739 51 806 117 q 553 -14 672 -14 q 460 -3 506 -14 q 381 29 415 8 l 400 203 l 460 203 l 486 81 q 553 64 511 64 q 642 100 608 64 q 675 201 675 136 q 619 326 675 278 q 432 374 564 374 l 407 419 l 617 756 q 557 782 594 772 q 475 792 519 792 q 319 735 368 792 q 271 567 271 679 l 271 81 l 340 54 l 340 0 l 11 0 l 11 51 z "},"Ə":{"ha":900,"x_min":53,"x_max":849,"o":"m 442 -12 q 151 97 250 -12 q 53 428 53 207 l 53 460 l 699 460 q 628 701 693 607 q 425 794 564 794 q 226 747 325 794 l 192 625 l 133 625 l 122 796 q 433 872 271 872 q 749 750 650 872 q 849 429 849 628 q 749 107 849 226 q 442 -12 649 -12 m 446 64 q 637 155 583 64 q 699 388 690 246 l 203 388 q 270 142 211 219 q 446 64 329 64 z "},"T":{"ha":724,"x_min":13,"x_max":713,"o":"m 13 850 l 713 850 l 704 647 l 642 647 l 615 771 l 432 771 l 432 81 l 569 51 l 569 0 l 156 0 l 156 51 l 294 81 l 294 771 l 108 771 l 82 647 l 24 647 l 13 850 z "},"Ŧ":{"ha":724,"x_min":13,"x_max":713,"o":"m 615 771 l 432 771 l 432 465 l 674 465 l 674 399 l 432 399 l 432 81 l 569 51 l 569 0 l 156 0 l 156 51 l 294 81 l 294 399 l 57 399 l 57 465 l 294 465 l 294 771 l 108 771 l 82 647 l 24 647 l 13 850 l 713 850 l 704 647 l 642 647 l 615 771 z "},"Ť":{"ha":724,"x_min":13,"x_max":713,"o":"m 314 900 l 169 1083 l 197 1111 l 363 1000 l 524 1111 l 551 1083 l 408 900 l 314 900 m 156 0 l 156 51 l 294 81 l 294 771 l 108 771 l 82 647 l 24 647 l 13 850 l 713 850 l 704 647 l 642 647 l 615 771 l 432 771 l 432 81 l 569 51 l 569 0 l 156 0 z "},"Ţ":{"ha":724,"x_min":13,"x_max":713,"o":"m 319 -304 q 246 -292 276 -304 l 257 -251 q 303 -260 282 -260 q 376 -235 349 -260 q 404 -175 404 -210 q 381 -130 404 -147 q 306 -112 357 -112 l 300 -96 l 333 0 l 156 0 l 156 51 l 294 81 l 294 771 l 108 771 l 82 647 l 24 647 l 13 850 l 713 850 l 704 647 l 642 647 l 615 771 l 432 771 l 432 81 l 569 51 l 569 0 l 382 0 l 363 -64 q 470 -92 433 -64 q 507 -162 507 -121 q 481 -233 507 -200 q 412 -285 456 -265 q 319 -304 368 -304 z "},"Ț":{"ha":724,"x_min":13,"x_max":713,"o":"m 156 0 l 156 51 l 294 81 l 294 771 l 108 771 l 82 647 l 24 647 l 13 850 l 713 850 l 704 647 l 642 647 l 615 771 l 432 771 l 432 81 l 569 51 l 569 0 l 156 0 m 290 -310 l 306 -60 l 413 -37 l 435 -61 l 340 -314 l 290 -310 z "},"Ṭ":{"ha":724,"x_min":13,"x_max":713,"o":"m 13 0 m 13 850 l 713 850 l 704 647 l 642 647 l 615 771 l 432 771 l 432 81 l 569 51 l 569 0 l 156 0 l 156 51 l 294 81 l 294 771 l 108 771 l 82 647 l 24 647 l 13 850 m 456 -151 q 428 -215 456 -189 q 364 -240 401 -240 q 297 -215 325 -240 q 269 -151 269 -189 q 298 -86 269 -114 q 364 -58 326 -58 q 428 -86 400 -58 q 456 -151 456 -114 z "},"U":{"ha":908,"x_min":11,"x_max":892,"o":"m 779 328 q 711 92 779 199 q 460 -14 643 -14 q 256 36 328 -14 q 160 169 185 86 q 135 367 135 251 l 135 769 l 11 799 l 11 850 l 396 850 l 396 799 l 272 769 l 272 367 q 313 145 272 224 q 472 67 354 67 q 640 138 588 67 q 692 332 692 208 l 692 771 l 574 799 l 574 850 l 892 850 l 892 799 l 779 771 l 779 328 z "},"Ú":{"ha":908,"x_min":11,"x_max":892,"o":"m 349 896 l 321 929 l 536 1110 l 651 1068 l 651 1042 l 349 896 m 779 328 q 711 92 779 199 q 460 -14 643 -14 q 256 36 328 -14 q 160 169 185 86 q 135 367 135 251 l 135 769 l 11 799 l 11 850 l 396 850 l 396 799 l 272 769 l 272 367 q 313 145 272 224 q 472 67 354 67 q 640 138 588 67 q 692 332 692 208 l 692 771 l 574 799 l 574 850 l 892 850 l 892 799 l 779 771 l 779 328 z "},"Ŭ":{"ha":908,"x_min":11,"x_max":892,"o":"m 11 0 m 779 328 q 711 92 779 199 q 460 -14 643 -14 q 256 36 328 -14 q 160 169 185 86 q 135 367 135 251 l 135 769 l 11 799 l 11 850 l 396 850 l 396 799 l 272 769 l 272 367 q 313 145 272 224 q 472 67 354 67 q 640 138 588 67 q 692 332 692 208 l 692 771 l 574 799 l 574 850 l 892 850 l 892 799 l 779 771 l 779 328 m 456 918 q 328 964 364 918 q 292 1085 292 1010 l 349 1088 q 456 1001 349 1001 q 564 1088 564 1001 l 621 1085 q 456 918 621 918 z "},"Ǔ":{"ha":908,"x_min":11,"x_max":892,"o":"m 11 0 m 779 328 q 711 92 779 199 q 460 -14 643 -14 q 256 36 328 -14 q 160 169 185 86 q 135 367 135 251 l 135 769 l 11 799 l 11 850 l 396 850 l 396 799 l 272 769 l 272 367 q 313 145 272 224 q 472 67 354 67 q 640 138 588 67 q 692 332 692 208 l 692 771 l 574 799 l 574 850 l 892 850 l 892 799 l 779 771 l 779 328 m 410 900 l 265 1083 l 292 1111 l 457 1000 l 619 1111 l 646 1083 l 504 900 l 410 900 z "},"Û":{"ha":908,"x_min":11,"x_max":892,"o":"m 643 900 l 476 1011 l 315 900 l 289 928 l 432 1111 l 525 1111 l 671 928 l 643 900 m 779 328 q 711 92 779 199 q 460 -14 643 -14 q 256 36 328 -14 q 160 169 185 86 q 135 367 135 251 l 135 769 l 11 799 l 11 850 l 396 850 l 396 799 l 272 769 l 272 367 q 313 145 272 224 q 472 67 354 67 q 640 138 588 67 q 692 332 692 208 l 692 771 l 574 799 l 574 850 l 892 850 l 892 799 l 779 771 l 779 328 z "},"Ȕ":{"ha":908,"x_min":11,"x_max":892,"o":"m 11 0 m 779 328 q 711 92 779 199 q 460 -14 643 -14 q 256 36 328 -14 q 160 169 185 86 q 135 367 135 251 l 135 769 l 11 799 l 11 850 l 396 850 l 396 799 l 272 769 l 272 367 q 313 145 272 224 q 472 67 354 67 q 640 138 588 67 q 692 332 692 208 l 692 771 l 574 799 l 574 850 l 892 850 l 892 799 l 779 771 l 779 328 m 346 897 l 158 1092 l 158 1117 l 269 1117 l 381 921 l 346 897 m 569 897 l 382 1092 l 382 1117 l 493 1117 l 604 921 l 569 897 z "},"Ü":{"ha":908,"x_min":11,"x_max":892,"o":"m 425 1001 q 399 942 425 967 q 338 918 374 918 q 276 942 303 918 q 250 1001 250 967 q 276 1063 250 1038 q 338 1089 303 1089 q 399 1063 374 1089 q 425 1001 425 1038 m 711 1001 q 685 942 711 967 q 624 918 658 918 q 562 942 588 918 q 536 1001 536 967 q 562 1063 536 1038 q 624 1089 588 1089 q 685 1063 658 1089 q 711 1001 711 1038 m 779 328 q 711 92 779 199 q 460 -14 643 -14 q 256 36 328 -14 q 160 169 185 86 q 135 367 135 251 l 135 769 l 11 799 l 11 850 l 396 850 l 396 799 l 272 769 l 272 367 q 313 145 272 224 q 472 67 354 67 q 640 138 588 67 q 692 332 692 208 l 692 771 l 574 799 l 574 850 l 892 850 l 892 799 l 779 771 l 779 328 z "},"Ǘ":{"ha":908,"x_min":11,"x_max":892,"o":"m 11 0 m 779 328 q 711 92 779 199 q 460 -14 643 -14 q 256 36 328 -14 q 160 169 185 86 q 135 367 135 251 l 135 769 l 11 799 l 11 850 l 396 850 l 396 799 l 272 769 l 272 367 q 313 145 272 224 q 472 67 354 67 q 640 138 588 67 q 692 332 692 208 l 692 771 l 574 799 l 574 850 l 892 850 l 892 799 l 779 771 l 779 328 m 399 1001 q 373 942 399 967 q 313 918 347 918 q 251 942 278 918 q 225 1001 225 967 q 251 1063 225 1038 q 313 1089 278 1089 q 373 1063 347 1089 q 399 1001 399 1038 m 685 1001 q 659 942 685 967 q 599 918 633 918 q 537 942 563 918 q 511 1001 511 967 q 537 1063 511 1038 q 599 1089 563 1089 q 658 1063 632 1089 q 685 1001 685 1038 m 399 1135 l 371 1168 l 586 1349 l 701 1307 l 701 1281 l 399 1135 z "},"Ǚ":{"ha":908,"x_min":11,"x_max":892,"o":"m 11 0 m 779 328 q 711 92 779 199 q 460 -14 643 -14 q 256 36 328 -14 q 160 169 185 86 q 135 367 135 251 l 135 769 l 11 799 l 11 850 l 396 850 l 396 799 l 272 769 l 272 367 q 313 145 272 224 q 472 67 354 67 q 640 138 588 67 q 692 332 692 208 l 692 771 l 574 799 l 574 850 l 892 850 l 892 799 l 779 771 l 779 328 m 399 1001 q 373 942 399 967 q 313 918 347 918 q 251 942 278 918 q 225 1001 225 967 q 251 1063 225 1038 q 313 1089 278 1089 q 373 1063 347 1089 q 399 1001 399 1038 m 685 1001 q 659 942 685 967 q 599 918 633 918 q 537 942 563 918 q 511 1001 511 967 q 537 1063 511 1038 q 599 1089 563 1089 q 658 1063 632 1089 q 685 1001 685 1038 m 413 1139 l 268 1322 l 294 1350 l 460 1239 l 622 1350 l 649 1322 l 507 1139 l 413 1139 z "},"Ǜ":{"ha":908,"x_min":11,"x_max":892,"o":"m 11 0 m 779 328 q 711 92 779 199 q 460 -14 643 -14 q 256 36 328 -14 q 160 169 185 86 q 135 367 135 251 l 135 769 l 11 799 l 11 850 l 396 850 l 396 799 l 272 769 l 272 367 q 313 145 272 224 q 472 67 354 67 q 640 138 588 67 q 692 332 692 208 l 692 771 l 574 799 l 574 850 l 892 850 l 892 799 l 779 771 l 779 328 m 399 1001 q 373 942 399 967 q 313 918 347 918 q 251 942 278 918 q 225 1001 225 967 q 251 1063 225 1038 q 313 1089 278 1089 q 373 1063 347 1089 q 399 1001 399 1038 m 685 1001 q 659 942 685 967 q 599 918 633 918 q 537 942 563 918 q 511 1001 511 967 q 537 1063 511 1038 q 599 1089 563 1089 q 658 1063 632 1089 q 685 1001 685 1038 m 522 1135 l 215 1281 l 218 1307 l 333 1349 l 546 1168 l 522 1135 z "},"Ǖ":{"ha":908,"x_min":11,"x_max":892,"o":"m 11 0 m 779 328 q 711 92 779 199 q 460 -14 643 -14 q 256 36 328 -14 q 160 169 185 86 q 135 367 135 251 l 135 769 l 11 799 l 11 850 l 396 850 l 396 799 l 272 769 l 272 367 q 313 145 272 224 q 472 67 354 67 q 640 138 588 67 q 692 332 692 208 l 692 771 l 574 799 l 574 850 l 892 850 l 892 799 l 779 771 l 779 328 m 399 1001 q 373 942 399 967 q 313 918 347 918 q 251 942 278 918 q 225 1001 225 967 q 251 1063 225 1038 q 313 1089 278 1089 q 373 1063 347 1089 q 399 1001 399 1038 m 685 1001 q 659 942 685 967 q 599 918 633 918 q 537 942 563 918 q 511 1001 511 967 q 537 1063 511 1038 q 599 1089 563 1089 q 658 1063 632 1089 q 685 1001 685 1038 m 301 1283 l 614 1283 l 614 1199 l 301 1199 l 301 1283 z "},"Ụ":{"ha":908,"x_min":11,"x_max":892,"o":"m 11 0 m 779 328 q 711 92 779 199 q 460 -14 643 -14 q 256 36 328 -14 q 160 169 185 86 q 135 367 135 251 l 135 769 l 11 799 l 11 850 l 396 850 l 396 799 l 272 769 l 272 367 q 313 145 272 224 q 472 67 354 67 q 640 138 588 67 q 692 332 692 208 l 692 771 l 574 799 l 574 850 l 892 850 l 892 799 l 779 771 l 779 328 m 549 -151 q 522 -215 549 -189 q 457 -240 494 -240 q 390 -215 418 -240 q 363 -151 363 -189 q 391 -86 363 -114 q 457 -58 419 -58 q 521 -86 493 -58 q 549 -151 549 -114 z "},"Ù":{"ha":908,"x_min":11,"x_max":892,"o":"m 558 896 l 253 1042 l 254 1068 l 369 1110 l 582 929 l 558 896 m 779 328 q 711 92 779 199 q 460 -14 643 -14 q 256 36 328 -14 q 160 169 185 86 q 135 367 135 251 l 135 769 l 11 799 l 11 850 l 396 850 l 396 799 l 272 769 l 272 367 q 313 145 272 224 q 472 67 354 67 q 640 138 588 67 q 692 332 692 208 l 692 771 l 574 799 l 574 850 l 892 850 l 892 799 l 779 771 l 779 328 z "},"Ủ":{"ha":908,"x_min":11,"x_max":892,"o":"m 11 0 m 779 328 q 711 92 779 199 q 460 -14 643 -14 q 256 36 328 -14 q 160 169 185 86 q 135 367 135 251 l 135 769 l 11 799 l 11 850 l 396 850 l 396 799 l 272 769 l 272 367 q 313 145 272 224 q 472 67 354 67 q 640 138 588 67 q 692 332 692 208 l 692 771 l 574 799 l 574 850 l 892 850 l 892 799 l 779 771 l 779 328 m 596 1042 q 504 969 596 985 l 496 936 l 436 936 l 431 993 q 513 1036 513 993 q 499 1063 513 1053 q 463 1072 486 1072 q 432 1069 454 1072 l 421 1028 l 375 1028 l 367 1101 q 471 1111 419 1111 q 563 1093 531 1111 q 596 1042 596 1075 z "},"Ư":{"ha":908,"x_min":11,"x_max":963,"o":"m 963 939 q 935 866 963 897 q 861 815 908 835 l 779 771 l 779 328 q 711 92 779 199 q 460 -14 643 -14 q 256 36 328 -14 q 160 169 185 86 q 135 367 135 251 l 135 769 l 11 799 l 11 850 l 396 850 l 396 799 l 272 769 l 272 367 q 313 145 272 224 q 472 67 354 67 q 640 138 588 67 q 692 332 692 208 l 692 771 l 574 799 l 574 850 l 754 850 q 819 865 797 850 q 842 924 842 881 q 835 981 842 950 l 843 999 l 944 1018 q 958 978 953 1000 q 963 939 963 956 z "},"Ứ":{"ha":908,"x_min":11,"x_max":963,"o":"m 11 0 m 963 939 q 935 866 963 897 q 861 815 908 835 l 779 771 l 779 328 q 711 92 779 199 q 460 -14 643 -14 q 256 36 328 -14 q 160 169 185 86 q 135 367 135 251 l 135 769 l 11 799 l 11 850 l 396 850 l 396 799 l 272 769 l 272 367 q 313 145 272 224 q 472 67 354 67 q 640 138 588 67 q 692 332 692 208 l 692 771 l 574 799 l 574 850 l 754 850 q 819 865 797 850 q 842 924 842 881 q 835 981 842 950 l 843 999 l 944 1018 q 958 978 953 1000 q 963 939 963 956 m 396 896 l 368 929 l 583 1110 l 699 1068 l 699 1042 l 396 896 z "},"Ự":{"ha":908,"x_min":11,"x_max":963,"o":"m 11 0 m 963 939 q 935 866 963 897 q 861 815 908 835 l 779 771 l 779 328 q 711 92 779 199 q 460 -14 643 -14 q 256 36 328 -14 q 160 169 185 86 q 135 367 135 251 l 135 769 l 11 799 l 11 850 l 396 850 l 396 799 l 272 769 l 272 367 q 313 145 272 224 q 472 67 354 67 q 640 138 588 67 q 692 332 692 208 l 692 771 l 574 799 l 574 850 l 754 850 q 819 865 797 850 q 842 924 842 881 q 835 981 842 950 l 843 999 l 944 1018 q 958 978 953 1000 q 963 939 963 956 m 549 -151 q 522 -215 549 -189 q 457 -240 494 -240 q 390 -215 418 -240 q 363 -151 363 -189 q 391 -86 363 -114 q 457 -58 419 -58 q 521 -86 493 -58 q 549 -151 549 -114 z "},"Ừ":{"ha":908,"x_min":11,"x_max":963,"o":"m 11 0 m 963 939 q 935 866 963 897 q 861 815 908 835 l 779 771 l 779 328 q 711 92 779 199 q 460 -14 643 -14 q 256 36 328 -14 q 160 169 185 86 q 135 367 135 251 l 135 769 l 11 799 l 11 850 l 396 850 l 396 799 l 272 769 l 272 367 q 313 145 272 224 q 472 67 354 67 q 640 138 588 67 q 692 332 692 208 l 692 771 l 574 799 l 574 850 l 754 850 q 819 865 797 850 q 842 924 842 881 q 835 981 842 950 l 843 999 l 944 1018 q 958 978 953 1000 q 963 939 963 956 m 519 896 l 213 1042 l 215 1068 l 331 1110 l 543 929 l 519 896 z "},"Ử":{"ha":908,"x_min":11,"x_max":963,"o":"m 11 0 m 963 939 q 935 866 963 897 q 861 815 908 835 l 779 771 l 779 328 q 711 92 779 199 q 460 -14 643 -14 q 256 36 328 -14 q 160 169 185 86 q 135 367 135 251 l 135 769 l 11 799 l 11 850 l 396 850 l 396 799 l 272 769 l 272 367 q 313 145 272 224 q 472 67 354 67 q 640 138 588 67 q 692 332 692 208 l 692 771 l 574 799 l 574 850 l 754 850 q 819 865 797 850 q 842 924 842 881 q 835 981 842 950 l 843 999 l 944 1018 q 958 978 953 1000 q 963 939 963 956 m 596 1042 q 504 969 596 985 l 496 936 l 436 936 l 431 993 q 513 1036 513 993 q 499 1063 513 1053 q 463 1072 486 1072 q 432 1069 454 1072 l 421 1028 l 375 1028 l 367 1101 q 471 1111 419 1111 q 563 1093 531 1111 q 596 1042 596 1075 z "},"Ữ":{"ha":908,"x_min":11,"x_max":963,"o":"m 11 0 m 963 939 q 935 866 963 897 q 861 815 908 835 l 779 771 l 779 328 q 711 92 779 199 q 460 -14 643 -14 q 256 36 328 -14 q 160 169 185 86 q 135 367 135 251 l 135 769 l 11 799 l 11 850 l 396 850 l 396 799 l 272 769 l 272 367 q 313 145 272 224 q 472 67 354 67 q 640 138 588 67 q 692 332 692 208 l 692 771 l 574 799 l 574 850 l 754 850 q 819 865 797 850 q 842 924 842 881 q 835 981 842 950 l 843 999 l 944 1018 q 958 978 953 1000 q 963 939 963 956 m 669 1060 q 618 960 642 994 q 563 926 594 926 q 513 935 544 926 q 451 954 482 943 q 351 981 378 981 q 324 969 338 981 q 301 947 310 958 q 290 932 293 936 l 242 951 q 292 1051 267 1015 q 350 1086 318 1086 q 398 1078 368 1086 q 458 1058 428 1069 q 563 1032 535 1032 q 590 1042 576 1032 q 611 1064 603 1053 q 621 1079 619 1075 l 669 1060 z "},"Ű":{"ha":908,"x_min":11,"x_max":892,"o":"m 328 897 l 293 921 l 404 1117 l 515 1117 l 515 1092 l 328 897 m 551 897 l 517 921 l 628 1117 l 739 1117 l 739 1092 l 551 897 m 779 328 q 711 92 779 199 q 460 -14 643 -14 q 256 36 328 -14 q 160 169 185 86 q 135 367 135 251 l 135 769 l 11 799 l 11 850 l 396 850 l 396 799 l 272 769 l 272 367 q 313 145 272 224 q 472 67 354 67 q 640 138 588 67 q 692 332 692 208 l 692 771 l 574 799 l 574 850 l 892 850 l 892 799 l 779 771 l 779 328 z "},"Ȗ":{"ha":908,"x_min":11,"x_max":892,"o":"m 11 0 m 779 328 q 711 92 779 199 q 460 -14 643 -14 q 256 36 328 -14 q 160 169 185 86 q 135 367 135 251 l 135 769 l 11 799 l 11 850 l 396 850 l 396 799 l 272 769 l 272 367 q 313 145 272 224 q 472 67 354 67 q 640 138 588 67 q 692 332 692 208 l 692 771 l 574 799 l 574 850 l 892 850 l 892 799 l 779 771 l 779 328 m 457 1097 q 621 929 621 1097 l 563 926 q 457 1013 563 1013 q 347 926 347 1013 l 292 929 q 457 1097 292 1097 z "},"Ū":{"ha":908,"x_min":11,"x_max":892,"o":"m 325 1044 l 636 1044 l 636 960 l 325 960 l 325 1044 m 779 328 q 711 92 779 199 q 460 -14 643 -14 q 256 36 328 -14 q 160 169 185 86 q 135 367 135 251 l 135 769 l 11 799 l 11 850 l 396 850 l 396 799 l 272 769 l 272 367 q 313 145 272 224 q 472 67 354 67 q 640 138 588 67 q 692 332 692 208 l 692 771 l 574 799 l 574 850 l 892 850 l 892 799 l 779 771 l 779 328 z "},"Ų":{"ha":908,"x_min":11,"x_max":892,"o":"m 508 -326 q 407 -292 440 -326 q 374 -208 374 -257 q 402 -103 374 -156 q 486 -11 431 -51 l 460 -14 q 256 36 328 -14 q 160 169 185 86 q 135 367 135 251 l 135 769 l 11 799 l 11 850 l 396 850 l 396 799 l 272 769 l 272 367 q 313 145 272 224 q 472 67 354 67 q 640 138 588 67 q 692 332 692 208 l 692 771 l 574 799 l 574 850 l 892 850 l 892 799 l 779 771 l 779 328 q 739 140 779 231 q 594 10 699 49 q 504 -68 533 -15 q 475 -182 475 -121 q 494 -238 475 -218 q 546 -258 513 -258 q 619 -228 585 -258 l 646 -251 q 628 -274 646 -254 q 581 -310 611 -293 q 508 -326 550 -326 z "},"Ů":{"ha":908,"x_min":11,"x_max":892,"o":"m 486 876 q 379 913 417 876 q 342 1008 342 950 q 379 1103 342 1065 q 486 1140 417 1140 q 594 1103 556 1140 q 632 1008 632 1065 q 594 913 632 950 q 486 876 557 876 m 486 931 q 540 950 526 931 q 553 1008 553 969 q 540 1067 553 1046 q 486 1088 526 1088 q 434 1067 447 1088 q 421 1008 421 1046 q 434 950 421 969 q 486 931 447 931 m 460 -14 q 256 36 328 -14 q 160 169 185 86 q 135 367 135 251 l 135 769 l 11 799 l 11 850 l 396 850 l 396 799 l 272 769 l 272 367 q 313 145 272 224 q 472 67 354 67 q 640 138 588 67 q 692 332 692 208 l 692 771 l 574 799 l 574 850 l 892 850 l 892 799 l 779 771 l 779 328 q 711 92 779 199 q 460 -14 643 -14 z "},"Ũ":{"ha":908,"x_min":11,"x_max":892,"o":"m 697 1089 q 646 989 669 1024 q 590 954 622 954 q 478 983 557 954 q 422 1001 449 993 q 379 1008 394 1008 q 351 998 365 1008 q 329 976 338 988 q 318 961 321 965 l 269 981 q 320 1080 294 1044 q 378 1115 346 1115 q 486 1088 406 1115 q 589 1061 560 1061 q 617 1072 604 1061 q 639 1093 631 1082 q 649 1108 647 1104 l 697 1089 m 779 328 q 711 92 779 199 q 460 -14 643 -14 q 256 36 328 -14 q 160 169 185 86 q 135 367 135 251 l 135 769 l 11 799 l 11 850 l 396 850 l 396 799 l 272 769 l 272 367 q 313 142 272 221 q 472 63 354 63 q 640 134 588 63 q 692 332 692 206 l 692 771 l 574 799 l 574 850 l 892 850 l 892 799 l 779 771 l 779 328 z "},"V":{"ha":826,"x_min":3,"x_max":829,"o":"m 376 -14 l 103 769 l 3 799 l 3 850 l 331 850 l 331 799 l 246 771 l 440 204 l 447 174 l 454 204 l 636 769 l 539 799 l 539 850 l 829 850 l 829 800 l 729 769 l 469 3 l 376 -14 z "},"W":{"ha":1061,"x_min":-25,"x_max":1094,"o":"m 801 850 l 1094 850 l 1094 800 l 994 769 l 808 3 l 722 -12 l 536 572 l 372 3 l 288 -12 l 75 769 l -25 799 l -25 850 l 306 850 l 306 799 l 221 771 l 351 228 l 493 767 l 610 789 l 776 217 l 900 769 l 801 799 l 801 850 z "},"Ẃ":{"ha":1061,"x_min":-25,"x_max":1094,"o":"m 0 0 m 801 850 l 1094 850 l 1094 800 l 994 769 l 808 3 l 722 -12 l 536 572 l 372 3 l 288 -12 l 75 769 l -25 799 l -25 850 l 306 850 l 306 799 l 221 771 l 351 228 l 493 767 l 610 789 l 776 217 l 900 769 l 801 799 l 801 850 m 464 896 l 436 929 l 651 1110 l 767 1068 l 767 1042 l 464 896 z "},"Ŵ":{"ha":1061,"x_min":-25,"x_max":1094,"o":"m 0 0 m 801 850 l 1094 850 l 1094 800 l 994 769 l 808 3 l 722 -12 l 536 572 l 372 3 l 288 -12 l 75 769 l -25 799 l -25 850 l 306 850 l 306 799 l 221 771 l 351 228 l 493 767 l 610 789 l 776 217 l 900 769 l 801 799 l 801 850 m 688 900 l 521 1011 l 360 900 l 333 928 l 476 1111 l 569 1111 l 714 928 l 688 900 z "},"Ẅ":{"ha":1061,"x_min":-25,"x_max":1094,"o":"m 0 0 m 801 850 l 1094 850 l 1094 800 l 994 769 l 808 3 l 722 -12 l 536 572 l 372 3 l 288 -12 l 75 769 l -25 799 l -25 850 l 306 850 l 306 799 l 221 771 l 351 228 l 493 767 l 610 789 l 776 217 l 900 769 l 801 799 l 801 850 m 467 1001 q 441 942 467 967 q 381 918 415 918 q 319 942 346 918 q 293 1001 293 967 q 319 1063 293 1038 q 381 1089 346 1089 q 441 1063 415 1089 q 467 1001 467 1038 m 753 1001 q 727 942 753 967 q 667 918 701 918 q 605 942 631 918 q 579 1001 579 967 q 605 1063 579 1038 q 667 1089 631 1089 q 726 1063 700 1089 q 753 1001 753 1038 z "},"Ẁ":{"ha":1061,"x_min":-25,"x_max":1094,"o":"m 0 0 m 801 850 l 1094 850 l 1094 800 l 994 769 l 808 3 l 722 -12 l 536 572 l 372 3 l 288 -12 l 75 769 l -25 799 l -25 850 l 306 850 l 306 799 l 221 771 l 351 228 l 493 767 l 610 789 l 776 217 l 900 769 l 801 799 l 801 850 m 588 896 l 281 1042 l 283 1068 l 399 1110 l 611 929 l 588 896 z "},"X":{"ha":806,"x_min":4,"x_max":804,"o":"m 300 51 l 300 0 l 4 0 l 4 51 l 99 79 l 326 425 l 106 771 l 13 799 l 13 850 l 349 850 l 349 797 l 263 771 l 426 515 l 592 771 l 496 797 l 496 850 l 792 850 l 792 799 l 697 771 l 476 438 l 706 78 l 804 51 l 804 0 l 465 0 l 465 53 l 549 78 l 376 344 l 204 79 l 300 51 z "},"Y":{"ha":790,"x_min":15,"x_max":794,"o":"m 501 799 l 501 850 l 794 850 l 794 800 l 694 769 l 472 325 l 472 81 l 613 51 l 613 0 l 197 0 l 197 51 l 336 81 l 336 325 l 111 769 l 15 799 l 15 850 l 353 850 l 353 799 l 268 769 l 433 432 l 600 771 l 501 799 z "},"Ý":{"ha":790,"x_min":8,"x_max":786,"o":"m 297 896 l 271 929 l 485 1110 l 600 1068 l 600 1042 l 297 896 m 494 799 l 494 850 l 786 850 l 786 800 l 688 769 l 465 325 l 465 81 l 604 51 l 604 0 l 190 0 l 190 51 l 329 81 l 329 325 l 103 769 l 8 799 l 8 850 l 344 850 l 344 799 l 260 769 l 425 432 l 593 771 l 494 799 z "},"Ŷ":{"ha":790,"x_min":8,"x_max":786,"o":"m 576 900 l 410 1011 l 250 900 l 222 928 l 365 1111 l 460 1111 l 604 928 l 576 900 m 494 799 l 494 850 l 786 850 l 786 800 l 688 769 l 465 325 l 465 81 l 604 51 l 604 0 l 190 0 l 190 51 l 329 81 l 329 325 l 103 769 l 8 799 l 8 850 l 344 850 l 344 799 l 260 769 l 425 432 l 593 771 l 494 799 z "},"Ÿ":{"ha":790,"x_min":8,"x_max":788,"o":"m 272 919 q 210 944 236 919 q 183 1003 183 968 q 210 1064 183 1039 q 272 1089 236 1089 q 333 1064 307 1089 q 358 1003 358 1039 q 333 944 358 968 q 272 919 307 919 m 558 919 q 496 944 522 919 q 469 1003 469 968 q 496 1064 469 1039 q 558 1089 522 1089 q 619 1064 593 1089 q 644 1003 644 1039 q 619 944 644 968 q 558 919 593 919 m 190 0 l 190 51 l 329 81 l 329 325 l 103 769 l 8 799 l 8 850 l 346 850 l 346 799 l 260 769 l 426 432 l 594 771 l 496 799 l 496 850 l 788 850 l 788 800 l 688 769 l 465 325 l 465 81 l 604 51 l 604 0 l 190 0 z "},"Ỵ":{"ha":790,"x_min":15,"x_max":794,"o":"m 15 0 m 501 799 l 501 850 l 794 850 l 794 800 l 694 769 l 472 325 l 472 81 l 613 51 l 613 0 l 197 0 l 197 51 l 336 81 l 336 325 l 111 769 l 15 799 l 15 850 l 353 850 l 353 799 l 268 769 l 433 432 l 600 771 l 501 799 m 489 -151 q 462 -215 489 -189 q 397 -240 435 -240 q 331 -215 358 -240 q 303 -151 303 -189 q 331 -86 303 -114 q 397 -58 360 -58 q 461 -86 433 -58 q 489 -151 489 -114 z "},"Ỳ":{"ha":790,"x_min":8,"x_max":788,"o":"m 547 896 l 242 1042 l 244 1068 l 360 1110 l 571 929 l 547 896 m 190 0 l 190 51 l 329 81 l 329 325 l 103 769 l 8 799 l 8 850 l 346 850 l 346 799 l 260 769 l 426 432 l 594 771 l 496 799 l 496 850 l 788 850 l 788 800 l 688 769 l 465 325 l 465 81 l 604 51 l 604 0 l 190 0 z "},"Ỷ":{"ha":790,"x_min":15,"x_max":794,"o":"m 15 0 m 501 799 l 501 850 l 794 850 l 794 800 l 694 769 l 472 325 l 472 81 l 613 51 l 613 0 l 197 0 l 197 51 l 336 81 l 336 325 l 111 769 l 15 799 l 15 850 l 353 850 l 353 799 l 268 769 l 433 432 l 600 771 l 501 799 m 536 1042 q 444 969 536 985 l 436 936 l 376 936 l 371 993 q 453 1036 453 993 q 440 1063 453 1053 q 403 1072 426 1072 q 372 1069 394 1072 l 361 1028 l 315 1028 l 307 1101 q 411 1111 360 1111 q 503 1093 471 1111 q 536 1042 536 1075 z "},"Ȳ":{"ha":790,"x_min":15,"x_max":794,"o":"m 15 0 m 501 799 l 501 850 l 794 850 l 794 800 l 694 769 l 472 325 l 472 81 l 613 51 l 613 0 l 197 0 l 197 51 l 336 81 l 336 325 l 111 769 l 15 799 l 15 850 l 353 850 l 353 799 l 268 769 l 433 432 l 600 771 l 501 799 m 239 1044 l 551 1044 l 551 960 l 239 960 l 239 1044 z "},"Ỹ":{"ha":790,"x_min":8,"x_max":786,"o":"m 638 1089 q 586 989 610 1024 q 531 954 563 954 q 418 983 497 954 q 362 1001 389 993 q 319 1008 335 1008 q 292 998 306 1008 q 269 976 278 988 q 258 961 261 965 l 210 981 q 260 1080 235 1044 q 318 1115 286 1115 q 426 1088 346 1115 q 529 1061 500 1061 q 558 1072 544 1061 q 579 1093 571 1082 q 589 1108 588 1104 l 638 1089 m 494 799 l 494 850 l 786 850 l 786 800 l 688 769 l 465 325 l 465 81 l 604 51 l 604 0 l 190 0 l 190 51 l 329 81 l 329 325 l 103 769 l 8 799 l 8 850 l 344 850 l 344 799 l 260 769 l 425 432 l 593 771 l 494 799 z "},"Z":{"ha":711,"x_min":50,"x_max":658,"o":"m 657 211 l 643 0 l 75 0 l 50 46 l 496 769 l 183 769 l 153 661 l 92 661 l 78 850 l 651 850 l 658 806 l 218 82 l 544 82 l 596 211 l 657 211 z "},"Ź":{"ha":711,"x_min":50,"x_max":658,"o":"m 250 896 l 224 929 l 438 1110 l 553 1068 l 553 1042 l 250 896 m 657 211 l 643 0 l 75 0 l 50 46 l 496 769 l 183 769 l 153 661 l 92 661 l 78 850 l 651 850 l 658 806 l 218 82 l 544 82 l 596 211 l 657 211 z "},"Ž":{"ha":711,"x_min":54,"x_max":663,"o":"m 336 900 l 192 1083 l 218 1111 l 383 1000 l 546 1111 l 572 1083 l 431 900 l 336 900 m 79 0 l 54 46 l 500 769 l 188 769 l 157 661 l 94 661 l 82 850 l 656 850 l 663 806 l 222 82 l 549 82 l 600 211 l 661 211 l 647 0 l 79 0 z "},"Ż":{"ha":711,"x_min":50,"x_max":658,"o":"m 467 1003 q 439 940 467 965 q 374 914 411 914 q 307 940 335 914 q 279 1003 279 965 q 308 1068 279 1040 q 374 1096 336 1096 q 439 1068 411 1096 q 467 1003 467 1040 m 657 211 l 643 0 l 75 0 l 50 46 l 496 769 l 183 769 l 153 661 l 92 661 l 78 850 l 651 850 l 658 806 l 218 82 l 544 82 l 596 211 l 657 211 z "},"Ẓ":{"ha":711,"x_min":50,"x_max":658,"o":"m 50 0 m 657 211 l 643 0 l 75 0 l 50 46 l 496 769 l 183 769 l 153 661 l 92 661 l 78 850 l 651 850 l 658 806 l 218 82 l 544 82 l 596 211 l 657 211 m 449 -151 q 422 -215 449 -189 q 357 -240 394 -240 q 290 -215 318 -240 q 263 -151 263 -189 q 291 -86 263 -114 q 357 -58 319 -58 q 421 -86 393 -58 q 449 -151 449 -114 z "},"a":{"ha":710,"x_min":53,"x_max":690,"o":"m 322 611 q 196 592 257 611 l 164 474 l 110 474 l 86 644 q 354 696 225 696 q 515 660 460 696 q 571 538 571 625 l 571 92 l 690 63 l 690 17 q 542 -6 613 -6 q 474 14 503 -6 q 436 69 444 33 q 324 6 379 28 q 207 -15 268 -15 q 94 35 135 -15 q 53 156 53 85 q 91 278 53 222 q 229 351 129 333 l 433 389 l 433 500 q 409 584 433 557 q 322 611 385 611 m 307 300 q 193 176 193 278 q 286 79 193 79 q 433 126 346 79 l 433 322 l 307 300 z "},"á":{"ha":710,"x_min":53,"x_max":690,"o":"m 53 0 m 322 611 q 196 592 257 611 l 164 474 l 110 474 l 86 644 q 354 696 225 696 q 515 660 460 696 q 571 538 571 625 l 571 92 l 690 63 l 690 17 q 542 -6 613 -6 q 474 14 503 -6 q 436 69 444 33 q 324 6 379 28 q 207 -15 268 -15 q 94 35 135 -15 q 53 156 53 85 q 91 278 53 222 q 229 351 129 333 l 433 389 l 433 500 q 409 584 433 557 q 322 611 385 611 m 307 300 q 193 176 193 278 q 286 79 193 79 q 433 126 346 79 l 433 322 l 307 300 m 244 775 l 217 808 l 432 992 l 547 947 l 547 921 l 244 775 z "},"ă":{"ha":710,"x_min":53,"x_max":690,"o":"m 326 801 q 199 847 235 801 q 164 968 164 893 l 221 971 q 325 886 221 886 q 436 971 436 886 l 492 968 q 326 801 492 801 m 322 611 q 196 592 257 611 l 164 474 l 110 474 l 86 644 q 354 696 225 696 q 515 660 460 696 q 571 538 571 625 l 571 92 l 690 63 l 690 17 q 542 -6 613 -6 q 474 14 503 -6 q 436 69 444 33 q 324 6 379 28 q 207 -15 268 -15 q 94 35 135 -15 q 53 156 53 85 q 91 278 53 222 q 229 351 129 333 l 433 389 l 433 500 q 409 584 433 557 q 322 611 385 611 m 307 300 q 193 176 193 278 q 286 79 193 79 q 433 126 346 79 l 433 322 l 307 300 z "},"ắ":{"ha":710,"x_min":53,"x_max":690,"o":"m 53 0 m 322 611 q 196 592 257 611 l 164 474 l 110 474 l 86 644 q 354 696 225 696 q 515 660 460 696 q 571 538 571 625 l 571 92 l 690 63 l 690 17 q 542 -6 613 -6 q 474 14 503 -6 q 436 69 444 33 q 324 6 379 28 q 207 -15 268 -15 q 94 35 135 -15 q 53 156 53 85 q 91 278 53 222 q 229 351 129 333 l 433 389 l 433 500 q 409 584 433 557 q 322 611 385 611 m 307 300 q 193 176 193 278 q 286 79 193 79 q 433 126 346 79 l 433 322 l 307 300 m 350 750 q 222 796 258 750 q 186 917 186 842 l 243 919 q 350 833 243 833 q 458 919 458 833 l 515 917 q 350 750 515 750 m 293 914 l 265 947 l 481 1128 l 596 1086 l 596 1060 l 293 914 z "},"ặ":{"ha":710,"x_min":53,"x_max":690,"o":"m 53 0 m 322 611 q 196 592 257 611 l 164 474 l 110 474 l 86 644 q 354 696 225 696 q 515 660 460 696 q 571 538 571 625 l 571 92 l 690 63 l 690 17 q 542 -6 613 -6 q 474 14 503 -6 q 436 69 444 33 q 324 6 379 28 q 207 -15 268 -15 q 94 35 135 -15 q 53 156 53 85 q 91 278 53 222 q 229 351 129 333 l 433 389 l 433 500 q 409 584 433 557 q 322 611 385 611 m 307 300 q 193 176 193 278 q 286 79 193 79 q 433 126 346 79 l 433 322 l 307 300 m 443 -151 q 416 -215 443 -189 q 351 -240 389 -240 q 285 -215 313 -240 q 257 -151 257 -189 q 285 -86 257 -114 q 351 -58 314 -58 q 415 -86 388 -58 q 443 -151 443 -114 m 349 801 q 222 847 257 801 q 186 968 186 893 l 243 971 q 347 886 243 886 q 458 971 458 886 l 515 968 q 349 801 515 801 z "},"ằ":{"ha":710,"x_min":53,"x_max":690,"o":"m 53 0 m 322 611 q 196 592 257 611 l 164 474 l 110 474 l 86 644 q 354 696 225 696 q 515 660 460 696 q 571 538 571 625 l 571 92 l 690 63 l 690 17 q 542 -6 613 -6 q 474 14 503 -6 q 436 69 444 33 q 324 6 379 28 q 207 -15 268 -15 q 94 35 135 -15 q 53 156 53 85 q 91 278 53 222 q 229 351 129 333 l 433 389 l 433 500 q 409 584 433 557 q 322 611 385 611 m 307 300 q 193 176 193 278 q 286 79 193 79 q 433 126 346 79 l 433 322 l 307 300 m 350 750 q 222 796 258 750 q 186 917 186 842 l 243 919 q 350 833 243 833 q 458 919 458 833 l 515 917 q 350 750 515 750 m 417 914 l 110 1060 l 113 1086 l 228 1128 l 440 947 l 417 914 z "},"ẳ":{"ha":710,"x_min":53,"x_max":690,"o":"m 53 0 m 322 611 q 196 592 257 611 l 164 474 l 110 474 l 86 644 q 354 696 225 696 q 515 660 460 696 q 571 538 571 625 l 571 92 l 690 63 l 690 17 q 542 -6 613 -6 q 474 14 503 -6 q 436 69 444 33 q 324 6 379 28 q 207 -15 268 -15 q 94 35 135 -15 q 53 156 53 85 q 91 278 53 222 q 229 351 129 333 l 433 389 l 433 500 q 409 584 433 557 q 322 611 385 611 m 307 300 q 193 176 193 278 q 286 79 193 79 q 433 126 346 79 l 433 322 l 307 300 m 350 750 q 222 796 258 750 q 186 917 186 842 l 243 919 q 350 833 243 833 q 458 919 458 833 l 515 917 q 350 750 515 750 m 493 1060 q 401 988 493 1003 l 393 954 l 333 954 l 328 1011 q 410 1054 410 1011 q 397 1081 410 1071 q 360 1090 383 1090 q 329 1088 351 1090 l 318 1046 l 272 1046 l 264 1119 q 368 1129 317 1129 q 460 1111 428 1129 q 493 1060 493 1093 z "},"ẵ":{"ha":710,"x_min":53,"x_max":690,"o":"m 53 0 m 322 611 q 196 592 257 611 l 164 474 l 110 474 l 86 644 q 354 696 225 696 q 515 660 460 696 q 571 538 571 625 l 571 92 l 690 63 l 690 17 q 542 -6 613 -6 q 474 14 503 -6 q 436 69 444 33 q 324 6 379 28 q 207 -15 268 -15 q 94 35 135 -15 q 53 156 53 85 q 91 278 53 222 q 229 351 129 333 l 433 389 l 433 500 q 409 584 433 557 q 322 611 385 611 m 307 300 q 193 176 193 278 q 286 79 193 79 q 433 126 346 79 l 433 322 l 307 300 m 350 750 q 222 796 258 750 q 186 917 186 842 l 243 919 q 350 833 243 833 q 458 919 458 833 l 515 917 q 350 750 515 750 m 567 1078 q 515 978 539 1013 q 460 944 492 944 q 410 953 442 944 q 349 972 379 961 q 249 999 275 999 q 221 988 235 999 q 199 965 207 976 q 188 950 190 954 l 139 969 q 190 1069 164 1033 q 247 1104 215 1104 q 295 1096 265 1104 q 356 1076 325 1088 q 460 1050 432 1050 q 487 1060 474 1050 q 508 1082 500 1071 q 518 1097 517 1093 l 567 1078 z "},"ǎ":{"ha":710,"x_min":53,"x_max":690,"o":"m 53 0 m 322 611 q 196 592 257 611 l 164 474 l 110 474 l 86 644 q 354 696 225 696 q 515 660 460 696 q 571 538 571 625 l 571 92 l 690 63 l 690 17 q 542 -6 613 -6 q 474 14 503 -6 q 436 69 444 33 q 324 6 379 28 q 207 -15 268 -15 q 94 35 135 -15 q 53 156 53 85 q 91 278 53 222 q 229 351 129 333 l 433 389 l 433 500 q 409 584 433 557 q 322 611 385 611 m 307 300 q 193 176 193 278 q 286 79 193 79 q 433 126 346 79 l 433 322 l 307 300 m 197 1000 l 351 881 l 504 1000 l 539 972 l 399 778 l 304 778 l 161 972 l 197 1000 z "},"â":{"ha":710,"x_min":53,"x_max":690,"o":"m 475 769 l 321 893 l 168 769 l 132 800 l 274 993 l 368 993 l 511 800 l 475 769 m 322 611 q 196 592 257 611 l 164 474 l 110 474 l 86 644 q 354 696 225 696 q 515 660 460 696 q 571 538 571 625 l 571 92 l 690 63 l 690 17 q 542 -6 613 -6 q 474 14 503 -6 q 436 69 444 33 q 324 6 379 28 q 207 -15 268 -15 q 94 35 135 -15 q 53 156 53 85 q 91 278 53 222 q 229 351 129 333 l 433 389 l 433 500 q 409 584 433 557 q 322 611 385 611 m 307 300 q 193 176 193 278 q 286 79 193 79 q 433 126 346 79 l 433 322 l 307 300 z "},"ấ":{"ha":710,"x_min":53,"x_max":789,"o":"m 556 849 l 521 871 l 654 1118 l 778 1118 l 789 1093 l 556 849 m 504 769 l 350 893 l 197 769 l 161 800 l 303 993 l 396 993 l 539 800 l 504 769 m 322 611 q 196 592 257 611 l 164 474 l 110 474 l 86 644 q 354 696 225 696 q 515 660 460 696 q 571 538 571 625 l 571 92 l 690 63 l 690 17 q 542 -6 613 -6 q 474 14 503 -6 q 436 69 444 33 q 324 6 379 28 q 207 -15 268 -15 q 94 35 135 -15 q 53 156 53 85 q 91 278 53 222 q 229 351 129 333 l 433 389 l 433 500 q 409 584 433 557 q 322 611 385 611 m 307 300 q 193 176 193 278 q 286 79 193 79 q 433 126 346 79 l 433 322 l 307 300 z "},"ậ":{"ha":710,"x_min":53,"x_max":690,"o":"m 53 0 m 322 611 q 196 592 257 611 l 164 474 l 110 474 l 86 644 q 354 696 225 696 q 515 660 460 696 q 571 538 571 625 l 571 92 l 690 63 l 690 17 q 542 -6 613 -6 q 474 14 503 -6 q 436 69 444 33 q 324 6 379 28 q 207 -15 268 -15 q 94 35 135 -15 q 53 156 53 85 q 91 278 53 222 q 229 351 129 333 l 433 389 l 433 500 q 409 584 433 557 q 322 611 385 611 m 307 300 q 193 176 193 278 q 286 79 193 79 q 433 126 346 79 l 433 322 l 307 300 m 443 -151 q 416 -215 443 -189 q 351 -240 389 -240 q 285 -215 313 -240 q 257 -151 257 -189 q 285 -86 257 -114 q 351 -58 314 -58 q 415 -86 388 -58 q 443 -151 443 -114 m 504 769 l 350 893 l 197 769 l 161 800 l 303 993 l 396 993 l 539 800 l 504 769 z "},"ầ":{"ha":710,"x_min":53,"x_max":690,"o":"m 592 849 l 357 1093 l 368 1118 l 492 1118 l 625 871 l 592 849 m 490 769 l 336 893 l 183 769 l 147 800 l 289 993 l 382 993 l 525 800 l 490 769 m 322 611 q 196 592 257 611 l 164 474 l 110 474 l 86 644 q 354 696 225 696 q 515 660 460 696 q 571 538 571 625 l 571 92 l 690 63 l 690 17 q 542 -6 613 -6 q 474 14 503 -6 q 436 69 444 33 q 324 6 379 28 q 207 -15 268 -15 q 94 35 135 -15 q 53 156 53 85 q 91 278 53 222 q 229 351 129 333 l 433 389 l 433 500 q 409 584 433 557 q 322 611 385 611 m 307 300 q 193 176 193 278 q 286 79 193 79 q 433 126 346 79 l 433 322 l 307 300 z "},"ẩ":{"ha":710,"x_min":53,"x_max":690,"o":"m 53 0 m 322 611 q 196 592 257 611 l 164 474 l 110 474 l 86 644 q 354 696 225 696 q 515 660 460 696 q 571 538 571 625 l 571 92 l 690 63 l 690 17 q 542 -6 613 -6 q 474 14 503 -6 q 436 69 444 33 q 324 6 379 28 q 207 -15 268 -15 q 94 35 135 -15 q 53 156 53 85 q 91 278 53 222 q 229 351 129 333 l 433 389 l 433 500 q 409 584 433 557 q 322 611 385 611 m 307 300 q 193 176 193 278 q 286 79 193 79 q 433 126 346 79 l 433 322 l 307 300 m 504 769 l 350 893 l 197 769 l 161 800 l 303 993 l 396 993 l 539 800 l 504 769 m 638 1047 q 546 975 638 990 l 538 942 l 478 942 l 472 999 q 554 1042 554 999 q 541 1068 554 1058 q 504 1078 528 1078 q 474 1075 496 1078 l 463 1033 l 417 1033 l 408 1107 q 513 1117 461 1117 q 605 1099 572 1117 q 638 1047 638 1081 z "},"ẫ":{"ha":710,"x_min":53,"x_max":690,"o":"m 53 0 m 322 611 q 196 592 257 611 l 164 474 l 110 474 l 86 644 q 354 696 225 696 q 515 660 460 696 q 571 538 571 625 l 571 92 l 690 63 l 690 17 q 542 -6 613 -6 q 474 14 503 -6 q 436 69 444 33 q 324 6 379 28 q 207 -15 268 -15 q 94 35 135 -15 q 53 156 53 85 q 91 278 53 222 q 229 351 129 333 l 433 389 l 433 500 q 409 584 433 557 q 322 611 385 611 m 307 300 q 193 176 193 278 q 286 79 193 79 q 433 126 346 79 l 433 322 l 307 300 m 514 732 l 347 843 l 186 732 l 160 760 l 303 943 l 396 943 l 540 760 l 514 732 m 567 1088 q 515 988 539 1022 q 460 954 492 954 q 410 963 442 954 q 349 982 379 971 q 249 1008 275 1008 q 221 997 235 1008 q 199 975 207 986 q 188 960 190 964 l 139 979 q 190 1078 164 1043 q 247 1114 215 1114 q 295 1106 265 1114 q 356 1086 325 1097 q 460 1060 432 1060 q 487 1070 474 1060 q 508 1092 500 1081 q 518 1107 517 1103 l 567 1088 z "},"ȁ":{"ha":710,"x_min":53,"x_max":690,"o":"m 53 0 m 322 611 q 196 592 257 611 l 164 474 l 110 474 l 86 644 q 354 696 225 696 q 515 660 460 696 q 571 538 571 625 l 571 92 l 690 63 l 690 17 q 542 -6 613 -6 q 474 14 503 -6 q 436 69 444 33 q 324 6 379 28 q 207 -15 268 -15 q 94 35 135 -15 q 53 156 53 85 q 91 278 53 222 q 229 351 129 333 l 433 389 l 433 500 q 409 584 433 557 q 322 611 385 611 m 307 300 q 193 176 193 278 q 286 79 193 79 q 433 126 346 79 l 433 322 l 307 300 m 265 758 l 60 975 l 60 1000 l 171 1000 l 297 779 l 265 758 m 489 758 l 283 975 l 283 1000 l 394 1000 l 521 779 l 489 758 z "},"ä":{"ha":710,"x_min":53,"x_max":690,"o":"m 274 888 q 248 828 274 853 q 188 804 222 804 q 126 828 153 804 q 100 888 100 853 q 126 949 100 924 q 188 975 153 975 q 248 949 222 975 q 274 888 274 924 m 561 888 q 535 828 561 853 q 474 804 508 804 q 412 828 438 804 q 386 888 386 853 q 412 949 386 924 q 474 975 438 975 q 535 949 508 975 q 561 888 561 924 m 322 611 q 196 592 257 611 l 164 474 l 110 474 l 86 644 q 354 696 225 696 q 515 660 460 696 q 571 538 571 625 l 571 92 l 690 63 l 690 17 q 542 -6 613 -6 q 474 14 503 -6 q 436 69 444 33 q 324 6 379 28 q 207 -15 268 -15 q 94 35 135 -15 q 53 156 53 85 q 91 278 53 222 q 229 351 129 333 l 433 389 l 433 500 q 409 584 433 557 q 322 611 385 611 m 307 300 q 193 176 193 278 q 286 79 193 79 q 433 126 346 79 l 433 322 l 307 300 z "},"ạ":{"ha":710,"x_min":53,"x_max":690,"o":"m 53 0 m 322 611 q 196 592 257 611 l 164 474 l 110 474 l 86 644 q 354 696 225 696 q 515 660 460 696 q 571 538 571 625 l 571 92 l 690 63 l 690 17 q 542 -6 613 -6 q 474 14 503 -6 q 436 69 444 33 q 324 6 379 28 q 207 -15 268 -15 q 94 35 135 -15 q 53 156 53 85 q 91 278 53 222 q 229 351 129 333 l 433 389 l 433 500 q 409 584 433 557 q 322 611 385 611 m 307 300 q 193 176 193 278 q 286 79 193 79 q 433 126 346 79 l 433 322 l 307 300 m 443 -151 q 416 -215 443 -189 q 351 -240 389 -240 q 285 -215 313 -240 q 257 -151 257 -189 q 285 -86 257 -114 q 351 -58 314 -58 q 415 -86 388 -58 q 443 -151 443 -114 z "},"à":{"ha":710,"x_min":53,"x_max":690,"o":"m 447 775 l 140 921 l 142 947 l 257 992 l 471 808 l 447 775 m 322 611 q 196 592 257 611 l 164 474 l 110 474 l 86 644 q 354 696 225 696 q 515 660 460 696 q 571 538 571 625 l 571 92 l 690 63 l 690 17 q 542 -6 613 -6 q 474 14 503 -6 q 436 69 444 33 q 324 6 379 28 q 207 -15 268 -15 q 94 35 135 -15 q 53 156 53 85 q 91 278 53 222 q 229 351 129 333 l 433 389 l 433 500 q 409 584 433 557 q 322 611 385 611 m 307 300 q 193 176 193 278 q 286 79 193 79 q 433 126 346 79 l 433 322 l 307 300 z "},"ả":{"ha":710,"x_min":53,"x_max":690,"o":"m 53 0 m 322 611 q 196 592 257 611 l 164 474 l 110 474 l 86 644 q 354 696 225 696 q 515 660 460 696 q 571 538 571 625 l 571 92 l 690 63 l 690 17 q 542 -6 613 -6 q 474 14 503 -6 q 436 69 444 33 q 324 6 379 28 q 207 -15 268 -15 q 94 35 135 -15 q 53 156 53 85 q 91 278 53 222 q 229 351 129 333 l 433 389 l 433 500 q 409 584 433 557 q 322 611 385 611 m 307 300 q 193 176 193 278 q 286 79 193 79 q 433 126 346 79 l 433 322 l 307 300 m 490 874 q 399 801 490 817 l 390 768 l 331 768 l 325 825 q 407 868 407 825 q 394 894 407 885 q 357 904 381 904 q 326 901 349 904 l 315 860 l 269 860 l 261 933 q 365 943 314 943 q 458 925 425 943 q 490 874 490 907 z "},"ȃ":{"ha":710,"x_min":53,"x_max":690,"o":"m 53 0 m 322 611 q 196 592 257 611 l 164 474 l 110 474 l 86 644 q 354 696 225 696 q 515 660 460 696 q 571 538 571 625 l 571 92 l 690 63 l 690 17 q 542 -6 613 -6 q 474 14 503 -6 q 436 69 444 33 q 324 6 379 28 q 207 -15 268 -15 q 94 35 135 -15 q 53 156 53 85 q 91 278 53 222 q 229 351 129 333 l 433 389 l 433 500 q 409 584 433 557 q 322 611 385 611 m 307 300 q 193 176 193 278 q 286 79 193 79 q 433 126 346 79 l 433 322 l 307 300 m 351 985 q 479 939 443 985 q 515 818 515 893 l 457 815 q 353 900 457 900 q 242 815 242 900 l 186 818 q 351 985 186 985 z "},"ā":{"ha":710,"x_min":53,"x_max":690,"o":"m 164 928 l 476 928 l 476 844 l 164 844 l 164 928 m 322 611 q 196 592 257 611 l 164 474 l 110 474 l 86 644 q 354 696 225 696 q 515 660 460 696 q 571 538 571 625 l 571 92 l 690 63 l 690 17 q 542 -6 613 -6 q 474 14 503 -6 q 436 69 444 33 q 324 6 379 28 q 207 -15 268 -15 q 94 35 135 -15 q 53 156 53 85 q 91 278 53 222 q 229 351 129 333 l 433 389 l 433 500 q 409 584 433 557 q 322 611 385 611 m 307 300 q 193 176 193 278 q 286 79 193 79 q 433 126 346 79 l 433 322 l 307 300 z "},"ą":{"ha":715,"x_min":53,"x_max":696,"o":"m 696 -251 q 648 -301 682 -275 q 558 -326 614 -326 q 456 -292 490 -326 q 422 -208 422 -258 q 458 -103 422 -157 q 553 -6 493 -49 l 543 -6 q 474 13 503 -6 q 436 69 444 32 q 324 6 379 28 q 207 -15 268 -15 q 94 35 135 -15 q 53 156 53 85 q 91 278 53 222 q 229 351 129 333 l 433 389 l 433 500 q 409 584 433 557 q 322 611 385 611 q 196 592 257 611 l 164 474 l 110 474 l 86 644 q 354 696 225 696 q 515 660 460 696 q 571 538 571 625 l 571 92 l 690 63 l 690 17 q 566 -61 607 -7 q 525 -182 525 -115 q 544 -239 525 -219 q 596 -258 563 -258 q 669 -228 635 -258 l 696 -251 m 433 322 l 307 300 q 193 176 193 278 q 286 79 193 79 q 433 126 346 79 l 433 322 z "},"å":{"ha":710,"x_min":53,"x_max":690,"o":"m 474 883 q 435 782 474 821 q 326 743 397 743 q 216 782 254 743 q 178 883 178 821 q 216 987 178 947 q 326 1026 254 1026 q 435 987 397 1026 q 474 883 474 947 m 326 971 q 274 948 288 971 q 261 883 261 925 q 274 821 261 843 q 326 799 288 799 q 377 821 364 799 q 390 883 390 843 q 377 948 390 925 q 326 971 364 971 m 322 611 q 196 592 257 611 l 164 474 l 110 474 l 86 644 q 354 696 225 696 q 515 660 460 696 q 571 538 571 625 l 571 92 l 690 63 l 690 17 q 542 -6 613 -6 q 474 14 503 -6 q 436 69 444 33 q 324 6 379 28 q 207 -15 268 -15 q 94 35 135 -15 q 53 156 53 85 q 91 278 53 222 q 229 351 129 333 l 433 389 l 433 500 q 409 584 433 557 q 322 611 385 611 m 307 300 q 193 176 193 278 q 286 79 193 79 q 433 126 346 79 l 433 322 l 307 300 z "},"ǻ":{"ha":710,"x_min":53,"x_max":690,"o":"m 53 0 m 322 611 q 196 592 257 611 l 164 474 l 110 474 l 86 644 q 354 696 225 696 q 515 660 460 696 q 571 538 571 625 l 571 92 l 690 63 l 690 17 q 542 -6 613 -6 q 474 14 503 -6 q 436 69 444 33 q 324 6 379 28 q 207 -15 268 -15 q 94 35 135 -15 q 53 156 53 85 q 91 278 53 222 q 229 351 129 333 l 433 389 l 433 500 q 409 584 433 557 q 322 611 385 611 m 307 300 q 193 176 193 278 q 286 79 193 79 q 433 126 346 79 l 433 322 l 307 300 m 350 708 q 242 745 281 708 q 204 840 204 782 q 242 935 204 897 q 350 972 281 972 q 457 935 419 972 q 494 840 494 897 q 458 745 494 782 q 350 708 421 708 m 350 763 q 403 782 390 763 q 415 840 415 801 q 403 899 415 878 q 350 919 390 919 q 297 899 310 919 q 283 840 283 878 q 297 782 283 801 q 350 763 310 763 m 293 979 l 265 1013 l 481 1193 l 596 1151 l 596 1125 l 293 979 z "},"ã":{"ha":710,"x_min":53,"x_max":690,"o":"m 546 943 q 494 843 519 878 q 439 808 469 808 q 328 836 408 808 q 226 863 251 863 q 199 852 213 863 q 178 831 186 842 q 167 815 169 819 l 118 835 q 169 934 143 899 q 226 969 194 969 q 335 942 254 969 q 438 915 408 915 q 466 926 453 915 q 488 947 479 936 q 497 963 496 958 l 546 943 m 322 611 q 196 592 257 611 l 164 474 l 110 474 l 86 644 q 354 696 225 696 q 515 660 460 696 q 571 538 571 625 l 571 92 l 690 63 l 690 17 q 542 -6 613 -6 q 474 14 503 -6 q 436 69 444 33 q 324 6 379 28 q 207 -15 268 -15 q 94 35 135 -15 q 53 156 53 85 q 91 278 53 222 q 229 351 129 333 l 433 389 l 433 500 q 409 584 433 557 q 322 611 385 611 m 307 300 q 193 176 193 278 q 286 79 193 79 q 433 126 346 79 l 433 322 l 307 300 z "},"æ":{"ha":965,"x_min":42,"x_max":936,"o":"m 197 -14 q 80 35 118 -14 q 42 156 42 85 q 86 265 42 218 q 228 329 131 311 l 401 364 l 401 501 q 378 585 401 558 q 294 611 356 611 q 182 592 240 611 l 151 475 l 96 475 l 72 644 q 200 683 140 669 q 326 696 260 696 q 440 678 394 696 q 508 619 485 660 q 688 696 581 696 q 867 634 797 696 q 936 439 936 572 q 932 393 936 417 l 532 321 q 573 128 532 188 q 710 69 614 69 q 906 100 803 69 l 917 51 q 806 1 863 18 q 675 -15 749 -15 q 532 12 583 -15 q 440 90 481 39 q 323 12 375 38 q 197 -14 271 -14 m 792 439 q 769 567 792 517 q 683 617 747 617 q 575 560 610 617 q 535 385 540 503 l 792 439 m 271 76 q 335 90 304 76 q 401 129 365 103 l 401 297 l 293 276 q 204 242 229 265 q 179 175 179 218 q 203 103 179 129 q 271 76 226 76 z "},"ǽ":{"ha":965,"x_min":42,"x_max":936,"o":"m 42 0 m 197 -14 q 80 35 118 -14 q 42 156 42 85 q 86 265 42 218 q 228 329 131 311 l 401 364 l 401 501 q 378 585 401 558 q 294 611 356 611 q 182 592 240 611 l 151 475 l 96 475 l 72 644 q 200 683 140 669 q 326 696 260 696 q 440 678 394 696 q 508 619 485 660 q 688 696 581 696 q 867 634 797 696 q 936 439 936 572 q 932 393 936 417 l 532 321 q 573 128 532 188 q 710 69 614 69 q 906 100 803 69 l 917 51 q 806 1 863 18 q 675 -15 749 -15 q 532 12 583 -15 q 440 90 481 39 q 323 12 375 38 q 197 -14 271 -14 m 792 439 q 769 567 792 517 q 683 617 747 617 q 575 560 610 617 q 535 385 540 503 l 792 439 m 271 76 q 335 90 304 76 q 401 129 365 103 l 401 297 l 293 276 q 204 242 229 265 q 179 175 179 218 q 203 103 179 129 q 271 76 226 76 m 378 775 l 350 808 l 565 992 l 681 947 l 681 921 l 378 775 z "},"b":{"ha":769,"x_min":-8,"x_max":719,"o":"m 249 658 q 322 685 281 674 q 399 696 364 696 q 636 609 553 696 q 719 346 719 522 q 643 88 719 190 q 379 -14 567 -14 q 239 -3 321 -14 q 110 25 157 8 l 110 901 l -8 915 l -8 958 l 206 1011 l 249 1011 l 249 658 m 249 81 q 301 64 268 71 q 374 57 335 57 q 526 126 483 57 q 568 343 568 194 q 527 553 568 486 q 378 621 486 621 q 310 613 340 621 q 249 590 281 606 l 249 81 z "},"c":{"ha":614,"x_min":50,"x_max":588,"o":"m 356 -14 q 125 84 200 -14 q 50 338 50 182 q 124 597 50 499 q 356 696 199 696 q 473 685 421 696 q 585 651 525 675 l 558 474 l 503 474 l 471 600 q 364 618 417 618 q 235 547 271 618 q 200 342 200 476 q 238 136 200 203 q 372 69 276 69 q 579 101 476 69 l 588 51 q 475 3 531 19 q 356 -14 419 -14 z "},"ć":{"ha":614,"x_min":49,"x_max":586,"o":"m 229 775 l 203 808 l 418 992 l 533 947 l 533 921 l 229 775 m 354 -14 q 124 84 199 -14 q 49 338 49 182 q 123 597 49 499 q 354 696 197 696 q 470 685 418 696 q 583 651 522 675 l 557 474 l 501 474 l 469 600 q 361 618 415 618 q 233 547 268 618 q 199 342 199 476 q 236 135 199 201 q 369 69 274 69 q 576 101 476 69 l 586 51 q 474 3 529 19 q 354 -14 418 -14 z "},"č":{"ha":614,"x_min":49,"x_max":586,"o":"m 197 1000 l 350 881 l 504 1000 l 539 972 l 397 778 l 303 778 l 161 972 l 197 1000 m 354 -14 q 124 84 199 -14 q 49 338 49 182 q 123 597 49 499 q 354 696 197 696 q 470 685 418 696 q 583 651 522 675 l 557 474 l 501 474 l 469 600 q 361 618 415 618 q 233 547 268 618 q 199 342 199 476 q 236 135 199 201 q 369 69 274 69 q 576 101 476 69 l 586 51 q 474 3 529 19 q 354 -14 418 -14 z "},"ç":{"ha":614,"x_min":49,"x_max":586,"o":"m 300 -304 q 228 -292 258 -304 l 239 -251 q 283 -260 263 -260 q 357 -235 329 -260 q 385 -175 385 -210 q 361 -130 385 -147 q 288 -112 338 -112 l 282 -96 l 311 -11 q 113 98 178 3 q 49 338 49 193 q 123 597 49 499 q 354 696 197 696 q 470 685 418 696 q 583 651 522 675 l 557 474 l 501 474 l 469 600 q 361 618 415 618 q 233 547 268 618 q 199 342 199 476 q 236 135 199 201 q 369 69 274 69 q 576 101 476 69 l 586 51 q 360 -14 472 -12 l 343 -64 q 451 -92 414 -64 q 489 -162 489 -121 q 463 -233 489 -200 q 393 -285 436 -265 q 300 -304 350 -304 z "},"ĉ":{"ha":614,"x_min":50,"x_max":588,"o":"m 50 0 m 356 -14 q 125 84 200 -14 q 50 338 50 182 q 124 597 50 499 q 356 696 199 696 q 473 685 421 696 q 585 651 525 675 l 558 474 l 503 474 l 471 600 q 364 618 417 618 q 235 547 271 618 q 200 342 200 476 q 238 136 200 203 q 372 69 276 69 q 579 101 476 69 l 588 51 q 475 3 531 19 q 356 -14 419 -14 m 517 769 l 363 893 l 210 769 l 174 800 l 315 993 l 408 993 l 551 800 l 517 769 z "},"ċ":{"ha":614,"x_min":50,"x_max":588,"o":"m 50 0 m 356 -14 q 125 84 200 -14 q 50 338 50 182 q 124 597 50 499 q 356 696 199 696 q 473 685 421 696 q 585 651 525 675 l 558 474 l 503 474 l 471 600 q 364 618 417 618 q 235 547 271 618 q 200 342 200 476 q 238 136 200 203 q 372 69 276 69 q 579 101 476 69 l 588 51 q 475 3 531 19 q 356 -14 419 -14 m 456 889 q 428 826 456 851 q 364 800 401 800 q 297 826 325 800 q 269 889 269 851 q 298 954 269 926 q 364 982 326 982 q 428 954 400 982 q 456 889 456 926 z "},"d":{"ha":789,"x_min":50,"x_max":775,"o":"m 522 65 q 414 6 469 26 q 292 -14 358 -14 q 159 34 214 -14 q 77 162 104 82 q 50 338 50 242 q 132 601 50 506 q 360 696 214 696 q 431 689 396 696 q 492 674 467 682 q 518 663 517 665 l 518 901 l 399 915 l 399 958 l 611 1011 l 656 1011 l 656 92 l 775 63 l 775 17 q 625 -6 699 -6 q 560 14 590 -6 q 522 65 529 33 m 357 76 q 445 93 401 76 q 518 129 489 110 l 518 581 q 376 621 456 621 q 245 547 290 621 q 200 342 200 472 q 239 148 200 219 q 357 76 278 76 z "},"ð":{"ha":756,"x_min":50,"x_max":708,"o":"m 378 -14 q 131 84 211 -14 q 50 338 50 182 q 130 597 50 497 q 378 696 210 696 q 460 683 421 696 q 528 647 499 671 q 436 825 497 739 l 256 721 l 222 779 l 394 879 q 261 1010 338 943 l 297 1057 q 481 928 400 1004 l 658 1031 l 693 972 l 528 876 q 665 628 621 765 q 708 361 708 490 q 630 90 708 193 q 378 -14 551 -14 m 382 61 q 522 136 485 61 q 558 343 558 211 q 519 547 558 472 q 374 621 479 621 q 239 545 276 621 q 201 343 201 469 q 241 138 201 215 q 382 61 281 61 z "},"ď":{"ha":838,"x_min":51,"x_max":858,"o":"m 776 719 l 731 1021 l 776 1021 l 858 994 l 815 719 l 776 719 m 293 -14 q 160 34 215 -14 q 78 162 106 82 q 51 338 51 242 q 133 601 51 506 q 361 696 215 696 q 433 689 397 696 q 493 674 468 682 q 519 663 518 665 l 519 901 l 400 915 l 400 958 l 613 1011 l 657 1011 l 657 92 l 776 63 l 776 17 q 626 -6 700 -6 q 561 14 592 -6 q 524 65 531 33 q 415 6 471 26 q 293 -14 360 -14 m 360 76 q 447 93 404 76 q 519 129 490 110 l 519 581 q 378 621 458 621 q 247 547 292 621 q 203 342 203 472 q 242 148 203 219 q 360 76 281 76 z "},"đ":{"ha":797,"x_min":51,"x_max":776,"o":"m 776 63 l 776 17 q 626 -6 700 -6 q 561 14 592 -6 q 524 65 531 33 q 415 6 471 26 q 293 -14 360 -14 q 160 34 215 -14 q 78 162 106 82 q 51 338 51 242 q 133 601 51 506 q 361 696 215 696 q 431 688 396 696 q 492 671 467 681 q 519 658 518 661 l 519 803 l 314 803 l 314 872 l 519 872 l 519 922 l 400 947 l 400 989 l 613 1011 l 657 1011 l 657 872 l 746 872 l 746 803 l 657 803 l 657 92 l 776 63 m 519 585 q 453 610 492 600 q 379 621 414 621 q 245 547 290 621 q 200 342 200 474 q 240 147 200 218 q 360 76 279 76 q 448 92 404 76 q 519 125 492 107 l 519 585 z "},"ḍ":{"ha":789,"x_min":50,"x_max":775,"o":"m 50 0 m 522 65 q 414 6 469 26 q 292 -14 358 -14 q 159 34 214 -14 q 77 162 104 82 q 50 338 50 242 q 132 601 50 506 q 360 696 214 696 q 431 689 396 696 q 492 674 467 682 q 518 663 517 665 l 518 901 l 399 915 l 399 958 l 611 1011 l 656 1011 l 656 92 l 775 63 l 775 17 q 625 -6 699 -6 q 560 14 590 -6 q 522 65 529 33 m 357 76 q 445 93 401 76 q 518 129 489 110 l 518 581 q 376 621 456 621 q 245 547 290 621 q 200 342 200 472 q 239 148 200 219 q 357 76 278 76 m 489 -151 q 462 -215 489 -189 q 397 -240 435 -240 q 331 -215 358 -240 q 303 -151 303 -189 q 331 -86 303 -114 q 397 -58 360 -58 q 461 -86 433 -58 q 489 -151 489 -114 z "},"ǳ":{"ha":1436,"x_min":50,"x_max":1389,"o":"m 50 0 m 522 65 q 414 6 469 26 q 292 -14 358 -14 q 159 34 214 -14 q 77 162 104 82 q 50 338 50 242 q 132 601 50 506 q 360 696 214 696 q 431 689 396 696 q 492 674 467 682 q 518 663 517 665 l 518 901 l 399 915 l 399 958 l 611 1011 l 656 1011 l 656 92 l 775 63 l 775 17 q 625 -6 699 -6 q 560 14 590 -6 q 522 65 529 33 m 357 76 q 445 93 401 76 q 518 129 489 110 l 518 581 q 376 621 456 621 q 245 547 290 621 q 200 342 200 472 q 239 148 200 219 q 357 76 278 76 m 1213 600 l 954 600 l 928 489 l 872 489 l 853 682 l 1364 682 l 1389 631 l 1008 79 l 1282 79 l 1326 194 l 1382 194 l 1368 0 l 863 0 l 838 53 l 1213 600 z "},"ǆ":{"ha":1436,"x_min":50,"x_max":1389,"o":"m 50 0 m 522 65 q 414 6 469 26 q 292 -14 358 -14 q 159 34 214 -14 q 77 162 104 82 q 50 338 50 242 q 132 601 50 506 q 360 696 214 696 q 431 689 396 696 q 492 674 467 682 q 518 663 517 665 l 518 901 l 399 915 l 399 958 l 611 1011 l 656 1011 l 656 92 l 775 63 l 775 17 q 625 -6 699 -6 q 560 14 590 -6 q 522 65 529 33 m 357 76 q 445 93 401 76 q 518 129 489 110 l 518 581 q 376 621 456 621 q 245 547 290 621 q 200 342 200 472 q 239 148 200 219 q 357 76 278 76 m 1213 600 l 954 600 l 928 489 l 872 489 l 853 682 l 1364 682 l 1389 631 l 1008 79 l 1282 79 l 1326 194 l 1382 194 l 1368 0 l 863 0 l 838 53 l 1213 600 m 960 1000 l 1114 881 l 1267 1000 l 1301 972 l 1161 778 l 1067 778 l 924 972 l 960 1000 z "},"e":{"ha":658,"x_min":47,"x_max":618,"o":"m 367 -15 q 125 77 203 -15 q 47 338 47 169 q 127 606 47 517 q 351 696 207 696 q 553 632 489 696 q 618 432 618 568 q 614 356 618 396 l 197 356 l 197 315 q 249 131 197 193 q 397 68 301 68 q 600 100 486 68 l 610 51 q 497 1 554 17 q 367 -15 440 -15 m 474 428 l 474 458 q 447 578 474 539 q 360 618 421 618 q 241 570 276 618 q 200 413 206 522 l 474 428 z "},"é":{"ha":658,"x_min":47,"x_max":618,"o":"m 238 775 l 211 808 l 425 992 l 540 947 l 540 921 l 238 775 m 367 -15 q 125 77 203 -15 q 47 338 47 169 q 127 606 47 517 q 351 696 207 696 q 553 632 489 696 q 618 432 618 568 q 614 356 618 396 l 197 356 l 197 315 q 249 131 197 193 q 397 68 301 68 q 600 100 486 68 l 610 51 q 497 1 554 17 q 367 -15 440 -15 m 474 428 l 474 458 q 447 578 474 539 q 360 618 421 618 q 241 570 276 618 q 200 413 206 522 l 474 428 z "},"ĕ":{"ha":658,"x_min":47,"x_max":618,"o":"m 47 0 m 367 -15 q 125 77 203 -15 q 47 338 47 169 q 127 606 47 517 q 351 696 207 696 q 553 632 489 696 q 618 432 618 568 q 614 356 618 396 l 197 356 l 197 315 q 249 131 197 193 q 397 68 301 68 q 600 100 486 68 l 610 51 q 497 1 554 17 q 367 -15 440 -15 m 474 428 l 474 458 q 447 578 474 539 q 360 618 421 618 q 241 570 276 618 q 200 413 206 522 l 474 428 m 329 801 q 202 847 238 801 q 167 968 167 893 l 224 971 q 328 886 224 886 q 439 971 439 886 l 496 968 q 329 801 496 801 z "},"ě":{"ha":658,"x_min":47,"x_max":618,"o":"m 301 778 l 160 972 l 196 1000 l 349 881 l 503 1000 l 538 972 l 396 778 l 301 778 m 367 -15 q 125 77 203 -15 q 47 338 47 169 q 127 606 47 517 q 351 696 207 696 q 553 632 489 696 q 618 432 618 568 q 614 356 618 396 l 197 356 l 197 315 q 249 131 197 193 q 397 68 301 68 q 600 100 486 68 l 610 51 q 497 1 554 17 q 367 -15 440 -15 m 474 428 l 474 458 q 447 578 474 539 q 360 618 421 618 q 241 570 276 618 q 200 413 206 522 l 474 428 z "},"ê":{"ha":658,"x_min":47,"x_max":618,"o":"m 196 769 l 160 800 l 301 993 l 394 993 l 538 800 l 503 769 l 349 893 l 196 769 m 367 -15 q 125 77 203 -15 q 47 338 47 169 q 127 606 47 517 q 351 696 207 696 q 553 632 489 696 q 618 432 618 568 q 614 356 618 396 l 197 356 l 197 315 q 249 131 197 193 q 397 68 301 68 q 600 100 486 68 l 610 51 q 497 1 554 17 q 367 -15 440 -15 m 474 428 l 474 458 q 447 578 474 539 q 360 618 421 618 q 241 570 276 618 q 200 413 206 522 l 474 428 z "},"ế":{"ha":658,"x_min":47,"x_max":769,"o":"m 536 849 l 501 871 l 635 1118 l 758 1118 l 769 1093 l 536 849 m 485 769 l 331 893 l 178 769 l 142 800 l 283 993 l 376 993 l 519 800 l 485 769 m 367 -15 q 125 77 203 -15 q 47 338 47 169 q 127 606 47 517 q 351 696 207 696 q 553 632 489 696 q 618 432 618 568 q 614 356 618 396 l 197 356 l 197 315 q 249 131 197 193 q 397 68 301 68 q 600 100 486 68 l 610 51 q 497 1 554 17 q 367 -15 440 -15 m 474 428 l 474 458 q 447 578 474 539 q 360 618 421 618 q 241 570 276 618 q 200 413 206 522 l 474 428 z "},"ệ":{"ha":658,"x_min":47,"x_max":618,"o":"m 47 0 m 367 -15 q 125 77 203 -15 q 47 338 47 169 q 127 606 47 517 q 351 696 207 696 q 553 632 489 696 q 618 432 618 568 q 614 356 618 396 l 197 356 l 197 315 q 249 131 197 193 q 397 68 301 68 q 600 100 486 68 l 610 51 q 497 1 554 17 q 367 -15 440 -15 m 474 428 l 474 458 q 447 578 474 539 q 360 618 421 618 q 241 570 276 618 q 200 413 206 522 l 474 428 m 424 -151 q 397 -215 424 -189 q 332 -240 369 -240 q 265 -215 293 -240 q 238 -151 238 -189 q 266 -86 238 -114 q 332 -58 294 -58 q 396 -86 368 -58 q 424 -151 424 -114 m 485 769 l 331 893 l 178 769 l 142 800 l 283 993 l 376 993 l 519 800 l 485 769 z "},"ề":{"ha":658,"x_min":47,"x_max":618,"o":"m 572 849 l 338 1093 l 349 1118 l 472 1118 l 606 871 l 572 849 m 471 769 l 317 893 l 164 769 l 128 800 l 269 993 l 363 993 l 506 800 l 471 769 m 367 -15 q 125 77 203 -15 q 47 338 47 169 q 127 606 47 517 q 351 696 207 696 q 553 632 489 696 q 618 432 618 568 q 614 356 618 396 l 197 356 l 197 315 q 249 131 197 193 q 397 68 301 68 q 600 100 486 68 l 610 51 q 497 1 554 17 q 367 -15 440 -15 m 474 428 l 474 458 q 447 578 474 539 q 360 618 421 618 q 241 570 276 618 q 200 413 206 522 l 474 428 z "},"ể":{"ha":658,"x_min":47,"x_max":618,"o":"m 47 0 m 367 -15 q 125 77 203 -15 q 47 338 47 169 q 127 606 47 517 q 351 696 207 696 q 553 632 489 696 q 618 432 618 568 q 614 356 618 396 l 197 356 l 197 315 q 249 131 197 193 q 397 68 301 68 q 600 100 486 68 l 610 51 q 497 1 554 17 q 367 -15 440 -15 m 474 428 l 474 458 q 447 578 474 539 q 360 618 421 618 q 241 570 276 618 q 200 413 206 522 l 474 428 m 485 769 l 331 893 l 178 769 l 142 800 l 283 993 l 376 993 l 519 800 l 485 769 m 618 1047 q 526 975 618 990 l 518 942 l 458 942 l 453 999 q 535 1042 535 999 q 522 1068 535 1058 q 485 1078 508 1078 q 454 1075 476 1078 l 443 1033 l 397 1033 l 389 1107 q 493 1117 442 1117 q 585 1099 553 1117 q 618 1047 618 1081 z "},"ễ":{"ha":658,"x_min":47,"x_max":618,"o":"m 47 0 m 367 -15 q 125 77 203 -15 q 47 338 47 169 q 127 606 47 517 q 351 696 207 696 q 553 632 489 696 q 618 432 618 568 q 614 356 618 396 l 197 356 l 197 315 q 249 131 197 193 q 397 68 301 68 q 600 100 486 68 l 610 51 q 497 1 554 17 q 367 -15 440 -15 m 474 428 l 474 458 q 447 578 474 539 q 360 618 421 618 q 241 570 276 618 q 200 413 206 522 l 474 428 m 494 732 l 328 843 l 167 732 l 140 760 l 283 943 l 376 943 l 521 760 l 494 732 m 547 1088 q 496 988 519 1022 q 440 954 472 954 q 391 963 422 954 q 329 982 360 971 q 229 1008 256 1008 q 201 997 215 1008 q 179 975 188 986 q 168 960 171 964 l 119 979 q 170 1078 144 1043 q 228 1114 196 1114 q 276 1106 246 1114 q 336 1086 306 1097 q 440 1060 413 1060 q 467 1070 454 1060 q 489 1092 481 1081 q 499 1107 497 1103 l 547 1088 z "},"ȅ":{"ha":658,"x_min":40,"x_max":618,"o":"m 40 0 m 367 -15 q 125 77 203 -15 q 47 338 47 169 q 127 606 47 517 q 351 696 207 696 q 553 632 489 696 q 618 432 618 568 q 614 356 618 396 l 197 356 l 197 315 q 249 131 197 193 q 397 68 301 68 q 600 100 486 68 l 610 51 q 497 1 554 17 q 367 -15 440 -15 m 474 428 l 474 458 q 447 578 474 539 q 360 618 421 618 q 241 570 276 618 q 200 413 206 522 l 474 428 m 246 758 l 40 975 l 40 1000 l 151 1000 l 278 779 l 246 758 m 469 758 l 264 975 l 264 1000 l 375 1000 l 501 779 l 469 758 z "},"ë":{"ha":658,"x_min":47,"x_max":618,"o":"m 204 804 q 142 828 169 804 q 115 888 115 853 q 142 949 115 924 q 204 975 169 975 q 265 949 239 975 q 290 888 290 924 q 265 828 290 853 q 204 804 239 804 m 490 804 q 428 828 454 804 q 401 888 401 853 q 428 949 401 924 q 490 975 454 975 q 550 949 524 975 q 576 888 576 924 q 551 828 576 853 q 490 804 525 804 m 367 -15 q 125 77 203 -15 q 47 338 47 169 q 127 606 47 517 q 351 696 207 696 q 553 632 489 696 q 618 432 618 568 q 614 356 618 396 l 197 356 l 197 315 q 249 131 197 193 q 397 68 301 68 q 600 100 486 68 l 610 51 q 497 1 554 17 q 367 -15 440 -15 m 474 428 l 474 458 q 447 578 474 539 q 360 618 421 618 q 241 570 276 618 q 200 413 206 522 l 474 428 z "},"ė":{"ha":658,"x_min":47,"x_max":618,"o":"m 350 800 q 283 826 311 800 q 256 889 256 851 q 284 954 256 926 q 350 982 313 982 q 414 954 386 982 q 442 889 442 926 q 415 826 442 851 q 350 800 388 800 m 367 -15 q 125 77 203 -15 q 47 338 47 169 q 127 606 47 517 q 351 696 207 696 q 553 632 489 696 q 618 432 618 568 q 614 356 618 396 l 197 356 l 197 315 q 249 131 197 193 q 397 68 301 68 q 600 100 486 68 l 610 51 q 497 1 554 17 q 367 -15 440 -15 m 474 428 l 474 458 q 447 578 474 539 q 360 618 421 618 q 241 570 276 618 q 200 413 206 522 l 474 428 z "},"ẹ":{"ha":658,"x_min":47,"x_max":618,"o":"m 47 0 m 367 -15 q 125 77 203 -15 q 47 338 47 169 q 127 606 47 517 q 351 696 207 696 q 553 632 489 696 q 618 432 618 568 q 614 356 618 396 l 197 356 l 197 315 q 249 131 197 193 q 397 68 301 68 q 600 100 486 68 l 610 51 q 497 1 554 17 q 367 -15 440 -15 m 474 428 l 474 458 q 447 578 474 539 q 360 618 421 618 q 241 570 276 618 q 200 413 206 522 l 474 428 m 424 -151 q 397 -215 424 -189 q 332 -240 369 -240 q 265 -215 293 -240 q 238 -151 238 -189 q 266 -86 238 -114 q 332 -58 294 -58 q 396 -86 368 -58 q 424 -151 424 -114 z "},"è":{"ha":658,"x_min":47,"x_max":618,"o":"m 460 775 l 153 921 l 154 947 l 269 992 l 483 808 l 460 775 m 367 -15 q 125 77 203 -15 q 47 338 47 169 q 127 606 47 517 q 351 696 207 696 q 553 632 489 696 q 618 432 618 568 q 614 356 618 396 l 197 356 l 197 315 q 249 131 197 193 q 397 68 301 68 q 600 100 486 68 l 610 51 q 497 1 554 17 q 367 -15 440 -15 m 474 428 l 474 458 q 447 578 474 539 q 360 618 421 618 q 241 570 276 618 q 200 413 206 522 l 474 428 z "},"ẻ":{"ha":658,"x_min":47,"x_max":618,"o":"m 47 0 m 367 -15 q 125 77 203 -15 q 47 338 47 169 q 127 606 47 517 q 351 696 207 696 q 553 632 489 696 q 618 432 618 568 q 614 356 618 396 l 197 356 l 197 315 q 249 131 197 193 q 397 68 301 68 q 600 100 486 68 l 610 51 q 497 1 554 17 q 367 -15 440 -15 m 474 428 l 474 458 q 447 578 474 539 q 360 618 421 618 q 241 570 276 618 q 200 413 206 522 l 474 428 m 471 874 q 379 801 471 817 l 371 768 l 311 768 l 306 825 q 388 868 388 825 q 374 894 388 885 q 338 904 361 904 q 307 901 329 904 l 296 860 l 250 860 l 242 933 q 346 943 294 943 q 438 925 406 943 q 471 874 471 907 z "},"ȇ":{"ha":658,"x_min":47,"x_max":618,"o":"m 47 0 m 367 -15 q 125 77 203 -15 q 47 338 47 169 q 127 606 47 517 q 351 696 207 696 q 553 632 489 696 q 618 432 618 568 q 614 356 618 396 l 197 356 l 197 315 q 249 131 197 193 q 397 68 301 68 q 600 100 486 68 l 610 51 q 497 1 554 17 q 367 -15 440 -15 m 474 428 l 474 458 q 447 578 474 539 q 360 618 421 618 q 241 570 276 618 q 200 413 206 522 l 474 428 m 332 985 q 460 939 424 985 q 496 818 496 893 l 438 815 q 333 900 438 900 q 222 815 222 900 l 167 818 q 332 985 167 985 z "},"ē":{"ha":658,"x_min":47,"x_max":618,"o":"m 188 844 l 188 928 l 500 928 l 500 844 l 188 844 m 367 -15 q 125 77 203 -15 q 47 338 47 169 q 127 606 47 517 q 351 696 207 696 q 553 632 489 696 q 618 432 618 568 q 614 356 618 396 l 197 356 l 197 315 q 249 131 197 193 q 397 68 301 68 q 600 100 486 68 l 610 51 q 497 1 554 17 q 367 -15 440 -15 m 474 428 l 474 458 q 447 578 474 539 q 360 618 421 618 q 241 570 276 618 q 200 413 206 522 l 474 428 z "},"ę":{"ha":658,"x_min":47,"x_max":618,"o":"m 471 -326 q 369 -292 403 -326 q 336 -208 336 -258 q 367 -110 336 -162 q 458 -7 397 -57 q 367 -15 415 -15 q 125 77 203 -15 q 47 338 47 169 q 127 606 47 517 q 351 696 207 696 q 553 632 489 696 q 618 432 618 568 q 614 356 618 396 l 197 356 l 197 315 q 249 131 197 193 q 397 68 301 68 q 600 100 486 68 l 610 51 q 485 -50 532 8 q 438 -182 438 -108 q 456 -239 438 -219 q 508 -258 475 -258 q 582 -228 547 -258 l 607 -251 q 559 -301 592 -275 q 471 -326 526 -326 m 474 428 l 474 458 q 447 578 474 539 q 360 618 421 618 q 241 570 276 618 q 200 413 206 522 l 474 428 z "},"ẽ":{"ha":658,"x_min":47,"x_max":618,"o":"m 449 808 q 399 817 431 808 q 338 836 368 825 q 238 863 264 863 q 210 852 224 863 q 188 831 196 842 q 176 815 179 819 l 128 835 q 179 935 154 900 q 236 969 204 969 q 284 961 254 969 q 344 942 314 953 q 449 915 421 915 q 476 926 463 915 q 497 947 489 936 q 507 963 506 958 l 556 943 q 504 843 528 878 q 449 808 481 808 m 367 -15 q 125 77 203 -15 q 47 338 47 169 q 127 606 47 517 q 351 696 207 696 q 553 632 489 696 q 618 432 618 568 q 614 356 618 396 l 197 356 l 197 315 q 249 131 197 193 q 397 68 301 68 q 600 100 486 68 l 610 51 q 497 1 554 17 q 367 -15 440 -15 m 474 428 l 474 458 q 447 578 474 539 q 360 618 421 618 q 241 570 276 618 q 200 413 206 522 l 474 428 z "},"ə":{"ha":658,"x_min":40,"x_max":611,"o":"m 292 697 q 533 605 456 697 q 611 344 611 513 q 531 76 611 165 q 307 -14 451 -14 q 105 50 169 -14 q 40 250 40 114 q 44 326 40 288 l 461 326 l 461 367 q 409 551 461 489 q 261 614 357 614 q 58 582 172 614 l 49 631 q 161 681 104 665 q 292 697 218 697 m 185 254 l 185 224 q 211 104 185 144 q 299 64 238 64 q 417 112 382 64 q 458 269 453 160 l 185 254 z "},"f":{"ha":508,"x_min":43,"x_max":585,"o":"m 43 49 l 161 81 l 161 604 l 50 604 l 50 651 l 161 688 q 239 925 161 839 q 447 1011 317 1011 q 524 1003 482 1011 q 585 983 567 994 l 564 811 l 501 811 l 482 907 q 418 921 453 921 q 325 874 350 921 q 300 732 300 828 l 300 682 l 508 682 l 508 592 l 300 604 l 300 82 l 461 50 l 461 0 l 43 0 l 43 49 z "},"g":{"ha":711,"x_min":42,"x_max":690,"o":"m 299 -246 q 94 -209 147 -246 q 42 -111 42 -172 q 128 35 42 -32 q 92 66 104 44 q 81 114 81 88 q 104 181 81 146 q 169 258 128 215 q 79 461 79 318 q 108 578 79 525 q 197 665 138 632 q 339 697 256 697 q 496 660 425 697 l 690 713 l 690 608 l 542 608 q 584 542 569 582 q 599 461 599 501 q 533 293 599 360 q 328 226 468 226 q 266 231 296 226 q 231 238 236 235 q 200 169 200 192 q 211 139 200 153 q 243 125 222 125 l 456 125 q 616 94 561 125 q 671 -19 671 64 q 631 -128 671 -76 q 506 -213 590 -181 q 299 -246 422 -246 m 342 299 q 435 340 408 299 q 463 461 463 382 q 338 625 463 625 q 245 582 272 625 q 218 461 218 539 q 247 340 218 382 q 342 299 275 299 m 307 -169 q 490 -135 432 -169 q 549 -39 549 -100 q 527 13 549 0 q 456 25 506 25 l 208 25 q 165 -81 165 -28 q 196 -149 165 -128 q 307 -169 226 -169 z "},"ǵ":{"ha":711,"x_min":42,"x_max":690,"o":"m 42 0 m 299 -246 q 94 -209 147 -246 q 42 -111 42 -172 q 128 35 42 -32 q 92 66 104 44 q 81 114 81 88 q 104 181 81 146 q 169 258 128 215 q 79 461 79 318 q 108 578 79 525 q 197 665 138 632 q 339 697 256 697 q 496 660 425 697 l 690 713 l 690 608 l 542 608 q 584 542 569 582 q 599 461 599 501 q 533 293 599 360 q 328 226 468 226 q 266 231 296 226 q 231 238 236 235 q 200 169 200 192 q 211 139 200 153 q 243 125 222 125 l 456 125 q 616 94 561 125 q 671 -19 671 64 q 631 -128 671 -76 q 506 -213 590 -181 q 299 -246 422 -246 m 342 299 q 435 340 408 299 q 463 461 463 382 q 338 625 463 625 q 245 582 272 625 q 218 461 218 539 q 247 340 218 382 q 342 299 275 299 m 307 -169 q 490 -135 432 -169 q 549 -39 549 -100 q 527 13 549 0 q 456 25 506 25 l 208 25 q 165 -81 165 -28 q 196 -149 165 -128 q 307 -169 226 -169 m 250 775 l 222 808 l 438 992 l 553 947 l 553 921 l 250 775 z "},"ğ":{"ha":735,"x_min":49,"x_max":700,"o":"m 351 801 q 224 847 260 801 q 189 968 189 893 l 246 971 q 350 886 246 886 q 461 971 461 886 l 518 968 q 351 801 518 801 m 306 -246 q 101 -209 154 -246 q 49 -111 49 -172 q 138 35 49 -32 q 102 66 114 44 q 90 114 90 88 q 114 181 90 146 q 179 258 138 215 q 89 461 89 318 q 118 578 89 525 q 206 665 147 632 q 349 697 265 697 q 506 660 435 697 l 700 713 l 700 608 l 551 608 q 592 542 578 582 q 607 461 607 501 q 542 292 607 358 q 338 226 478 226 q 275 231 306 226 q 240 238 244 235 q 210 169 210 192 q 221 139 210 153 q 253 125 232 125 l 468 125 q 630 94 575 125 q 685 -19 685 64 q 643 -128 685 -76 q 516 -212 601 -179 q 306 -246 431 -246 m 351 299 q 445 340 418 299 q 472 461 472 382 q 442 581 472 538 q 347 625 413 625 q 254 582 282 625 q 226 461 226 539 q 256 341 226 383 q 351 299 285 299 m 315 -169 q 501 -134 440 -169 q 561 -39 561 -99 q 540 13 561 0 q 468 25 518 25 l 218 25 q 172 -81 172 -32 q 203 -149 172 -128 q 315 -169 235 -169 z "},"ǧ":{"ha":711,"x_min":42,"x_max":690,"o":"m 42 0 m 299 -246 q 94 -209 147 -246 q 42 -111 42 -172 q 128 35 42 -32 q 92 66 104 44 q 81 114 81 88 q 104 181 81 146 q 169 258 128 215 q 79 461 79 318 q 108 578 79 525 q 197 665 138 632 q 339 697 256 697 q 496 660 425 697 l 690 713 l 690 608 l 542 608 q 584 542 569 582 q 599 461 599 501 q 533 293 599 360 q 328 226 468 226 q 266 231 296 226 q 231 238 236 235 q 200 169 200 192 q 211 139 200 153 q 243 125 222 125 l 456 125 q 616 94 561 125 q 671 -19 671 64 q 631 -128 671 -76 q 506 -213 590 -181 q 299 -246 422 -246 m 342 299 q 435 340 408 299 q 463 461 463 382 q 338 625 463 625 q 245 582 272 625 q 218 461 218 539 q 247 340 218 382 q 342 299 275 299 m 307 -169 q 490 -135 432 -169 q 549 -39 549 -100 q 527 13 549 0 q 456 25 506 25 l 208 25 q 165 -81 165 -28 q 196 -149 165 -128 q 307 -169 226 -169 m 203 1000 l 357 881 l 510 1000 l 544 972 l 404 778 l 310 778 l 167 972 l 203 1000 z "},"ĝ":{"ha":711,"x_min":42,"x_max":690,"o":"m 42 0 m 299 -246 q 94 -209 147 -246 q 42 -111 42 -172 q 128 35 42 -32 q 92 66 104 44 q 81 114 81 88 q 104 181 81 146 q 169 258 128 215 q 79 461 79 318 q 108 578 79 525 q 197 665 138 632 q 339 697 256 697 q 496 660 425 697 l 690 713 l 690 608 l 542 608 q 584 542 569 582 q 599 461 599 501 q 533 293 599 360 q 328 226 468 226 q 266 231 296 226 q 231 238 236 235 q 200 169 200 192 q 211 139 200 153 q 243 125 222 125 l 456 125 q 616 94 561 125 q 671 -19 671 64 q 631 -128 671 -76 q 506 -213 590 -181 q 299 -246 422 -246 m 342 299 q 435 340 408 299 q 463 461 463 382 q 338 625 463 625 q 245 582 272 625 q 218 461 218 539 q 247 340 218 382 q 342 299 275 299 m 307 -169 q 490 -135 432 -169 q 549 -39 549 -100 q 527 13 549 0 q 456 25 506 25 l 208 25 q 165 -81 165 -28 q 196 -149 165 -128 q 307 -169 226 -169 m 510 769 l 356 893 l 203 769 l 167 800 l 308 993 l 401 993 l 544 800 l 510 769 z "},"ģ":{"ha":735,"x_min":49,"x_max":700,"o":"m 301 765 l 279 789 l 375 1042 l 425 1039 l 408 789 l 301 765 m 306 -246 q 101 -209 154 -246 q 49 -111 49 -172 q 138 35 49 -32 q 102 66 114 44 q 90 114 90 88 q 114 181 90 146 q 179 258 138 215 q 89 461 89 318 q 118 578 89 525 q 206 665 147 632 q 349 697 265 697 q 506 660 435 697 l 700 713 l 700 608 l 551 608 q 592 542 578 582 q 607 461 607 501 q 542 292 607 358 q 338 226 478 226 q 275 231 306 226 q 240 238 244 235 q 210 169 210 192 q 221 139 210 153 q 253 125 232 125 l 468 125 q 630 94 575 125 q 685 -19 685 64 q 643 -128 685 -76 q 516 -212 601 -179 q 306 -246 431 -246 m 351 299 q 445 340 418 299 q 472 461 472 382 q 442 581 472 538 q 347 625 413 625 q 254 582 282 625 q 226 461 226 539 q 256 341 226 383 q 351 299 285 299 m 315 -169 q 501 -134 440 -169 q 561 -39 561 -99 q 540 13 561 0 q 468 25 518 25 l 218 25 q 172 -81 172 -32 q 203 -149 172 -128 q 315 -169 235 -169 z "},"ġ":{"ha":711,"x_min":42,"x_max":690,"o":"m 42 0 m 299 -246 q 94 -209 147 -246 q 42 -111 42 -172 q 128 35 42 -32 q 92 66 104 44 q 81 114 81 88 q 104 181 81 146 q 169 258 128 215 q 79 461 79 318 q 108 578 79 525 q 197 665 138 632 q 339 697 256 697 q 496 660 425 697 l 690 713 l 690 608 l 542 608 q 584 542 569 582 q 599 461 599 501 q 533 293 599 360 q 328 226 468 226 q 266 231 296 226 q 231 238 236 235 q 200 169 200 192 q 211 139 200 153 q 243 125 222 125 l 456 125 q 616 94 561 125 q 671 -19 671 64 q 631 -128 671 -76 q 506 -213 590 -181 q 299 -246 422 -246 m 342 299 q 435 340 408 299 q 463 461 463 382 q 338 625 463 625 q 245 582 272 625 q 218 461 218 539 q 247 340 218 382 q 342 299 275 299 m 307 -169 q 490 -135 432 -169 q 549 -39 549 -100 q 527 13 549 0 q 456 25 506 25 l 208 25 q 165 -81 165 -28 q 196 -149 165 -128 q 307 -169 226 -169 m 449 889 q 422 826 449 851 q 357 800 394 800 q 290 826 318 800 q 263 889 263 851 q 291 954 263 926 q 357 982 319 982 q 421 954 393 982 q 449 889 449 926 z "},"h":{"ha":860,"x_min":29,"x_max":833,"o":"m 471 0 l 471 50 l 576 81 l 576 515 q 566 570 576 551 q 529 596 556 589 q 451 603 503 603 q 288 582 357 603 l 288 81 l 393 50 l 393 0 l 29 0 l 29 53 l 149 81 l 149 901 l 29 915 l 29 958 l 244 1011 l 288 1011 l 288 640 q 406 678 338 661 q 533 696 474 696 q 663 660 613 696 q 714 546 714 624 l 714 81 l 833 50 l 833 0 l 471 0 z "},"ħ":{"ha":860,"x_min":29,"x_max":833,"o":"m 833 50 l 833 0 l 471 0 l 471 50 l 576 81 l 576 515 q 566 570 576 551 q 529 596 556 589 q 451 603 503 603 q 288 582 357 603 l 288 81 l 393 50 l 393 0 l 29 0 l 29 53 l 149 81 l 149 803 l 29 803 l 29 872 l 149 872 l 149 922 l 29 947 l 29 989 l 244 1011 l 288 1011 l 288 872 l 463 872 l 463 803 l 288 803 l 288 640 q 406 678 338 661 q 533 696 474 696 q 663 660 613 696 q 714 546 714 624 l 714 81 l 833 50 z "},"ĥ":{"ha":860,"x_min":28,"x_max":833,"o":"m 28 0 m 471 0 l 471 50 l 576 81 l 576 515 q 566 570 576 551 q 529 596 556 589 q 451 603 503 603 q 288 582 357 603 l 288 81 l 393 50 l 393 0 l 29 0 l 29 53 l 149 81 l 149 901 l 29 915 l 29 958 l 244 1011 l 288 1011 l 288 640 q 406 678 338 661 q 533 696 474 696 q 663 660 613 696 q 714 546 714 624 l 714 81 l 833 50 l 833 0 l 471 0 m 382 1028 l 215 1139 l 54 1028 l 28 1056 l 171 1239 l 264 1239 l 408 1056 l 382 1028 z "},"ḥ":{"ha":860,"x_min":29,"x_max":833,"o":"m 29 0 m 471 0 l 471 50 l 576 81 l 576 515 q 566 570 576 551 q 529 596 556 589 q 451 603 503 603 q 288 582 357 603 l 288 81 l 393 50 l 393 0 l 29 0 l 29 53 l 149 81 l 149 901 l 29 915 l 29 958 l 244 1011 l 288 1011 l 288 640 q 406 678 338 661 q 533 696 474 696 q 663 660 613 696 q 714 546 714 624 l 714 81 l 833 50 l 833 0 l 471 0 m 524 -151 q 497 -215 524 -189 q 432 -240 469 -240 q 365 -215 393 -240 q 338 -151 338 -189 q 366 -86 338 -114 q 432 -58 394 -58 q 496 -86 468 -58 q 524 -151 524 -114 z "},"i":{"ha":440,"x_min":39,"x_max":415,"o":"m 226 800 q 160 826 188 800 q 132 889 132 851 q 160 954 132 926 q 226 982 189 982 q 291 954 263 982 q 319 889 319 926 q 292 826 319 851 q 226 800 264 800 m 39 0 l 39 53 l 158 81 l 158 586 l 39 600 l 39 643 l 253 696 l 296 696 l 296 81 l 415 53 l 415 0 l 39 0 z "},"ı":{"ha":443,"x_min":39,"x_max":415,"o":"m 415 53 l 415 0 l 39 0 l 39 53 l 158 81 l 158 586 l 39 600 l 39 643 l 253 696 l 296 696 l 296 81 l 415 53 z "},"í":{"ha":443,"x_min":39,"x_max":415,"o":"m 78 775 l 51 808 l 267 992 l 382 947 l 382 921 l 78 775 m 415 53 l 415 0 l 39 0 l 39 53 l 158 81 l 158 586 l 39 600 l 39 643 l 253 696 l 296 696 l 296 81 l 415 53 z "},"ĭ":{"ha":443,"x_min":39,"x_max":415,"o":"m 39 0 m 415 53 l 415 0 l 39 0 l 39 53 l 158 81 l 158 586 l 39 600 l 39 643 l 253 696 l 296 696 l 296 81 l 415 53 m 219 801 q 92 847 128 801 q 57 968 57 893 l 114 971 q 218 886 114 886 q 329 971 329 886 l 386 968 q 219 801 386 801 z "},"ǐ":{"ha":443,"x_min":32,"x_max":415,"o":"m 32 0 m 415 53 l 415 0 l 39 0 l 39 53 l 158 81 l 158 586 l 39 600 l 39 643 l 253 696 l 296 696 l 296 81 l 415 53 m 68 1000 l 222 881 l 375 1000 l 410 972 l 269 778 l 175 778 l 32 972 l 68 1000 z "},"î":{"ha":443,"x_min":6,"x_max":415,"o":"m 349 769 l 194 893 l 42 769 l 6 800 l 147 993 l 242 993 l 383 800 l 349 769 m 415 53 l 415 0 l 39 0 l 39 53 l 158 81 l 158 586 l 39 600 l 39 643 l 253 696 l 296 696 l 296 81 l 415 53 z "},"ȉ":{"ha":443,"x_min":-69,"x_max":415,"o":"m 0 0 m 415 53 l 415 0 l 39 0 l 39 53 l 158 81 l 158 586 l 39 600 l 39 643 l 253 696 l 296 696 l 296 81 l 415 53 m 136 758 l -69 975 l -69 1000 l 42 1000 l 168 779 l 136 758 m 360 758 l 154 975 l 154 1000 l 265 1000 l 392 779 l 360 758 z "},"ï":{"ha":443,"x_min":-26,"x_max":435,"o":"m 149 888 q 123 828 149 853 q 61 804 97 804 q 0 828 26 804 q -26 888 -26 853 q 0 949 -26 924 q 61 975 26 975 q 123 949 97 975 q 149 888 149 924 m 435 888 q 408 828 435 853 q 347 804 382 804 q 285 828 311 804 q 260 888 260 853 q 285 949 260 924 q 347 975 311 975 q 408 949 382 975 q 435 888 435 924 m 415 53 l 415 0 l 39 0 l 39 53 l 158 81 l 158 586 l 39 600 l 39 643 l 253 696 l 296 696 l 296 81 l 415 53 z "},"ị":{"ha":440,"x_min":39,"x_max":415,"o":"m 39 0 m 226 800 q 160 826 188 800 q 132 889 132 851 q 160 954 132 926 q 226 982 189 982 q 291 954 263 982 q 319 889 319 926 q 292 826 319 851 q 226 800 264 800 m 39 0 l 39 53 l 158 81 l 158 586 l 39 600 l 39 643 l 253 696 l 296 696 l 296 81 l 415 53 l 415 0 l 39 0 m 314 -151 q 287 -215 314 -189 q 222 -240 260 -240 q 156 -215 183 -240 q 128 -151 128 -189 q 156 -86 128 -114 q 222 -58 185 -58 q 286 -86 258 -58 q 314 -151 314 -114 z "},"ì":{"ha":443,"x_min":-4,"x_max":415,"o":"m 301 775 l -4 921 l -3 947 l 113 992 l 325 808 l 301 775 m 415 53 l 415 0 l 39 0 l 39 53 l 158 81 l 158 586 l 39 600 l 39 643 l 253 696 l 296 696 l 296 81 l 415 53 z "},"ỉ":{"ha":443,"x_min":39,"x_max":415,"o":"m 39 0 m 415 53 l 415 0 l 39 0 l 39 53 l 158 81 l 158 586 l 39 600 l 39 643 l 253 696 l 296 696 l 296 81 l 415 53 m 361 874 q 269 801 361 817 l 261 768 l 201 768 l 196 825 q 278 868 278 825 q 265 894 278 885 q 228 904 251 904 q 197 901 219 904 l 186 860 l 140 860 l 132 933 q 236 943 185 943 q 328 925 296 943 q 361 874 361 907 z "},"ȋ":{"ha":443,"x_min":39,"x_max":415,"o":"m 39 0 m 415 53 l 415 0 l 39 0 l 39 53 l 158 81 l 158 586 l 39 600 l 39 643 l 253 696 l 296 696 l 296 81 l 415 53 m 222 985 q 350 939 314 985 q 386 818 386 893 l 328 815 q 224 900 328 900 q 113 815 113 900 l 57 818 q 222 985 57 985 z "},"ĳ":{"ha":868,"x_min":39,"x_max":760,"o":"m 39 0 m 226 800 q 160 826 188 800 q 132 889 132 851 q 160 954 132 926 q 226 982 189 982 q 291 954 263 982 q 319 889 319 926 q 292 826 319 851 q 226 800 264 800 m 39 0 l 39 53 l 158 81 l 158 586 l 39 600 l 39 643 l 253 696 l 296 696 l 296 81 l 415 53 l 415 0 l 39 0 m 760 889 q 733 826 760 851 q 668 800 706 800 q 603 826 631 800 q 576 889 576 851 q 604 954 576 926 q 668 982 632 982 q 733 954 706 982 q 760 889 760 926 m 693 696 l 738 696 l 738 79 q 556 -232 738 -232 q 499 -223 533 -232 q 431 -197 465 -214 l 438 -149 l 501 -149 q 575 -112 551 -149 q 599 -28 599 -75 l 599 586 l 481 600 l 481 643 l 693 696 z "},"ī":{"ha":443,"x_min":28,"x_max":415,"o":"m 28 928 l 340 928 l 340 844 l 28 844 l 28 928 m 415 53 l 415 0 l 39 0 l 39 53 l 158 81 l 158 586 l 39 600 l 39 643 l 253 696 l 296 696 l 296 81 l 415 53 z "},"į":{"ha":443,"x_min":39,"x_max":419,"o":"m 226 800 q 160 826 188 800 q 132 889 132 851 q 160 954 132 926 q 226 982 189 982 q 291 954 263 982 q 319 889 319 926 q 292 826 319 851 q 226 800 264 800 m 283 -326 q 181 -292 214 -326 q 147 -208 147 -258 q 188 -94 147 -150 q 299 0 229 -37 l 39 0 l 39 53 l 158 81 l 158 586 l 39 600 l 39 643 l 253 696 l 296 696 l 296 81 l 415 53 l 415 0 q 290 -73 329 -22 q 250 -182 250 -124 q 268 -239 250 -219 q 319 -258 286 -258 q 394 -228 360 -258 l 419 -251 q 374 -299 410 -272 q 283 -326 339 -326 z "},"ĩ":{"ha":443,"x_min":-17,"x_max":415,"o":"m 411 931 q 361 832 386 867 q 304 797 336 797 q 256 806 286 797 q 194 825 225 814 q 93 851 121 851 q 66 840 79 851 q 44 818 53 829 q 33 803 35 807 l -17 822 q 35 923 10 888 q 92 958 60 958 q 201 929 125 958 q 248 914 213 925 q 304 903 283 903 q 331 913 318 903 q 353 935 344 924 q 363 950 361 946 l 411 931 m 415 53 l 415 0 l 39 0 l 39 53 l 158 81 l 158 586 l 39 600 l 39 643 l 253 696 l 296 696 l 296 81 l 415 53 z "},"j":{"ha":428,"x_min":-10,"x_max":319,"o":"m 319 889 q 292 826 319 851 q 228 800 265 800 q 163 826 190 800 q 136 889 136 851 q 164 954 136 926 q 228 982 192 982 q 292 954 265 982 q 319 889 319 926 m 253 696 l 297 696 l 297 79 q 115 -232 297 -232 q 59 -223 93 -232 q -10 -197 25 -214 l -3 -149 l 61 -149 q 135 -112 111 -149 q 158 -28 158 -75 l 158 586 l 40 600 l 40 643 l 253 696 z "},"ȷ":{"ha":428,"x_min":-10,"x_max":297,"o":"m 253 696 l 297 696 l 297 79 q 115 -232 297 -232 q 59 -223 93 -232 q -10 -197 25 -214 l -3 -149 l 61 -149 q 135 -112 111 -149 q 158 -28 158 -75 l 158 586 l 40 600 l 40 643 l 253 696 z "},"ĵ":{"ha":428,"x_min":-10,"x_max":403,"o":"m 0 0 m 253 696 l 297 696 l 297 79 q 115 -232 297 -232 q 59 -223 93 -232 q -10 -197 25 -214 l -3 -149 l 61 -149 q 135 -112 111 -149 q 158 -28 158 -75 l 158 586 l 40 600 l 40 643 l 253 696 m 368 769 l 214 893 l 61 769 l 25 800 l 167 993 l 260 993 l 403 800 l 368 769 z "},"k":{"ha":779,"x_min":29,"x_max":796,"o":"m 372 0 l 29 0 l 29 53 l 150 81 l 150 901 l 29 915 l 29 958 l 244 1011 l 288 1011 l 288 81 l 372 53 l 372 0 m 796 0 l 471 0 l 471 53 l 532 76 l 306 358 l 507 607 l 396 633 l 396 682 l 753 682 l 753 633 l 621 606 l 443 392 l 696 79 l 796 51 l 796 0 z "},"ķ":{"ha":799,"x_min":29,"x_max":796,"o":"m 29 0 l 29 53 l 150 81 l 150 901 l 29 915 l 29 958 l 244 1011 l 288 1011 l 288 81 l 372 53 l 372 0 l 29 0 m 471 0 l 471 53 l 532 76 l 306 358 l 507 607 l 396 633 l 396 682 l 753 682 l 753 633 l 621 606 l 443 392 l 696 79 l 796 51 l 796 0 l 471 0 m 343 -310 l 360 -60 l 465 -37 l 489 -61 l 393 -314 l 343 -310 z "},"ĸ":{"ha":789,"x_min":39,"x_max":806,"o":"m 382 0 l 39 0 l 39 53 l 160 81 l 160 586 l 40 600 l 40 643 l 254 696 l 297 696 l 297 81 l 382 53 l 382 0 m 806 0 l 481 0 l 481 53 l 542 76 l 315 358 l 517 607 l 406 633 l 406 682 l 763 682 l 763 633 l 631 606 l 453 392 l 706 79 l 806 51 l 806 0 z "},"l":{"ha":424,"x_min":22,"x_max":400,"o":"m 22 0 l 22 53 l 143 81 l 143 901 l 22 915 l 22 958 l 235 1011 l 281 1011 l 281 81 l 400 53 l 400 0 l 22 0 z "},"ĺ":{"ha":424,"x_min":15,"x_max":401,"o":"m 42 1004 l 15 1038 l 229 1218 l 344 1176 l 344 1150 l 42 1004 m 24 0 l 24 53 l 144 81 l 144 901 l 24 915 l 24 958 l 236 1011 l 282 1011 l 282 81 l 401 53 l 401 0 l 24 0 z "},"ľ":{"ha":457,"x_min":24,"x_max":482,"o":"m 397 719 l 353 1021 l 399 1021 l 482 994 l 438 719 l 397 719 m 24 0 l 24 53 l 144 81 l 144 901 l 24 915 l 24 958 l 236 1011 l 282 1011 l 282 81 l 401 53 l 401 0 l 24 0 z "},"ļ":{"ha":424,"x_min":24,"x_max":401,"o":"m 24 0 l 24 53 l 144 81 l 144 901 l 24 915 l 24 958 l 236 1011 l 282 1011 l 282 81 l 401 53 l 401 0 l 24 0 m 143 -310 l 158 -60 l 267 -37 l 289 -61 l 193 -314 l 143 -310 z "},"ŀ":{"ha":424,"x_min":22,"x_max":508,"o":"m 22 0 m 22 0 l 22 53 l 143 81 l 143 901 l 22 915 l 22 958 l 235 1011 l 281 1011 l 281 81 l 400 53 l 400 0 l 22 0 m 508 594 q 483 532 508 557 q 421 507 458 507 q 360 533 385 507 q 335 594 335 558 q 360 658 335 633 q 421 682 385 682 q 484 658 460 682 q 508 594 508 633 z "},"ǉ":{"ha":851,"x_min":22,"x_max":743,"o":"m 22 0 m 22 0 l 22 53 l 143 81 l 143 901 l 22 915 l 22 958 l 235 1011 l 281 1011 l 281 81 l 400 53 l 400 0 l 22 0 m 743 889 q 716 826 743 851 q 651 800 689 800 q 587 826 614 800 q 560 889 560 851 q 588 954 560 926 q 651 982 615 982 q 716 954 689 982 q 743 889 743 926 m 676 696 l 721 696 l 721 79 q 539 -232 721 -232 q 483 -223 517 -232 q 414 -197 449 -214 l 421 -149 l 485 -149 q 558 -112 535 -149 q 582 -28 582 -75 l 582 586 l 464 600 l 464 643 l 676 696 z "},"ł":{"ha":429,"x_min":1,"x_max":435,"o":"m 26 0 l 26 53 l 147 81 l 147 411 l 36 349 l 1 408 l 147 492 l 147 901 l 26 915 l 26 958 l 239 1011 l 285 1011 l 285 572 l 397 638 l 435 576 l 285 490 l 285 81 l 404 53 l 404 0 l 26 0 z "},"m":{"ha":1258,"x_min":38,"x_max":1233,"o":"m 38 46 l 157 81 l 157 586 l 38 600 l 38 644 l 250 696 l 294 696 l 294 640 q 407 678 342 661 q 529 696 472 696 q 615 681 575 696 q 676 638 654 667 q 936 696 829 696 q 1065 659 1019 696 q 1111 546 1111 622 l 1111 81 l 1233 46 l 1233 0 l 876 0 l 876 46 l 974 81 l 974 515 q 963 569 974 550 q 926 595 953 588 q 849 603 900 603 q 699 582 764 603 q 703 543 703 568 l 703 81 l 800 46 l 800 0 l 468 0 l 468 46 l 565 81 l 565 515 q 555 570 565 551 q 517 596 544 589 q 436 603 490 603 q 361 597 400 603 q 294 582 322 592 l 294 81 l 390 46 l 390 0 l 38 0 l 38 46 z "},"n":{"ha":869,"x_min":40,"x_max":846,"o":"m 297 640 q 414 678 344 660 q 544 696 483 696 q 674 660 624 696 q 725 546 725 625 l 725 81 l 846 46 l 846 0 l 483 0 l 483 46 l 588 81 l 588 515 q 577 570 588 551 q 540 596 567 589 q 463 603 514 603 q 297 582 371 603 l 297 81 l 401 46 l 401 0 l 40 0 l 40 46 l 160 81 l 160 586 l 40 600 l 40 644 l 253 696 l 297 696 l 297 640 z "},"ń":{"ha":869,"x_min":38,"x_max":843,"o":"m 313 775 l 285 808 l 500 992 l 615 947 l 615 921 l 313 775 m 294 640 q 411 678 342 660 q 542 696 481 696 q 672 660 621 696 q 722 546 722 625 l 722 81 l 843 46 l 843 0 l 481 0 l 481 46 l 585 81 l 585 515 q 574 570 585 551 q 538 596 564 589 q 460 603 511 603 q 294 582 368 603 l 294 81 l 399 46 l 399 0 l 38 0 l 38 46 l 157 81 l 157 586 l 38 600 l 38 644 l 249 696 l 294 696 l 294 640 z "},"ŉ":{"ha":833,"x_min":40,"x_max":846,"o":"m 40 0 m 157 719 l 113 1021 l 158 1021 l 242 994 l 197 719 l 157 719 m 297 640 q 414 678 344 660 q 544 696 483 696 q 674 660 624 696 q 725 546 725 625 l 725 81 l 846 46 l 846 0 l 483 0 l 483 46 l 588 81 l 588 515 q 577 570 588 551 q 540 596 567 589 q 463 603 514 603 q 297 582 371 603 l 297 81 l 401 46 l 401 0 l 40 0 l 40 46 l 160 81 l 160 586 l 40 600 l 40 644 l 253 696 l 297 696 l 297 640 z "},"ň":{"ha":869,"x_min":38,"x_max":843,"o":"m 281 1000 l 435 881 l 588 1000 l 622 972 l 482 778 l 388 778 l 244 972 l 281 1000 m 294 640 q 411 678 342 660 q 542 696 481 696 q 672 660 621 696 q 722 546 722 625 l 722 81 l 843 46 l 843 0 l 481 0 l 481 46 l 585 81 l 585 515 q 574 570 585 551 q 538 596 564 589 q 460 603 511 603 q 294 582 368 603 l 294 81 l 399 46 l 399 0 l 38 0 l 38 46 l 157 81 l 157 586 l 38 600 l 38 644 l 249 696 l 294 696 l 294 640 z "},"ņ":{"ha":869,"x_min":38,"x_max":843,"o":"m 38 46 l 157 81 l 157 586 l 38 600 l 38 644 l 249 696 l 294 696 l 294 640 q 411 678 342 660 q 542 696 481 696 q 672 660 621 696 q 722 546 722 625 l 722 81 l 843 46 l 843 0 l 481 0 l 481 46 l 585 81 l 585 515 q 574 570 585 551 q 538 596 564 589 q 460 603 511 603 q 294 582 368 603 l 294 81 l 399 46 l 399 0 l 38 0 l 38 46 m 363 -310 l 381 -60 l 486 -37 l 510 -61 l 415 -314 l 363 -310 z "},"ṅ":{"ha":869,"x_min":40,"x_max":846,"o":"m 40 0 m 297 640 q 414 678 344 660 q 544 696 483 696 q 674 660 624 696 q 725 546 725 625 l 725 81 l 846 46 l 846 0 l 483 0 l 483 46 l 588 81 l 588 515 q 577 570 588 551 q 540 596 567 589 q 463 603 514 603 q 297 582 371 603 l 297 81 l 401 46 l 401 0 l 40 0 l 40 46 l 160 81 l 160 586 l 40 600 l 40 644 l 253 696 l 297 696 l 297 640 m 528 889 q 501 826 528 851 q 436 800 474 800 q 369 826 397 800 q 342 889 342 851 q 370 954 342 926 q 436 982 399 982 q 500 954 472 982 q 528 889 528 926 z "},"ŋ":{"ha":833,"x_min":40,"x_max":725,"o":"m 544 696 q 674 660 624 696 q 725 546 725 625 l 725 79 q 544 -232 725 -232 q 488 -223 522 -232 q 419 -197 454 -214 l 426 -149 l 490 -149 q 564 -112 540 -149 q 588 -28 588 -75 l 588 515 q 577 570 588 551 q 540 596 567 589 q 463 603 514 603 q 297 582 371 603 l 297 81 l 401 46 l 401 0 l 40 0 l 40 46 l 160 81 l 160 586 l 40 600 l 40 644 l 253 696 l 297 696 l 297 640 q 414 678 344 660 q 544 696 483 696 z "},"ɲ":{"ha":869,"x_min":-8,"x_max":846,"o":"m 846 46 l 846 0 l 483 0 l 483 46 l 588 81 l 588 515 q 577 570 588 551 q 540 596 567 589 q 463 603 514 603 q 297 582 374 603 l 297 79 q 115 -232 297 -232 q 59 -223 93 -232 q -8 -197 25 -214 l -1 -149 l 63 -149 q 136 -112 113 -149 q 160 -28 160 -75 l 160 586 l 40 600 l 40 644 l 253 696 l 297 696 l 297 640 q 414 678 344 660 q 544 696 483 696 q 674 660 624 696 q 725 546 725 625 l 725 81 l 846 46 z "},"ǌ":{"ha":1297,"x_min":40,"x_max":1189,"o":"m 40 0 m 297 640 q 414 678 344 660 q 544 696 483 696 q 674 660 624 696 q 725 546 725 625 l 725 81 l 846 46 l 846 0 l 483 0 l 483 46 l 588 81 l 588 515 q 577 570 588 551 q 540 596 567 589 q 463 603 514 603 q 297 582 371 603 l 297 81 l 401 46 l 401 0 l 40 0 l 40 46 l 160 81 l 160 586 l 40 600 l 40 644 l 253 696 l 297 696 l 297 640 m 1189 889 q 1162 826 1189 851 q 1097 800 1135 800 q 1033 826 1060 800 q 1006 889 1006 851 q 1033 954 1006 926 q 1097 982 1061 982 q 1162 954 1135 982 q 1189 889 1189 926 m 1122 696 l 1167 696 l 1167 79 q 985 -232 1167 -232 q 928 -223 963 -232 q 860 -197 894 -214 l 867 -149 l 931 -149 q 1004 -112 981 -149 q 1028 -28 1028 -75 l 1028 586 l 910 600 l 910 643 l 1122 696 z "},"ñ":{"ha":869,"x_min":38,"x_max":843,"o":"m 647 943 q 596 843 619 878 q 540 808 572 808 q 428 838 507 808 q 372 855 399 847 q 329 863 344 863 q 301 852 315 863 q 279 831 288 842 q 268 815 271 819 l 219 835 q 271 935 246 900 q 328 969 296 969 q 438 942 357 969 q 539 915 511 915 q 567 926 554 915 q 589 947 581 936 q 599 963 597 958 l 647 943 m 294 640 q 411 678 342 660 q 542 696 481 696 q 672 660 621 696 q 722 546 722 625 l 722 81 l 843 46 l 843 0 l 481 0 l 481 46 l 585 81 l 585 515 q 574 570 585 551 q 538 596 564 589 q 460 603 511 603 q 294 582 368 603 l 294 81 l 399 46 l 399 0 l 38 0 l 38 46 l 157 81 l 157 586 l 38 600 l 38 644 l 249 696 l 294 696 l 294 640 z "},"o":{"ha":758,"x_min":50,"x_max":708,"o":"m 379 696 q 628 597 549 696 q 708 338 708 499 q 628 84 708 182 q 379 -14 547 -14 q 131 84 213 -14 q 50 338 50 182 q 131 597 50 497 q 379 696 211 696 m 558 342 q 518 548 558 475 q 375 621 478 621 q 239 547 278 621 q 200 342 200 474 q 240 135 200 208 q 383 61 281 61 q 521 134 483 61 q 558 342 558 207 z "},"ó":{"ha":758,"x_min":50,"x_max":708,"o":"m 50 0 m 379 696 q 628 597 549 696 q 708 338 708 499 q 628 84 708 182 q 379 -14 547 -14 q 131 84 213 -14 q 50 338 50 182 q 131 597 50 497 q 379 696 211 696 m 558 342 q 518 548 558 475 q 375 621 478 621 q 239 547 278 621 q 200 342 200 474 q 240 135 200 208 q 383 61 281 61 q 521 134 483 61 q 558 342 558 207 m 274 775 l 246 808 l 461 992 l 576 947 l 576 921 l 274 775 z "},"ŏ":{"ha":758,"x_min":50,"x_max":708,"o":"m 50 0 m 379 696 q 628 597 549 696 q 708 338 708 499 q 628 84 708 182 q 379 -14 547 -14 q 131 84 213 -14 q 50 338 50 182 q 131 597 50 497 q 379 696 211 696 m 558 342 q 518 548 558 475 q 375 621 478 621 q 239 547 278 621 q 200 342 200 474 q 240 135 200 208 q 383 61 281 61 q 521 134 483 61 q 558 342 558 207 m 378 801 q 251 847 286 801 q 215 968 215 893 l 272 971 q 376 886 272 886 q 488 971 488 886 l 544 968 q 378 801 544 801 z "},"ǒ":{"ha":758,"x_min":50,"x_max":708,"o":"m 50 0 m 379 696 q 628 597 549 696 q 708 338 708 499 q 628 84 708 182 q 379 -14 547 -14 q 131 84 213 -14 q 50 338 50 182 q 131 597 50 497 q 379 696 211 696 m 558 342 q 518 548 558 475 q 375 621 478 621 q 239 547 278 621 q 200 342 200 474 q 240 135 200 208 q 383 61 281 61 q 521 134 483 61 q 558 342 558 207 m 226 1000 l 381 881 l 533 1000 l 568 972 l 428 778 l 333 778 l 190 972 l 226 1000 z "},"ô":{"ha":758,"x_min":50,"x_max":708,"o":"m 533 769 l 379 893 l 226 769 l 190 800 l 332 993 l 426 993 l 568 800 l 533 769 m 379 696 q 628 597 549 696 q 708 338 708 499 q 628 84 708 182 q 379 -14 547 -14 q 131 84 213 -14 q 50 338 50 182 q 131 597 50 497 q 379 696 211 696 m 558 342 q 518 548 558 475 q 375 621 478 621 q 239 547 278 621 q 200 342 200 474 q 240 135 200 208 q 383 61 281 61 q 521 134 483 61 q 558 342 558 207 z "},"ố":{"ha":758,"x_min":50,"x_max":818,"o":"m 585 849 l 550 871 l 683 1118 l 807 1118 l 818 1093 l 585 849 m 533 769 l 379 893 l 226 769 l 190 800 l 332 993 l 425 993 l 568 800 l 533 769 m 379 696 q 628 597 549 696 q 708 338 708 499 q 628 84 708 182 q 379 -14 547 -14 q 131 84 213 -14 q 50 338 50 182 q 131 597 50 497 q 379 696 211 696 m 558 342 q 518 548 558 475 q 375 621 478 621 q 239 547 278 621 q 200 342 200 474 q 240 135 200 208 q 383 61 281 61 q 521 134 483 61 q 558 342 558 207 z "},"ộ":{"ha":758,"x_min":50,"x_max":708,"o":"m 50 0 m 379 696 q 628 597 549 696 q 708 338 708 499 q 628 84 708 182 q 379 -14 547 -14 q 131 84 213 -14 q 50 338 50 182 q 131 597 50 497 q 379 696 211 696 m 558 342 q 518 548 558 475 q 375 621 478 621 q 239 547 278 621 q 200 342 200 474 q 240 135 200 208 q 383 61 281 61 q 521 134 483 61 q 558 342 558 207 m 472 -151 q 445 -215 472 -189 q 381 -240 418 -240 q 314 -215 342 -240 q 286 -151 286 -189 q 315 -86 286 -114 q 381 -58 343 -58 q 444 -86 417 -58 q 472 -151 472 -114 m 533 769 l 379 893 l 226 769 l 190 800 l 332 993 l 425 993 l 568 800 l 533 769 z "},"ồ":{"ha":758,"x_min":50,"x_max":708,"o":"m 621 849 l 386 1093 l 397 1118 l 521 1118 l 654 871 l 621 849 m 519 769 l 365 893 l 213 769 l 176 800 l 318 993 l 411 993 l 554 800 l 519 769 m 379 696 q 628 597 549 696 q 708 338 708 499 q 628 84 708 182 q 379 -14 547 -14 q 131 84 213 -14 q 50 338 50 182 q 131 597 50 497 q 379 696 211 696 m 558 342 q 518 548 558 475 q 375 621 478 621 q 239 547 278 621 q 200 342 200 474 q 240 135 200 208 q 383 61 281 61 q 521 134 483 61 q 558 342 558 207 z "},"ổ":{"ha":758,"x_min":50,"x_max":708,"o":"m 50 0 m 379 696 q 628 597 549 696 q 708 338 708 499 q 628 84 708 182 q 379 -14 547 -14 q 131 84 213 -14 q 50 338 50 182 q 131 597 50 497 q 379 696 211 696 m 558 342 q 518 548 558 475 q 375 621 478 621 q 239 547 278 621 q 200 342 200 474 q 240 135 200 208 q 383 61 281 61 q 521 134 483 61 q 558 342 558 207 m 533 769 l 379 893 l 226 769 l 190 800 l 332 993 l 425 993 l 568 800 l 533 769 m 667 1047 q 575 975 667 990 l 567 942 l 507 942 l 501 999 q 583 1042 583 999 q 570 1068 583 1058 q 533 1078 557 1078 q 503 1075 525 1078 l 492 1033 l 446 1033 l 438 1107 q 542 1117 490 1117 q 634 1099 601 1117 q 667 1047 667 1081 z "},"ỗ":{"ha":758,"x_min":50,"x_max":708,"o":"m 50 0 m 379 696 q 628 597 549 696 q 708 338 708 499 q 628 84 708 182 q 379 -14 547 -14 q 131 84 213 -14 q 50 338 50 182 q 131 597 50 497 q 379 696 211 696 m 558 342 q 518 548 558 475 q 375 621 478 621 q 239 547 278 621 q 200 342 200 474 q 240 135 200 208 q 383 61 281 61 q 521 134 483 61 q 558 342 558 207 m 543 732 l 376 843 l 215 732 l 189 760 l 332 943 l 425 943 l 569 760 l 543 732 m 596 1088 q 544 988 568 1022 q 489 954 521 954 q 440 963 471 954 q 378 982 408 971 q 278 1008 304 1008 q 250 997 264 1008 q 228 975 236 986 q 217 960 219 964 l 168 979 q 219 1078 193 1043 q 276 1114 244 1114 q 324 1106 294 1114 q 385 1086 354 1097 q 489 1060 461 1060 q 516 1070 503 1060 q 538 1092 529 1081 q 547 1107 546 1103 l 596 1088 z "},"ȍ":{"ha":758,"x_min":50,"x_max":708,"o":"m 50 0 m 379 696 q 628 597 549 696 q 708 338 708 499 q 628 84 708 182 q 379 -14 547 -14 q 131 84 213 -14 q 50 338 50 182 q 131 597 50 497 q 379 696 211 696 m 558 342 q 518 548 558 475 q 375 621 478 621 q 239 547 278 621 q 200 342 200 474 q 240 135 200 208 q 383 61 281 61 q 521 134 483 61 q 558 342 558 207 m 294 758 l 89 975 l 89 1000 l 200 1000 l 326 779 l 294 758 m 518 758 l 313 975 l 313 1000 l 424 1000 l 550 779 l 518 758 z "},"ö":{"ha":758,"x_min":50,"x_max":708,"o":"m 322 888 q 297 828 322 853 q 236 804 271 804 q 175 828 201 804 q 149 888 149 853 q 175 949 149 924 q 236 975 201 975 q 297 949 271 975 q 322 888 322 924 m 608 888 q 583 828 608 853 q 522 804 557 804 q 460 828 486 804 q 435 888 435 853 q 460 949 435 924 q 522 975 486 975 q 582 949 556 975 q 608 888 608 924 m 379 696 q 628 597 549 696 q 708 338 708 499 q 628 84 708 182 q 379 -14 547 -14 q 131 84 213 -14 q 50 338 50 182 q 131 597 50 497 q 379 696 211 696 m 558 342 q 518 548 558 475 q 375 621 478 621 q 239 547 278 621 q 200 342 200 474 q 240 135 200 208 q 383 61 281 61 q 521 134 483 61 q 558 342 558 207 z "},"ọ":{"ha":758,"x_min":50,"x_max":708,"o":"m 50 0 m 379 696 q 628 597 549 696 q 708 338 708 499 q 628 84 708 182 q 379 -14 547 -14 q 131 84 213 -14 q 50 338 50 182 q 131 597 50 497 q 379 696 211 696 m 558 342 q 518 548 558 475 q 375 621 478 621 q 239 547 278 621 q 200 342 200 474 q 240 135 200 208 q 383 61 281 61 q 521 134 483 61 q 558 342 558 207 m 472 -151 q 445 -215 472 -189 q 381 -240 418 -240 q 314 -215 342 -240 q 286 -151 286 -189 q 315 -86 286 -114 q 381 -58 343 -58 q 444 -86 417 -58 q 472 -151 472 -114 z "},"ò":{"ha":758,"x_min":50,"x_max":708,"o":"m 501 775 l 194 921 l 197 947 l 313 992 l 525 808 l 501 775 m 379 696 q 628 597 549 696 q 708 338 708 499 q 628 84 708 182 q 379 -14 547 -14 q 131 84 213 -14 q 50 338 50 182 q 131 597 50 497 q 379 696 211 696 m 558 342 q 518 548 558 475 q 375 621 478 621 q 239 547 278 621 q 200 342 200 474 q 240 135 200 208 q 383 61 281 61 q 521 134 483 61 q 558 342 558 207 z "},"ỏ":{"ha":758,"x_min":50,"x_max":708,"o":"m 50 0 m 379 696 q 628 597 549 696 q 708 338 708 499 q 628 84 708 182 q 379 -14 547 -14 q 131 84 213 -14 q 50 338 50 182 q 131 597 50 497 q 379 696 211 696 m 558 342 q 518 548 558 475 q 375 621 478 621 q 239 547 278 621 q 200 342 200 474 q 240 135 200 208 q 383 61 281 61 q 521 134 483 61 q 558 342 558 207 m 519 874 q 428 801 519 817 l 419 768 l 360 768 l 354 825 q 436 868 436 825 q 423 894 436 885 q 386 904 410 904 q 356 901 378 904 l 344 860 l 299 860 l 290 933 q 394 943 343 943 q 487 925 454 943 q 519 874 519 907 z "},"ơ":{"ha":758,"x_min":50,"x_max":776,"o":"m 776 744 q 733 656 776 693 q 622 604 690 619 q 708 338 708 513 q 628 84 708 182 q 379 -14 547 -14 q 131 84 213 -14 q 50 338 50 182 q 131 597 50 497 q 379 696 211 696 q 557 656 485 696 l 568 656 q 633 671 611 656 q 656 729 656 686 q 649 786 656 756 l 657 804 l 758 824 q 772 783 767 806 q 776 744 776 761 m 383 61 q 521 134 483 61 q 558 342 558 207 q 518 548 558 475 q 375 621 478 621 q 239 547 278 621 q 200 342 200 474 q 240 135 200 208 q 383 61 281 61 z "},"ớ":{"ha":758,"x_min":50,"x_max":776,"o":"m 50 0 m 776 744 q 733 656 776 693 q 622 604 690 619 q 708 338 708 513 q 628 84 708 182 q 379 -14 547 -14 q 131 84 213 -14 q 50 338 50 182 q 131 597 50 497 q 379 696 211 696 q 557 656 485 696 l 568 656 q 633 671 611 656 q 656 729 656 686 q 649 786 656 756 l 657 804 l 758 824 q 772 783 767 806 q 776 744 776 761 m 383 61 q 521 134 483 61 q 558 342 558 207 q 518 548 558 475 q 375 621 478 621 q 239 547 278 621 q 200 342 200 474 q 240 135 200 208 q 383 61 281 61 m 274 775 l 246 808 l 461 992 l 576 947 l 576 921 l 274 775 z "},"ợ":{"ha":758,"x_min":50,"x_max":776,"o":"m 50 0 m 776 744 q 733 656 776 693 q 622 604 690 619 q 708 338 708 513 q 628 84 708 182 q 379 -14 547 -14 q 131 84 213 -14 q 50 338 50 182 q 131 597 50 497 q 379 696 211 696 q 557 656 485 696 l 568 656 q 633 671 611 656 q 656 729 656 686 q 649 786 656 756 l 657 804 l 758 824 q 772 783 767 806 q 776 744 776 761 m 383 61 q 521 134 483 61 q 558 342 558 207 q 518 548 558 475 q 375 621 478 621 q 239 547 278 621 q 200 342 200 474 q 240 135 200 208 q 383 61 281 61 m 472 -151 q 445 -215 472 -189 q 381 -240 418 -240 q 314 -215 342 -240 q 286 -151 286 -189 q 315 -86 286 -114 q 381 -58 343 -58 q 444 -86 417 -58 q 472 -151 472 -114 z "},"ờ":{"ha":758,"x_min":50,"x_max":776,"o":"m 50 0 m 776 744 q 733 656 776 693 q 622 604 690 619 q 708 338 708 513 q 628 84 708 182 q 379 -14 547 -14 q 131 84 213 -14 q 50 338 50 182 q 131 597 50 497 q 379 696 211 696 q 557 656 485 696 l 568 656 q 633 671 611 656 q 656 729 656 686 q 649 786 656 756 l 657 804 l 758 824 q 772 783 767 806 q 776 744 776 761 m 383 61 q 521 134 483 61 q 558 342 558 207 q 518 548 558 475 q 375 621 478 621 q 239 547 278 621 q 200 342 200 474 q 240 135 200 208 q 383 61 281 61 m 465 775 l 158 921 l 161 947 l 276 992 l 489 808 l 465 775 z "},"ở":{"ha":758,"x_min":50,"x_max":776,"o":"m 50 0 m 776 744 q 733 656 776 693 q 622 604 690 619 q 708 338 708 513 q 628 84 708 182 q 379 -14 547 -14 q 131 84 213 -14 q 50 338 50 182 q 131 597 50 497 q 379 696 211 696 q 557 656 485 696 l 568 656 q 633 671 611 656 q 656 729 656 686 q 649 786 656 756 l 657 804 l 758 824 q 772 783 767 806 q 776 744 776 761 m 383 61 q 521 134 483 61 q 558 342 558 207 q 518 548 558 475 q 375 621 478 621 q 239 547 278 621 q 200 342 200 474 q 240 135 200 208 q 383 61 281 61 m 519 874 q 428 801 519 817 l 419 768 l 360 768 l 354 825 q 436 868 436 825 q 423 894 436 885 q 386 904 410 904 q 356 901 378 904 l 344 860 l 299 860 l 290 933 q 394 943 343 943 q 487 925 454 943 q 519 874 519 907 z "},"ỡ":{"ha":758,"x_min":50,"x_max":776,"o":"m 50 0 m 776 744 q 733 656 776 693 q 622 604 690 619 q 708 338 708 513 q 628 84 708 182 q 379 -14 547 -14 q 131 84 213 -14 q 50 338 50 182 q 131 597 50 497 q 379 696 211 696 q 557 656 485 696 l 568 656 q 633 671 611 656 q 656 729 656 686 q 649 786 656 756 l 657 804 l 758 824 q 772 783 767 806 q 776 744 776 761 m 383 61 q 521 134 483 61 q 558 342 558 207 q 518 548 558 475 q 375 621 478 621 q 239 547 278 621 q 200 342 200 474 q 240 135 200 208 q 383 61 281 61 m 593 943 q 542 843 565 878 q 486 808 518 808 q 437 817 468 808 q 375 836 406 825 q 275 863 301 863 q 247 852 261 863 q 225 831 233 842 q 214 815 217 819 l 165 835 q 217 935 192 900 q 274 969 242 969 q 322 961 292 969 q 382 942 351 953 q 486 915 458 915 q 513 926 500 915 q 535 947 526 936 q 544 963 543 958 l 593 943 z "},"ő":{"ha":758,"x_min":50,"x_max":708,"o":"m 208 758 l 178 779 l 303 1000 l 414 1000 l 414 975 l 208 758 m 432 758 l 401 779 l 526 1000 l 638 1000 l 638 975 l 432 758 m 379 696 q 628 597 549 696 q 708 338 708 499 q 628 84 708 182 q 379 -14 547 -14 q 131 84 213 -14 q 50 338 50 182 q 131 597 50 497 q 379 696 211 696 m 558 342 q 518 548 558 475 q 375 621 478 621 q 239 547 278 621 q 200 342 200 474 q 240 135 200 208 q 383 61 281 61 q 521 134 483 61 q 558 342 558 207 z "},"ȏ":{"ha":758,"x_min":50,"x_max":708,"o":"m 50 0 m 379 696 q 628 597 549 696 q 708 338 708 499 q 628 84 708 182 q 379 -14 547 -14 q 131 84 213 -14 q 50 338 50 182 q 131 597 50 497 q 379 696 211 696 m 558 342 q 518 548 558 475 q 375 621 478 621 q 239 547 278 621 q 200 342 200 474 q 240 135 200 208 q 383 61 281 61 q 521 134 483 61 q 558 342 558 207 m 381 985 q 508 939 472 985 q 544 818 544 893 l 486 815 q 382 900 486 900 q 271 815 271 900 l 215 818 q 381 985 215 985 z "},"ō":{"ha":758,"x_min":50,"x_max":708,"o":"m 222 928 l 533 928 l 533 844 l 222 844 l 222 928 m 379 696 q 628 597 549 696 q 708 338 708 499 q 628 84 708 182 q 379 -14 547 -14 q 131 84 213 -14 q 50 338 50 182 q 131 597 50 497 q 379 696 211 696 m 558 342 q 518 548 558 475 q 375 621 478 621 q 239 547 278 621 q 200 342 200 474 q 240 135 200 208 q 383 61 281 61 q 521 134 483 61 q 558 342 558 207 z "},"ǫ":{"ha":758,"x_min":50,"x_max":708,"o":"m 582 -207 q 656 -176 624 -207 l 682 -201 q 665 -224 682 -204 q 617 -260 647 -243 q 544 -276 586 -276 q 443 -242 476 -276 q 410 -158 410 -207 q 428 -83 410 -124 q 483 -1 446 -42 q 379 -14 436 -14 q 131 84 213 -14 q 50 338 50 182 q 131 597 50 497 q 379 696 211 696 q 628 597 549 696 q 708 338 708 499 q 681 176 708 249 q 599 56 654 103 q 538 -30 564 25 q 511 -132 511 -85 q 529 -187 511 -168 q 582 -207 547 -207 m 200 342 q 240 135 200 208 q 383 61 281 61 q 521 134 483 61 q 558 342 558 207 q 518 548 558 475 q 375 621 478 621 q 239 547 278 621 q 200 342 200 474 z "},"ø":{"ha":758,"x_min":50,"x_max":708,"o":"m 225 15 q 94 140 138 54 q 50 338 50 225 q 131 597 50 497 q 379 696 211 696 q 443 692 414 696 l 483 814 l 571 814 l 525 669 q 664 545 619 632 q 708 338 708 458 q 628 84 708 182 q 379 -14 547 -14 q 303 -7 342 -14 l 264 -129 l 179 -129 l 225 15 m 421 617 q 375 621 400 621 q 239 547 278 621 q 200 342 200 474 q 257 115 200 179 l 421 617 m 383 61 q 521 134 483 61 q 558 342 558 207 q 493 575 558 514 l 328 69 q 383 61 353 61 z "},"ǿ":{"ha":758,"x_min":50,"x_max":708,"o":"m 50 0 m 225 15 q 94 140 138 54 q 50 338 50 225 q 131 597 50 497 q 379 696 211 696 q 443 692 414 696 l 483 814 l 571 814 l 525 669 q 664 545 619 632 q 708 338 708 458 q 628 84 708 182 q 379 -14 547 -14 q 303 -7 342 -14 l 264 -129 l 179 -129 l 225 15 m 421 617 q 375 621 400 621 q 239 547 278 621 q 200 342 200 474 q 257 115 200 179 l 421 617 m 383 61 q 521 134 483 61 q 558 342 558 207 q 493 575 558 514 l 328 69 q 383 61 353 61 m 274 775 l 246 808 l 461 992 l 576 947 l 576 921 l 274 775 z "},"õ":{"ha":758,"x_min":50,"x_max":708,"o":"m 594 943 q 543 843 568 878 q 488 808 518 808 q 376 836 457 808 q 275 863 300 863 q 248 852 261 863 q 226 831 235 842 q 215 815 218 819 l 167 835 q 217 934 192 899 q 275 969 243 969 q 383 942 303 969 q 486 915 457 915 q 515 926 501 915 q 536 947 528 936 q 546 963 544 958 l 594 943 m 379 696 q 628 597 549 696 q 708 338 708 499 q 628 84 708 182 q 379 -14 547 -14 q 131 84 213 -14 q 50 338 50 182 q 131 597 50 497 q 379 696 211 696 m 558 342 q 518 548 558 475 q 375 621 478 621 q 239 547 278 621 q 200 342 200 474 q 240 135 200 208 q 383 61 281 61 q 521 134 483 61 q 558 342 558 207 z "},"œ":{"ha":1175,"x_min":50,"x_max":1133,"o":"m 379 -14 q 131 84 213 -14 q 50 338 50 182 q 131 597 50 499 q 379 696 211 696 q 635 576 551 696 q 869 696 714 696 q 1064 630 994 696 q 1133 429 1133 564 q 1129 356 1133 401 l 711 356 l 711 332 q 756 146 711 222 q 917 69 800 69 q 1016 78 960 69 q 1115 100 1072 86 l 1124 51 q 1015 3 1072 19 q 885 -14 957 -14 q 731 19 797 -14 q 633 108 665 51 q 532 19 597 53 q 379 -14 467 -14 m 382 61 q 520 133 483 61 q 557 347 557 204 q 517 551 556 481 q 374 621 478 621 q 238 549 275 621 q 200 343 200 478 q 240 135 200 210 q 382 61 279 61 m 988 428 l 988 458 q 960 575 988 532 q 876 618 933 618 q 753 565 790 618 q 714 413 717 513 l 988 428 z "},"p":{"ha":800,"x_min":18,"x_max":750,"o":"m 24 -185 l 143 -150 l 143 588 l 18 600 l 18 644 q 208 681 104 665 q 393 696 311 696 q 669 602 589 696 q 750 338 750 508 q 670 92 750 185 q 444 0 590 0 q 331 18 386 0 l 347 75 q 397 71 385 71 q 558 142 518 71 q 599 343 599 214 q 560 543 599 467 q 401 619 521 619 q 281 600 343 619 l 281 -147 l 424 -182 l 424 -232 l 24 -232 l 24 -185 z "},"þ":{"ha":788,"x_min":13,"x_max":738,"o":"m 13 -185 l 132 -150 l 132 901 l 13 915 l 13 958 l 225 1011 l 268 1011 l 268 689 q 393 696 335 696 q 658 601 578 696 q 738 338 738 507 q 658 92 738 185 q 432 0 578 0 q 318 18 381 0 l 335 75 q 385 71 372 71 q 546 142 506 71 q 586 343 586 214 q 573 482 586 424 q 515 580 560 540 q 383 619 471 619 q 268 600 317 619 l 268 -147 l 411 -182 l 411 -232 l 13 -232 l 13 -185 z "},"q":{"ha":771,"x_min":51,"x_max":774,"o":"m 774 -185 l 774 -232 l 396 -232 l 396 -185 l 524 -149 l 524 65 q 417 4 464 22 q 293 -14 371 -14 q 115 85 178 -14 q 51 338 51 183 q 129 596 51 496 q 357 696 207 696 q 563 643 463 696 l 613 686 l 657 686 l 657 -150 l 774 -185 m 519 575 q 372 621 450 621 q 247 549 290 621 q 203 358 203 476 q 243 142 203 207 q 360 78 283 78 q 449 92 407 78 q 519 131 492 106 l 519 575 z "},"r":{"ha":565,"x_min":38,"x_max":542,"o":"m 426 597 q 294 572 356 597 l 294 81 l 453 50 l 453 0 l 38 0 l 38 49 l 157 82 l 157 585 l 38 600 l 38 643 l 239 696 l 292 696 l 292 632 q 397 681 339 663 q 504 699 454 699 q 542 697 531 699 l 518 482 l 456 482 l 426 597 z "},"ŕ":{"ha":565,"x_min":38,"x_max":542,"o":"m 207 775 l 181 808 l 396 992 l 511 947 l 511 921 l 207 775 m 426 597 q 294 572 356 597 l 294 81 l 453 50 l 453 0 l 38 0 l 38 49 l 157 82 l 157 585 l 38 600 l 38 643 l 239 696 l 292 696 l 292 632 q 397 681 339 663 q 504 699 454 699 q 542 697 531 699 l 518 482 l 456 482 l 426 597 z "},"ř":{"ha":565,"x_min":38,"x_max":542,"o":"m 149 1000 l 303 881 l 456 1000 l 490 972 l 350 778 l 256 778 l 113 972 l 149 1000 m 426 597 q 294 572 356 597 l 294 81 l 453 50 l 453 0 l 38 0 l 38 49 l 157 82 l 157 585 l 38 600 l 38 643 l 239 696 l 292 696 l 292 632 q 397 681 339 663 q 504 699 454 699 q 542 697 531 699 l 518 482 l 456 482 l 426 597 z "},"ŗ":{"ha":565,"x_min":38,"x_max":542,"o":"m 38 49 l 157 82 l 157 585 l 38 600 l 38 643 l 239 696 l 292 696 l 292 632 q 397 681 339 663 q 504 699 454 699 q 542 697 531 699 l 518 482 l 456 482 l 426 597 q 294 572 356 597 l 294 81 l 453 50 l 453 0 l 38 0 l 38 49 m 171 -310 l 189 -60 l 296 -37 l 318 -61 l 222 -314 l 171 -310 z "},"ȑ":{"ha":565,"x_min":-7,"x_max":542,"o":"m 0 0 m 426 597 q 294 572 356 597 l 294 81 l 453 50 l 453 0 l 38 0 l 38 49 l 157 82 l 157 585 l 38 600 l 38 643 l 239 696 l 292 696 l 292 632 q 397 681 339 663 q 504 699 454 699 q 542 697 531 699 l 518 482 l 456 482 l 426 597 m 199 758 l -7 975 l -7 1000 l 104 1000 l 231 779 l 199 758 m 422 758 l 217 975 l 217 1000 l 328 1000 l 454 779 l 422 758 z "},"ṛ":{"ha":565,"x_min":38,"x_max":542,"o":"m 38 0 m 426 597 q 294 572 356 597 l 294 81 l 453 50 l 453 0 l 38 0 l 38 49 l 157 82 l 157 585 l 38 600 l 38 643 l 239 696 l 292 696 l 292 632 q 397 681 339 663 q 504 699 454 699 q 542 697 531 699 l 518 482 l 456 482 l 426 597 m 319 -151 q 292 -215 319 -189 q 228 -240 265 -240 q 161 -215 189 -240 q 133 -151 133 -189 q 162 -86 133 -114 q 228 -58 190 -58 q 292 -86 264 -58 q 319 -151 319 -114 z "},"ȓ":{"ha":565,"x_min":38,"x_max":542,"o":"m 38 0 m 426 597 q 294 572 356 597 l 294 81 l 453 50 l 453 0 l 38 0 l 38 49 l 157 82 l 157 585 l 38 600 l 38 643 l 239 696 l 292 696 l 292 632 q 397 681 339 663 q 504 699 454 699 q 542 697 531 699 l 518 482 l 456 482 l 426 597 m 285 985 q 413 939 376 985 q 449 818 449 893 l 390 815 q 286 900 390 900 q 175 815 175 900 l 119 818 q 285 985 119 985 z "},"s":{"ha":596,"x_min":58,"x_max":539,"o":"m 314 618 q 217 594 251 618 q 182 526 182 569 q 201 465 182 486 q 271 425 221 443 l 389 385 q 506 314 474 356 q 539 199 539 272 q 470 43 539 100 q 272 -14 401 -14 q 163 -4 222 -14 q 58 22 104 6 l 78 193 l 132 193 l 161 78 q 275 61 217 61 q 418 174 418 61 q 396 228 418 207 q 314 271 374 250 l 207 307 q 100 378 133 335 q 67 492 67 421 q 129 642 67 589 q 317 696 192 696 q 513 653 415 696 l 492 496 l 439 496 l 410 597 q 365 612 392 606 q 314 618 338 618 z "},"ś":{"ha":604,"x_min":61,"x_max":542,"o":"m 183 775 l 157 808 l 372 992 l 488 947 l 488 921 l 183 775 m 315 618 q 219 594 254 618 q 185 526 185 569 q 204 465 185 486 q 274 425 224 443 l 392 385 q 508 314 475 356 q 542 199 542 272 q 472 43 542 100 q 275 -14 403 -14 q 165 -4 225 -14 q 61 22 106 6 l 81 193 l 135 193 l 164 78 q 278 61 219 61 q 421 174 421 61 q 399 228 421 207 q 317 271 376 250 l 210 307 q 103 378 136 335 q 69 492 69 421 q 132 642 69 589 q 319 696 194 696 q 515 653 418 696 l 494 496 l 442 496 l 413 597 q 367 612 394 606 q 315 618 340 618 z "},"ꞌ":{"ha":225,"x_min":64,"x_max":228,"o":"m 117 488 l 64 497 l 83 954 l 201 982 l 228 954 l 117 488 z "},"š":{"ha":607,"x_min":72,"x_max":553,"o":"m 265 763 l 122 957 l 160 983 l 313 864 l 467 983 l 501 957 l 360 763 l 265 763 m 286 -14 q 176 -4 236 -14 q 72 22 117 6 l 90 193 l 146 193 l 175 78 q 289 61 228 61 q 394 88 356 61 q 432 160 432 115 q 408 224 432 200 q 322 269 383 249 l 215 307 q 108 378 142 335 q 75 492 75 421 q 138 642 75 589 q 325 696 200 696 q 521 653 424 696 l 500 496 l 447 496 l 418 597 q 373 612 400 606 q 322 618 346 618 q 225 594 260 618 q 190 526 190 569 q 210 465 190 486 q 279 425 229 443 l 400 385 q 518 314 483 357 q 553 189 553 271 q 483 42 553 97 q 286 -14 414 -14 z "},"ş":{"ha":604,"x_min":61,"x_max":542,"o":"m 246 -304 q 174 -292 204 -304 l 185 -251 q 231 -260 210 -260 q 303 -235 275 -260 q 331 -175 331 -210 q 307 -130 331 -147 q 233 -112 283 -112 l 228 -96 l 256 -14 q 61 22 140 -8 l 79 193 l 135 193 l 164 78 q 278 61 217 61 q 383 89 346 61 q 421 174 421 117 q 398 228 421 207 q 317 271 375 250 l 210 307 q 103 378 136 335 q 69 492 69 421 q 132 642 69 589 q 319 696 194 696 q 515 653 417 696 l 494 496 l 442 496 l 413 597 q 315 618 365 618 q 219 594 253 618 q 185 526 185 571 q 204 465 185 486 q 274 425 224 443 l 392 385 q 508 314 475 356 q 542 199 542 272 q 481 50 542 106 q 306 -12 419 -6 l 289 -64 q 397 -92 360 -64 q 435 -162 435 -119 q 408 -233 435 -200 q 339 -285 382 -265 q 246 -304 296 -304 z "},"ŝ":{"ha":596,"x_min":58,"x_max":539,"o":"m 58 0 m 314 618 q 217 594 251 618 q 182 526 182 569 q 201 465 182 486 q 271 425 221 443 l 389 385 q 506 314 474 356 q 539 199 539 272 q 470 43 539 100 q 272 -14 401 -14 q 163 -4 222 -14 q 58 22 104 6 l 78 193 l 132 193 l 161 78 q 275 61 217 61 q 418 174 418 61 q 396 228 418 207 q 314 271 374 250 l 207 307 q 100 378 133 335 q 67 492 67 421 q 129 642 67 589 q 317 696 192 696 q 513 653 415 696 l 492 496 l 439 496 l 410 597 q 365 612 392 606 q 314 618 338 618 m 453 769 l 299 893 l 146 769 l 110 800 l 251 993 l 344 993 l 488 800 l 453 769 z "},"ș":{"ha":604,"x_min":61,"x_max":542,"o":"m 315 618 q 219 594 253 618 q 185 526 185 571 q 204 465 185 486 q 274 425 224 443 l 392 385 q 508 314 475 356 q 542 199 542 272 q 472 43 542 100 q 275 -14 403 -14 q 165 -4 225 -14 q 61 22 106 6 l 79 193 l 135 193 l 164 78 q 278 61 217 61 q 383 89 346 61 q 421 174 421 117 q 398 228 421 207 q 317 271 375 250 l 210 307 q 103 378 136 335 q 69 492 69 421 q 132 642 69 589 q 319 696 194 696 q 515 653 417 696 l 494 496 l 442 496 l 413 597 q 315 618 365 618 m 281 -314 l 229 -310 l 246 -60 l 351 -37 l 375 -61 l 281 -314 z "},"ṣ":{"ha":596,"x_min":58,"x_max":539,"o":"m 58 0 m 314 618 q 217 594 251 618 q 182 526 182 569 q 201 465 182 486 q 271 425 221 443 l 389 385 q 506 314 474 356 q 539 199 539 272 q 470 43 539 100 q 272 -14 401 -14 q 163 -4 222 -14 q 58 22 104 6 l 78 193 l 132 193 l 161 78 q 275 61 217 61 q 418 174 418 61 q 396 228 418 207 q 314 271 374 250 l 207 307 q 100 378 133 335 q 67 492 67 421 q 129 642 67 589 q 317 696 192 696 q 513 653 415 696 l 492 496 l 439 496 l 410 597 q 365 612 392 606 q 314 618 338 618 m 392 -151 q 365 -215 392 -189 q 300 -240 338 -240 q 233 -215 261 -240 q 206 -151 206 -189 q 234 -86 206 -114 q 300 -58 263 -58 q 364 -86 336 -58 q 392 -151 392 -114 z "},"ß":{"ha":849,"x_min":40,"x_max":825,"o":"m 592 -14 q 499 -5 540 -14 q 414 22 458 4 l 429 188 l 482 188 l 511 72 q 600 56 550 56 q 674 80 650 56 q 697 144 697 104 q 663 231 697 193 q 560 319 628 269 q 453 413 489 372 q 417 504 417 453 q 433 562 417 538 q 479 615 449 586 q 538 686 518 654 q 557 768 557 718 q 528 858 557 819 q 429 897 499 897 q 324 853 351 897 q 296 722 296 808 l 296 81 l 371 56 l 371 0 l 40 0 l 40 49 l 158 81 l 158 604 l 47 604 l 47 651 l 158 688 q 235 907 158 838 q 436 976 311 976 q 569 948 510 976 q 662 874 629 919 q 694 779 694 829 q 674 707 694 736 q 615 643 654 678 q 563 590 581 614 q 546 535 546 567 q 569 487 546 511 q 646 422 593 463 q 738 347 701 381 q 799 269 774 314 q 825 171 825 224 q 763 35 825 85 q 592 -14 701 -14 z "},"ſ":{"ha":508,"x_min":43,"x_max":585,"o":"m 43 49 l 161 81 l 161 604 l 50 604 l 50 651 l 161 688 q 239 925 161 839 q 447 1011 317 1011 q 524 1003 482 1011 q 585 983 567 994 l 564 811 l 501 811 l 482 907 q 418 921 453 921 q 325 874 350 921 q 300 732 300 828 l 300 82 l 461 50 l 461 0 l 43 0 l 43 49 z "},"t":{"ha":489,"x_min":28,"x_max":472,"o":"m 453 17 q 345 -3 413 6 q 242 -12 278 -12 q 129 100 129 -12 l 129 603 l 28 603 l 28 657 l 142 697 l 203 836 l 265 836 l 265 682 l 472 682 l 472 592 l 265 603 l 265 92 l 453 64 l 453 17 z "},"ŧ":{"ha":489,"x_min":28,"x_max":472,"o":"m 265 603 l 265 429 l 446 429 l 446 361 l 265 361 l 265 92 l 453 64 l 453 17 q 345 -3 413 6 q 242 -12 278 -12 q 129 100 129 -12 l 129 361 l 43 361 l 43 429 l 129 429 l 129 603 l 28 603 l 28 657 l 142 697 l 203 836 l 265 836 l 265 682 l 472 682 l 472 592 l 265 603 z "},"ť":{"ha":489,"x_min":31,"x_max":483,"o":"m 356 1021 l 401 1021 l 483 994 l 440 719 l 400 719 l 356 1021 m 454 17 q 347 -3 414 6 q 244 -12 281 -12 q 132 100 132 -12 l 132 603 l 31 603 l 31 657 l 144 697 l 206 836 l 267 836 l 267 682 l 474 682 l 474 592 l 267 603 l 267 92 l 454 64 l 454 17 z "},"ţ":{"ha":489,"x_min":31,"x_max":474,"o":"m 215 -304 q 143 -292 174 -304 l 154 -251 q 200 -260 179 -260 q 272 -235 244 -260 q 300 -175 300 -210 q 276 -130 300 -147 q 203 -112 253 -112 l 197 -96 l 226 -12 q 132 100 132 -3 l 132 603 l 31 603 l 31 657 l 144 697 l 206 836 l 267 836 l 267 682 l 474 682 l 474 592 l 267 603 l 267 92 l 454 64 l 454 17 q 369 -1 422 7 q 275 -11 317 -8 l 258 -64 q 367 -92 329 -64 q 404 -162 404 -119 q 378 -233 404 -200 q 308 -285 351 -265 q 215 -304 265 -304 z "},"ț":{"ha":489,"x_min":31,"x_max":474,"o":"m 244 -12 q 132 100 132 -12 l 132 603 l 31 603 l 31 657 l 144 697 l 206 836 l 267 836 l 267 682 l 474 682 l 474 592 l 267 603 l 267 92 l 454 64 l 454 17 q 347 -3 414 6 q 244 -12 281 -12 m 196 -310 l 214 -60 l 319 -37 l 343 -61 l 247 -314 l 196 -310 z "},"ṭ":{"ha":489,"x_min":28,"x_max":472,"o":"m 28 0 m 453 17 q 345 -3 413 6 q 242 -12 278 -12 q 129 100 129 -12 l 129 603 l 28 603 l 28 657 l 142 697 l 203 836 l 265 836 l 265 682 l 472 682 l 472 592 l 265 603 l 265 92 l 453 64 l 453 17 m 338 -151 q 310 -215 338 -189 q 246 -240 283 -240 q 179 -215 207 -240 q 151 -151 151 -189 q 180 -86 151 -114 q 246 -58 208 -58 q 310 -86 282 -58 q 338 -151 338 -114 z "},"u":{"ha":839,"x_min":21,"x_max":811,"o":"m 811 17 q 663 -6 732 -6 q 595 14 626 -6 q 558 67 564 33 q 426 8 486 29 q 303 -14 365 -14 q 178 33 217 -14 q 139 150 139 79 l 139 586 l 21 600 l 21 643 l 233 696 l 278 696 l 278 175 q 299 103 278 125 q 382 81 321 81 q 464 94 415 81 q 551 125 513 107 l 551 586 l 432 600 l 432 643 l 644 696 l 690 696 l 690 92 l 811 63 l 811 17 z "},"ú":{"ha":844,"x_min":19,"x_max":810,"o":"m 288 775 l 261 808 l 475 992 l 590 947 l 590 921 l 288 775 m 810 17 q 661 -6 731 -6 q 594 14 625 -6 q 557 67 563 33 q 426 8 488 31 q 303 -14 364 -14 q 177 33 215 -14 q 139 150 139 79 l 139 586 l 19 600 l 19 643 l 233 696 l 276 696 l 276 175 q 298 103 276 125 q 381 81 319 81 q 463 94 414 81 q 550 125 511 107 l 550 586 l 431 600 l 431 643 l 644 696 l 689 696 l 689 92 l 810 63 l 810 17 z "},"ŭ":{"ha":839,"x_min":21,"x_max":811,"o":"m 21 0 m 811 17 q 663 -6 732 -6 q 595 14 626 -6 q 558 67 564 33 q 426 8 486 29 q 303 -14 365 -14 q 178 33 217 -14 q 139 150 139 79 l 139 586 l 21 600 l 21 643 l 233 696 l 278 696 l 278 175 q 299 103 278 125 q 382 81 321 81 q 464 94 415 81 q 551 125 513 107 l 551 586 l 432 600 l 432 643 l 644 696 l 690 696 l 690 92 l 811 63 l 811 17 m 418 801 q 291 847 326 801 q 256 968 256 893 l 313 971 q 417 886 313 886 q 528 971 528 886 l 585 968 q 418 801 585 801 z "},"ǔ":{"ha":839,"x_min":21,"x_max":811,"o":"m 21 0 m 811 17 q 663 -6 732 -6 q 595 14 626 -6 q 558 67 564 33 q 426 8 486 29 q 303 -14 365 -14 q 178 33 217 -14 q 139 150 139 79 l 139 586 l 21 600 l 21 643 l 233 696 l 278 696 l 278 175 q 299 103 278 125 q 382 81 321 81 q 464 94 415 81 q 551 125 513 107 l 551 586 l 432 600 l 432 643 l 644 696 l 690 696 l 690 92 l 811 63 l 811 17 m 267 1000 l 421 881 l 574 1000 l 608 972 l 468 778 l 374 778 l 231 972 l 267 1000 z "},"û":{"ha":844,"x_min":19,"x_max":810,"o":"m 554 769 l 400 893 l 247 769 l 211 800 l 353 993 l 447 993 l 589 800 l 554 769 m 810 17 q 661 -6 731 -6 q 594 14 625 -6 q 557 67 563 33 q 426 8 488 31 q 303 -14 364 -14 q 177 33 215 -14 q 139 150 139 79 l 139 586 l 19 600 l 19 643 l 233 696 l 276 696 l 276 175 q 298 103 276 125 q 381 81 319 81 q 463 94 414 81 q 550 125 511 107 l 550 586 l 431 600 l 431 643 l 644 696 l 689 696 l 689 92 l 810 63 l 810 17 z "},"ȕ":{"ha":839,"x_min":21,"x_max":811,"o":"m 21 0 m 811 17 q 663 -6 732 -6 q 595 14 626 -6 q 558 67 564 33 q 426 8 486 29 q 303 -14 365 -14 q 178 33 217 -14 q 139 150 139 79 l 139 586 l 21 600 l 21 643 l 233 696 l 278 696 l 278 175 q 299 103 278 125 q 382 81 321 81 q 464 94 415 81 q 551 125 513 107 l 551 586 l 432 600 l 432 643 l 644 696 l 690 696 l 690 92 l 811 63 l 811 17 m 335 758 l 129 975 l 129 1000 l 240 1000 l 367 779 l 335 758 m 558 758 l 353 975 l 353 1000 l 464 1000 l 590 779 l 558 758 z "},"ü":{"ha":844,"x_min":19,"x_max":810,"o":"m 349 888 q 323 828 349 853 q 263 804 297 804 q 201 828 228 804 q 175 888 175 853 q 201 949 175 924 q 263 975 228 975 q 323 949 297 975 q 349 888 349 924 m 636 888 q 610 828 636 853 q 549 804 583 804 q 487 828 513 804 q 461 888 461 853 q 487 949 461 924 q 549 975 513 975 q 610 949 583 975 q 636 888 636 924 m 810 17 q 661 -6 731 -6 q 594 14 625 -6 q 557 67 563 33 q 426 8 488 31 q 303 -14 364 -14 q 177 33 215 -14 q 139 150 139 79 l 139 586 l 19 600 l 19 643 l 233 696 l 276 696 l 276 175 q 298 103 276 125 q 381 81 319 81 q 463 94 414 81 q 550 125 511 107 l 550 586 l 431 600 l 431 643 l 644 696 l 689 696 l 689 92 l 810 63 l 810 17 z "},"ǘ":{"ha":839,"x_min":21,"x_max":811,"o":"m 21 0 m 811 17 q 663 -6 732 -6 q 595 14 626 -6 q 558 67 564 33 q 426 8 486 29 q 303 -14 365 -14 q 178 33 217 -14 q 139 150 139 79 l 139 586 l 21 600 l 21 643 l 233 696 l 278 696 l 278 175 q 299 103 278 125 q 382 81 321 81 q 464 94 415 81 q 551 125 513 107 l 551 586 l 432 600 l 432 643 l 644 696 l 690 696 l 690 92 l 811 63 l 811 17 m 363 833 q 337 774 363 799 q 276 750 311 750 q 215 774 242 750 q 189 833 189 799 q 215 895 189 869 q 276 921 242 921 q 337 895 311 921 q 363 833 363 869 m 649 833 q 623 774 649 799 q 563 750 597 750 q 501 774 526 750 q 475 833 475 799 q 501 895 475 869 q 563 921 526 921 q 622 895 596 921 q 649 833 649 869 m 363 967 l 335 1000 l 550 1181 l 665 1139 l 665 1113 l 363 967 z "},"ǚ":{"ha":839,"x_min":21,"x_max":811,"o":"m 21 0 m 811 17 q 663 -6 732 -6 q 595 14 626 -6 q 558 67 564 33 q 426 8 486 29 q 303 -14 365 -14 q 178 33 217 -14 q 139 150 139 79 l 139 586 l 21 600 l 21 643 l 233 696 l 278 696 l 278 175 q 299 103 278 125 q 382 81 321 81 q 464 94 415 81 q 551 125 513 107 l 551 586 l 432 600 l 432 643 l 644 696 l 690 696 l 690 92 l 811 63 l 811 17 m 363 833 q 337 774 363 799 q 276 750 311 750 q 215 774 242 750 q 189 833 189 799 q 215 895 189 869 q 276 921 242 921 q 337 895 311 921 q 363 833 363 869 m 649 833 q 623 774 649 799 q 563 750 597 750 q 501 774 526 750 q 475 833 475 799 q 501 895 475 869 q 563 921 526 921 q 622 895 596 921 q 649 833 649 869 m 376 971 l 232 1154 l 258 1182 l 424 1071 l 586 1182 l 613 1154 l 471 971 l 376 971 z "},"ǜ":{"ha":839,"x_min":21,"x_max":811,"o":"m 21 0 m 811 17 q 663 -6 732 -6 q 595 14 626 -6 q 558 67 564 33 q 426 8 486 29 q 303 -14 365 -14 q 178 33 217 -14 q 139 150 139 79 l 139 586 l 21 600 l 21 643 l 233 696 l 278 696 l 278 175 q 299 103 278 125 q 382 81 321 81 q 464 94 415 81 q 551 125 513 107 l 551 586 l 432 600 l 432 643 l 644 696 l 690 696 l 690 92 l 811 63 l 811 17 m 363 833 q 337 774 363 799 q 276 750 311 750 q 215 774 242 750 q 189 833 189 799 q 215 895 189 869 q 276 921 242 921 q 337 895 311 921 q 363 833 363 869 m 649 833 q 623 774 649 799 q 563 750 597 750 q 501 774 526 750 q 475 833 475 799 q 501 895 475 869 q 563 921 526 921 q 622 895 596 921 q 649 833 649 869 m 486 967 l 179 1113 l 182 1139 l 297 1181 l 510 1000 l 486 967 z "},"ǖ":{"ha":839,"x_min":21,"x_max":811,"o":"m 21 0 m 811 17 q 663 -6 732 -6 q 595 14 626 -6 q 558 67 564 33 q 426 8 486 29 q 303 -14 365 -14 q 178 33 217 -14 q 139 150 139 79 l 139 586 l 21 600 l 21 643 l 233 696 l 278 696 l 278 175 q 299 103 278 125 q 382 81 321 81 q 464 94 415 81 q 551 125 513 107 l 551 586 l 432 600 l 432 643 l 644 696 l 690 696 l 690 92 l 811 63 l 811 17 m 363 833 q 337 774 363 799 q 276 750 311 750 q 215 774 242 750 q 189 833 189 799 q 215 895 189 869 q 276 921 242 921 q 337 895 311 921 q 363 833 363 869 m 649 833 q 623 774 649 799 q 563 750 597 750 q 501 774 526 750 q 475 833 475 799 q 501 895 475 869 q 563 921 526 921 q 622 895 596 921 q 649 833 649 869 m 265 1115 l 578 1115 l 578 1031 l 265 1031 l 265 1115 z "},"ụ":{"ha":839,"x_min":21,"x_max":811,"o":"m 21 0 m 811 17 q 663 -6 732 -6 q 595 14 626 -6 q 558 67 564 33 q 426 8 486 29 q 303 -14 365 -14 q 178 33 217 -14 q 139 150 139 79 l 139 586 l 21 600 l 21 643 l 233 696 l 278 696 l 278 175 q 299 103 278 125 q 382 81 321 81 q 464 94 415 81 q 551 125 513 107 l 551 586 l 432 600 l 432 643 l 644 696 l 690 696 l 690 92 l 811 63 l 811 17 m 513 -151 q 485 -215 513 -189 q 421 -240 458 -240 q 354 -215 382 -240 q 326 -151 326 -189 q 355 -86 326 -114 q 421 -58 383 -58 q 485 -86 457 -58 q 513 -151 513 -114 z "},"ù":{"ha":844,"x_min":19,"x_max":810,"o":"m 522 775 l 215 921 l 217 947 l 332 992 l 546 808 l 522 775 m 810 17 q 661 -6 731 -6 q 594 14 625 -6 q 557 67 563 33 q 426 8 488 31 q 303 -14 364 -14 q 177 33 215 -14 q 139 150 139 79 l 139 586 l 19 600 l 19 643 l 233 696 l 276 696 l 276 175 q 298 103 276 125 q 381 81 319 81 q 463 94 414 81 q 550 125 511 107 l 550 586 l 431 600 l 431 643 l 644 696 l 689 696 l 689 92 l 810 63 l 810 17 z "},"ủ":{"ha":839,"x_min":21,"x_max":811,"o":"m 21 0 m 811 17 q 663 -6 732 -6 q 595 14 626 -6 q 558 67 564 33 q 426 8 486 29 q 303 -14 365 -14 q 178 33 217 -14 q 139 150 139 79 l 139 586 l 21 600 l 21 643 l 233 696 l 278 696 l 278 175 q 299 103 278 125 q 382 81 321 81 q 464 94 415 81 q 551 125 513 107 l 551 586 l 432 600 l 432 643 l 644 696 l 690 696 l 690 92 l 811 63 l 811 17 m 560 874 q 468 801 560 817 l 460 768 l 400 768 l 394 825 q 476 868 476 825 q 463 894 476 885 q 426 904 450 904 q 396 901 418 904 l 385 860 l 339 860 l 331 933 q 435 943 383 943 q 527 925 494 943 q 560 874 560 907 z "},"ư":{"ha":839,"x_min":21,"x_max":906,"o":"m 906 785 q 842 681 906 721 q 690 635 779 642 l 690 92 l 811 63 l 811 17 q 663 -6 732 -6 q 595 14 626 -6 q 558 67 564 33 q 426 8 486 29 q 303 -14 365 -14 q 178 33 217 -14 q 139 150 139 79 l 139 586 l 21 600 l 21 643 l 233 696 l 278 696 l 278 175 q 299 103 278 125 q 382 81 321 81 q 464 94 415 81 q 551 125 513 107 l 551 586 l 432 600 l 432 643 l 644 696 l 697 696 q 763 711 740 696 q 785 769 785 726 q 778 826 785 796 l 786 844 l 888 864 q 901 824 896 846 q 906 785 906 801 z "},"ứ":{"ha":839,"x_min":21,"x_max":906,"o":"m 21 0 m 906 785 q 842 681 906 721 q 690 635 779 642 l 690 92 l 811 63 l 811 17 q 663 -6 732 -6 q 595 14 626 -6 q 558 67 564 33 q 426 8 486 29 q 303 -14 365 -14 q 178 33 217 -14 q 139 150 139 79 l 139 586 l 21 600 l 21 643 l 233 696 l 278 696 l 278 175 q 299 103 278 125 q 382 81 321 81 q 464 94 415 81 q 551 125 513 107 l 551 586 l 432 600 l 432 643 l 644 696 l 697 696 q 763 711 740 696 q 785 769 785 726 q 778 826 785 796 l 786 844 l 888 864 q 901 824 896 846 q 906 785 906 801 m 314 775 l 286 808 l 501 992 l 617 947 l 617 921 l 314 775 z "}}}
